<?xml version="1.0" encoding="utf-8" standalone="no"?>
<!DOCTYPE svg PUBLIC "-//W3C//DTD SVG 1.1//EN"
  "http://www.w3.org/Graphics/SVG/1.1/DTD/svg11.dtd">
<svg xmlns:xlink="http://www.w3.org/1999/xlink" width="497.38125pt" height="420.59625pt" viewBox="0 0 497.38125 420.59625" xmlns="http://www.w3.org/2000/svg" version="1.1">
 <metadata>
  <rdf:RDF xmlns:dc="http://purl.org/dc/elements/1.1/" xmlns:cc="http://creativecommons.org/ns#" xmlns:rdf="http://www.w3.org/1999/02/22-rdf-syntax-ns#">
   <cc:Work>
    <dc:type rdf:resource="http://purl.org/dc/dcmitype/StillImage"/>
    <dc:date>2025-01-22T11:03:02.469926</dc:date>
    <dc:format>image/svg+xml</dc:format>
    <dc:creator>
     <cc:Agent>
      <dc:title>Matplotlib v3.10.0, https://matplotlib.org/</dc:title>
     </cc:Agent>
    </dc:creator>
   </cc:Work>
  </rdf:RDF>
 </metadata>
 <defs>
  <style type="text/css">*{stroke-linejoin: round; stroke-linecap: butt}</style>
 </defs>
 <g id="figure_1">
  <g id="patch_1">
   <path d="M 0 420.59625
L 497.38125 420.59625
L 497.38125 0
L 0 0
z
" style="fill: #ffffff"/>
  </g>
  <g id="axes_1">
   <g id="patch_2">
    <path d="M 43.78125 383.04
L 490.18125 383.04
L 490.18125 50.4
L 43.78125 50.4
z
" style="fill: #ffffff"/>
   </g>
   <g id="matplotlib.axis_1">
    <g id="xtick_1">
     <g id="line2d_1">
      <path d="M 64.072159 383.04
L 64.072159 50.4
" clip-path="url(#pe50638493c)" style="fill: none; stroke: #b0b0b0; stroke-width: 0.8; stroke-linecap: square"/>
     </g>
     <g id="line2d_2">
      <defs>
       <path id="mcdec101fe4" d="M 0 0
L 0 3.5
" style="stroke: #000000; stroke-width: 0.8"/>
      </defs>
      <g>
       <use xlink:href="#mcdec101fe4" x="64.072159" y="383.04" style="stroke: #000000; stroke-width: 0.8"/>
      </g>
     </g>
     <g id="text_1">
      <!-- 0.0000 -->
      <g transform="translate(46.576847 397.638437) scale(0.1 -0.1)">
       <defs>
        <path id="DejaVuSans-30" d="M 2034 4250
Q 1547 4250 1301 3770
Q 1056 3291 1056 2328
Q 1056 1369 1301 889
Q 1547 409 2034 409
Q 2525 409 2770 889
Q 3016 1369 3016 2328
Q 3016 3291 2770 3770
Q 2525 4250 2034 4250
z
M 2034 4750
Q 2819 4750 3233 4129
Q 3647 3509 3647 2328
Q 3647 1150 3233 529
Q 2819 -91 2034 -91
Q 1250 -91 836 529
Q 422 1150 422 2328
Q 422 3509 836 4129
Q 1250 4750 2034 4750
z
" transform="scale(0.015625)"/>
        <path id="DejaVuSans-2e" d="M 684 794
L 1344 794
L 1344 0
L 684 0
L 684 794
z
" transform="scale(0.015625)"/>
       </defs>
       <use xlink:href="#DejaVuSans-30"/>
       <use xlink:href="#DejaVuSans-2e" transform="translate(63.623047 0)"/>
       <use xlink:href="#DejaVuSans-30" transform="translate(95.410156 0)"/>
       <use xlink:href="#DejaVuSans-30" transform="translate(159.033203 0)"/>
       <use xlink:href="#DejaVuSans-30" transform="translate(222.65625 0)"/>
       <use xlink:href="#DejaVuSans-30" transform="translate(286.279297 0)"/>
      </g>
     </g>
    </g>
    <g id="xtick_2">
     <g id="line2d_3">
      <path d="M 114.799432 383.04
L 114.799432 50.4
" clip-path="url(#pe50638493c)" style="fill: none; stroke: #b0b0b0; stroke-width: 0.8; stroke-linecap: square"/>
     </g>
     <g id="line2d_4">
      <g>
       <use xlink:href="#mcdec101fe4" x="114.799432" y="383.04" style="stroke: #000000; stroke-width: 0.8"/>
      </g>
     </g>
     <g id="text_2">
      <!-- 0.0025 -->
      <g transform="translate(97.304119 397.638437) scale(0.1 -0.1)">
       <defs>
        <path id="DejaVuSans-32" d="M 1228 531
L 3431 531
L 3431 0
L 469 0
L 469 531
Q 828 903 1448 1529
Q 2069 2156 2228 2338
Q 2531 2678 2651 2914
Q 2772 3150 2772 3378
Q 2772 3750 2511 3984
Q 2250 4219 1831 4219
Q 1534 4219 1204 4116
Q 875 4013 500 3803
L 500 4441
Q 881 4594 1212 4672
Q 1544 4750 1819 4750
Q 2544 4750 2975 4387
Q 3406 4025 3406 3419
Q 3406 3131 3298 2873
Q 3191 2616 2906 2266
Q 2828 2175 2409 1742
Q 1991 1309 1228 531
z
" transform="scale(0.015625)"/>
        <path id="DejaVuSans-35" d="M 691 4666
L 3169 4666
L 3169 4134
L 1269 4134
L 1269 2991
Q 1406 3038 1543 3061
Q 1681 3084 1819 3084
Q 2600 3084 3056 2656
Q 3513 2228 3513 1497
Q 3513 744 3044 326
Q 2575 -91 1722 -91
Q 1428 -91 1123 -41
Q 819 9 494 109
L 494 744
Q 775 591 1075 516
Q 1375 441 1709 441
Q 2250 441 2565 725
Q 2881 1009 2881 1497
Q 2881 1984 2565 2268
Q 2250 2553 1709 2553
Q 1456 2553 1204 2497
Q 953 2441 691 2322
L 691 4666
z
" transform="scale(0.015625)"/>
       </defs>
       <use xlink:href="#DejaVuSans-30"/>
       <use xlink:href="#DejaVuSans-2e" transform="translate(63.623047 0)"/>
       <use xlink:href="#DejaVuSans-30" transform="translate(95.410156 0)"/>
       <use xlink:href="#DejaVuSans-30" transform="translate(159.033203 0)"/>
       <use xlink:href="#DejaVuSans-32" transform="translate(222.65625 0)"/>
       <use xlink:href="#DejaVuSans-35" transform="translate(286.279297 0)"/>
      </g>
     </g>
    </g>
    <g id="xtick_3">
     <g id="line2d_5">
      <path d="M 165.526705 383.04
L 165.526705 50.4
" clip-path="url(#pe50638493c)" style="fill: none; stroke: #b0b0b0; stroke-width: 0.8; stroke-linecap: square"/>
     </g>
     <g id="line2d_6">
      <g>
       <use xlink:href="#mcdec101fe4" x="165.526705" y="383.04" style="stroke: #000000; stroke-width: 0.8"/>
      </g>
     </g>
     <g id="text_3">
      <!-- 0.0050 -->
      <g transform="translate(148.031392 397.638437) scale(0.1 -0.1)">
       <use xlink:href="#DejaVuSans-30"/>
       <use xlink:href="#DejaVuSans-2e" transform="translate(63.623047 0)"/>
       <use xlink:href="#DejaVuSans-30" transform="translate(95.410156 0)"/>
       <use xlink:href="#DejaVuSans-30" transform="translate(159.033203 0)"/>
       <use xlink:href="#DejaVuSans-35" transform="translate(222.65625 0)"/>
       <use xlink:href="#DejaVuSans-30" transform="translate(286.279297 0)"/>
      </g>
     </g>
    </g>
    <g id="xtick_4">
     <g id="line2d_7">
      <path d="M 216.253977 383.04
L 216.253977 50.4
" clip-path="url(#pe50638493c)" style="fill: none; stroke: #b0b0b0; stroke-width: 0.8; stroke-linecap: square"/>
     </g>
     <g id="line2d_8">
      <g>
       <use xlink:href="#mcdec101fe4" x="216.253977" y="383.04" style="stroke: #000000; stroke-width: 0.8"/>
      </g>
     </g>
     <g id="text_4">
      <!-- 0.0075 -->
      <g transform="translate(198.758665 397.638437) scale(0.1 -0.1)">
       <defs>
        <path id="DejaVuSans-37" d="M 525 4666
L 3525 4666
L 3525 4397
L 1831 0
L 1172 0
L 2766 4134
L 525 4134
L 525 4666
z
" transform="scale(0.015625)"/>
       </defs>
       <use xlink:href="#DejaVuSans-30"/>
       <use xlink:href="#DejaVuSans-2e" transform="translate(63.623047 0)"/>
       <use xlink:href="#DejaVuSans-30" transform="translate(95.410156 0)"/>
       <use xlink:href="#DejaVuSans-30" transform="translate(159.033203 0)"/>
       <use xlink:href="#DejaVuSans-37" transform="translate(222.65625 0)"/>
       <use xlink:href="#DejaVuSans-35" transform="translate(286.279297 0)"/>
      </g>
     </g>
    </g>
    <g id="xtick_5">
     <g id="line2d_9">
      <path d="M 266.98125 383.04
L 266.98125 50.4
" clip-path="url(#pe50638493c)" style="fill: none; stroke: #b0b0b0; stroke-width: 0.8; stroke-linecap: square"/>
     </g>
     <g id="line2d_10">
      <g>
       <use xlink:href="#mcdec101fe4" x="266.98125" y="383.04" style="stroke: #000000; stroke-width: 0.8"/>
      </g>
     </g>
     <g id="text_5">
      <!-- 0.0100 -->
      <g transform="translate(249.485937 397.638437) scale(0.1 -0.1)">
       <defs>
        <path id="DejaVuSans-31" d="M 794 531
L 1825 531
L 1825 4091
L 703 3866
L 703 4441
L 1819 4666
L 2450 4666
L 2450 531
L 3481 531
L 3481 0
L 794 0
L 794 531
z
" transform="scale(0.015625)"/>
       </defs>
       <use xlink:href="#DejaVuSans-30"/>
       <use xlink:href="#DejaVuSans-2e" transform="translate(63.623047 0)"/>
       <use xlink:href="#DejaVuSans-30" transform="translate(95.410156 0)"/>
       <use xlink:href="#DejaVuSans-31" transform="translate(159.033203 0)"/>
       <use xlink:href="#DejaVuSans-30" transform="translate(222.65625 0)"/>
       <use xlink:href="#DejaVuSans-30" transform="translate(286.279297 0)"/>
      </g>
     </g>
    </g>
    <g id="xtick_6">
     <g id="line2d_11">
      <path d="M 317.708523 383.04
L 317.708523 50.4
" clip-path="url(#pe50638493c)" style="fill: none; stroke: #b0b0b0; stroke-width: 0.8; stroke-linecap: square"/>
     </g>
     <g id="line2d_12">
      <g>
       <use xlink:href="#mcdec101fe4" x="317.708523" y="383.04" style="stroke: #000000; stroke-width: 0.8"/>
      </g>
     </g>
     <g id="text_6">
      <!-- 0.0125 -->
      <g transform="translate(300.21321 397.638437) scale(0.1 -0.1)">
       <use xlink:href="#DejaVuSans-30"/>
       <use xlink:href="#DejaVuSans-2e" transform="translate(63.623047 0)"/>
       <use xlink:href="#DejaVuSans-30" transform="translate(95.410156 0)"/>
       <use xlink:href="#DejaVuSans-31" transform="translate(159.033203 0)"/>
       <use xlink:href="#DejaVuSans-32" transform="translate(222.65625 0)"/>
       <use xlink:href="#DejaVuSans-35" transform="translate(286.279297 0)"/>
      </g>
     </g>
    </g>
    <g id="xtick_7">
     <g id="line2d_13">
      <path d="M 368.435795 383.04
L 368.435795 50.4
" clip-path="url(#pe50638493c)" style="fill: none; stroke: #b0b0b0; stroke-width: 0.8; stroke-linecap: square"/>
     </g>
     <g id="line2d_14">
      <g>
       <use xlink:href="#mcdec101fe4" x="368.435795" y="383.04" style="stroke: #000000; stroke-width: 0.8"/>
      </g>
     </g>
     <g id="text_7">
      <!-- 0.0150 -->
      <g transform="translate(350.940483 397.638437) scale(0.1 -0.1)">
       <use xlink:href="#DejaVuSans-30"/>
       <use xlink:href="#DejaVuSans-2e" transform="translate(63.623047 0)"/>
       <use xlink:href="#DejaVuSans-30" transform="translate(95.410156 0)"/>
       <use xlink:href="#DejaVuSans-31" transform="translate(159.033203 0)"/>
       <use xlink:href="#DejaVuSans-35" transform="translate(222.65625 0)"/>
       <use xlink:href="#DejaVuSans-30" transform="translate(286.279297 0)"/>
      </g>
     </g>
    </g>
    <g id="xtick_8">
     <g id="line2d_15">
      <path d="M 419.163068 383.04
L 419.163068 50.4
" clip-path="url(#pe50638493c)" style="fill: none; stroke: #b0b0b0; stroke-width: 0.8; stroke-linecap: square"/>
     </g>
     <g id="line2d_16">
      <g>
       <use xlink:href="#mcdec101fe4" x="419.163068" y="383.04" style="stroke: #000000; stroke-width: 0.8"/>
      </g>
     </g>
     <g id="text_8">
      <!-- 0.0175 -->
      <g transform="translate(401.667756 397.638437) scale(0.1 -0.1)">
       <use xlink:href="#DejaVuSans-30"/>
       <use xlink:href="#DejaVuSans-2e" transform="translate(63.623047 0)"/>
       <use xlink:href="#DejaVuSans-30" transform="translate(95.410156 0)"/>
       <use xlink:href="#DejaVuSans-31" transform="translate(159.033203 0)"/>
       <use xlink:href="#DejaVuSans-37" transform="translate(222.65625 0)"/>
       <use xlink:href="#DejaVuSans-35" transform="translate(286.279297 0)"/>
      </g>
     </g>
    </g>
    <g id="xtick_9">
     <g id="line2d_17">
      <path d="M 469.890341 383.04
L 469.890341 50.4
" clip-path="url(#pe50638493c)" style="fill: none; stroke: #b0b0b0; stroke-width: 0.8; stroke-linecap: square"/>
     </g>
     <g id="line2d_18">
      <g>
       <use xlink:href="#mcdec101fe4" x="469.890341" y="383.04" style="stroke: #000000; stroke-width: 0.8"/>
      </g>
     </g>
     <g id="text_9">
      <!-- 0.0200 -->
      <g transform="translate(452.395028 397.638437) scale(0.1 -0.1)">
       <use xlink:href="#DejaVuSans-30"/>
       <use xlink:href="#DejaVuSans-2e" transform="translate(63.623047 0)"/>
       <use xlink:href="#DejaVuSans-30" transform="translate(95.410156 0)"/>
       <use xlink:href="#DejaVuSans-32" transform="translate(159.033203 0)"/>
       <use xlink:href="#DejaVuSans-30" transform="translate(222.65625 0)"/>
       <use xlink:href="#DejaVuSans-30" transform="translate(286.279297 0)"/>
      </g>
     </g>
    </g>
    <g id="text_10">
     <!-- time (s) -->
     <g transform="translate(247.589844 411.316562) scale(0.1 -0.1)">
      <defs>
       <path id="DejaVuSans-74" d="M 1172 4494
L 1172 3500
L 2356 3500
L 2356 3053
L 1172 3053
L 1172 1153
Q 1172 725 1289 603
Q 1406 481 1766 481
L 2356 481
L 2356 0
L 1766 0
Q 1100 0 847 248
Q 594 497 594 1153
L 594 3053
L 172 3053
L 172 3500
L 594 3500
L 594 4494
L 1172 4494
z
" transform="scale(0.015625)"/>
       <path id="DejaVuSans-69" d="M 603 3500
L 1178 3500
L 1178 0
L 603 0
L 603 3500
z
M 603 4863
L 1178 4863
L 1178 4134
L 603 4134
L 603 4863
z
" transform="scale(0.015625)"/>
       <path id="DejaVuSans-6d" d="M 3328 2828
Q 3544 3216 3844 3400
Q 4144 3584 4550 3584
Q 5097 3584 5394 3201
Q 5691 2819 5691 2113
L 5691 0
L 5113 0
L 5113 2094
Q 5113 2597 4934 2840
Q 4756 3084 4391 3084
Q 3944 3084 3684 2787
Q 3425 2491 3425 1978
L 3425 0
L 2847 0
L 2847 2094
Q 2847 2600 2669 2842
Q 2491 3084 2119 3084
Q 1678 3084 1418 2786
Q 1159 2488 1159 1978
L 1159 0
L 581 0
L 581 3500
L 1159 3500
L 1159 2956
Q 1356 3278 1631 3431
Q 1906 3584 2284 3584
Q 2666 3584 2933 3390
Q 3200 3197 3328 2828
z
" transform="scale(0.015625)"/>
       <path id="DejaVuSans-65" d="M 3597 1894
L 3597 1613
L 953 1613
Q 991 1019 1311 708
Q 1631 397 2203 397
Q 2534 397 2845 478
Q 3156 559 3463 722
L 3463 178
Q 3153 47 2828 -22
Q 2503 -91 2169 -91
Q 1331 -91 842 396
Q 353 884 353 1716
Q 353 2575 817 3079
Q 1281 3584 2069 3584
Q 2775 3584 3186 3129
Q 3597 2675 3597 1894
z
M 3022 2063
Q 3016 2534 2758 2815
Q 2500 3097 2075 3097
Q 1594 3097 1305 2825
Q 1016 2553 972 2059
L 3022 2063
z
" transform="scale(0.015625)"/>
       <path id="DejaVuSans-20" transform="scale(0.015625)"/>
       <path id="DejaVuSans-28" d="M 1984 4856
Q 1566 4138 1362 3434
Q 1159 2731 1159 2009
Q 1159 1288 1364 580
Q 1569 -128 1984 -844
L 1484 -844
Q 1016 -109 783 600
Q 550 1309 550 2009
Q 550 2706 781 3412
Q 1013 4119 1484 4856
L 1984 4856
z
" transform="scale(0.015625)"/>
       <path id="DejaVuSans-73" d="M 2834 3397
L 2834 2853
Q 2591 2978 2328 3040
Q 2066 3103 1784 3103
Q 1356 3103 1142 2972
Q 928 2841 928 2578
Q 928 2378 1081 2264
Q 1234 2150 1697 2047
L 1894 2003
Q 2506 1872 2764 1633
Q 3022 1394 3022 966
Q 3022 478 2636 193
Q 2250 -91 1575 -91
Q 1294 -91 989 -36
Q 684 19 347 128
L 347 722
Q 666 556 975 473
Q 1284 391 1588 391
Q 1994 391 2212 530
Q 2431 669 2431 922
Q 2431 1156 2273 1281
Q 2116 1406 1581 1522
L 1381 1569
Q 847 1681 609 1914
Q 372 2147 372 2553
Q 372 3047 722 3315
Q 1072 3584 1716 3584
Q 2034 3584 2315 3537
Q 2597 3491 2834 3397
z
" transform="scale(0.015625)"/>
       <path id="DejaVuSans-29" d="M 513 4856
L 1013 4856
Q 1481 4119 1714 3412
Q 1947 2706 1947 2009
Q 1947 1309 1714 600
Q 1481 -109 1013 -844
L 513 -844
Q 928 -128 1133 580
Q 1338 1288 1338 2009
Q 1338 2731 1133 3434
Q 928 4138 513 4856
z
" transform="scale(0.015625)"/>
      </defs>
      <use xlink:href="#DejaVuSans-74"/>
      <use xlink:href="#DejaVuSans-69" transform="translate(39.208984 0)"/>
      <use xlink:href="#DejaVuSans-6d" transform="translate(66.992188 0)"/>
      <use xlink:href="#DejaVuSans-65" transform="translate(164.404297 0)"/>
      <use xlink:href="#DejaVuSans-20" transform="translate(225.927734 0)"/>
      <use xlink:href="#DejaVuSans-28" transform="translate(257.714844 0)"/>
      <use xlink:href="#DejaVuSans-73" transform="translate(296.728516 0)"/>
      <use xlink:href="#DejaVuSans-29" transform="translate(348.828125 0)"/>
     </g>
    </g>
   </g>
   <g id="matplotlib.axis_2">
    <g id="ytick_1">
     <g id="line2d_19">
      <path d="M 43.78125 380.777143
L 490.18125 380.777143
" clip-path="url(#pe50638493c)" style="fill: none; stroke: #b0b0b0; stroke-width: 0.8; stroke-linecap: square"/>
     </g>
     <g id="line2d_20">
      <defs>
       <path id="mc5bc332066" d="M 0 0
L -3.5 0
" style="stroke: #000000; stroke-width: 0.8"/>
      </defs>
      <g>
       <use xlink:href="#mc5bc332066" x="43.78125" y="380.777143" style="stroke: #000000; stroke-width: 0.8"/>
      </g>
     </g>
     <g id="text_11">
      <!-- 0.0 -->
      <g transform="translate(20.878125 384.576362) scale(0.1 -0.1)">
       <use xlink:href="#DejaVuSans-30"/>
       <use xlink:href="#DejaVuSans-2e" transform="translate(63.623047 0)"/>
       <use xlink:href="#DejaVuSans-30" transform="translate(95.410156 0)"/>
      </g>
     </g>
    </g>
    <g id="ytick_2">
     <g id="line2d_21">
      <path d="M 43.78125 335.52
L 490.18125 335.52
" clip-path="url(#pe50638493c)" style="fill: none; stroke: #b0b0b0; stroke-width: 0.8; stroke-linecap: square"/>
     </g>
     <g id="line2d_22">
      <g>
       <use xlink:href="#mc5bc332066" x="43.78125" y="335.52" style="stroke: #000000; stroke-width: 0.8"/>
      </g>
     </g>
     <g id="text_12">
      <!-- 0.2 -->
      <g transform="translate(20.878125 339.319219) scale(0.1 -0.1)">
       <use xlink:href="#DejaVuSans-30"/>
       <use xlink:href="#DejaVuSans-2e" transform="translate(63.623047 0)"/>
       <use xlink:href="#DejaVuSans-32" transform="translate(95.410156 0)"/>
      </g>
     </g>
    </g>
    <g id="ytick_3">
     <g id="line2d_23">
      <path d="M 43.78125 290.262857
L 490.18125 290.262857
" clip-path="url(#pe50638493c)" style="fill: none; stroke: #b0b0b0; stroke-width: 0.8; stroke-linecap: square"/>
     </g>
     <g id="line2d_24">
      <g>
       <use xlink:href="#mc5bc332066" x="43.78125" y="290.262857" style="stroke: #000000; stroke-width: 0.8"/>
      </g>
     </g>
     <g id="text_13">
      <!-- 0.4 -->
      <g transform="translate(20.878125 294.062076) scale(0.1 -0.1)">
       <defs>
        <path id="DejaVuSans-34" d="M 2419 4116
L 825 1625
L 2419 1625
L 2419 4116
z
M 2253 4666
L 3047 4666
L 3047 1625
L 3713 1625
L 3713 1100
L 3047 1100
L 3047 0
L 2419 0
L 2419 1100
L 313 1100
L 313 1709
L 2253 4666
z
" transform="scale(0.015625)"/>
       </defs>
       <use xlink:href="#DejaVuSans-30"/>
       <use xlink:href="#DejaVuSans-2e" transform="translate(63.623047 0)"/>
       <use xlink:href="#DejaVuSans-34" transform="translate(95.410156 0)"/>
      </g>
     </g>
    </g>
    <g id="ytick_4">
     <g id="line2d_25">
      <path d="M 43.78125 245.005714
L 490.18125 245.005714
" clip-path="url(#pe50638493c)" style="fill: none; stroke: #b0b0b0; stroke-width: 0.8; stroke-linecap: square"/>
     </g>
     <g id="line2d_26">
      <g>
       <use xlink:href="#mc5bc332066" x="43.78125" y="245.005714" style="stroke: #000000; stroke-width: 0.8"/>
      </g>
     </g>
     <g id="text_14">
      <!-- 0.6 -->
      <g transform="translate(20.878125 248.804933) scale(0.1 -0.1)">
       <defs>
        <path id="DejaVuSans-36" d="M 2113 2584
Q 1688 2584 1439 2293
Q 1191 2003 1191 1497
Q 1191 994 1439 701
Q 1688 409 2113 409
Q 2538 409 2786 701
Q 3034 994 3034 1497
Q 3034 2003 2786 2293
Q 2538 2584 2113 2584
z
M 3366 4563
L 3366 3988
Q 3128 4100 2886 4159
Q 2644 4219 2406 4219
Q 1781 4219 1451 3797
Q 1122 3375 1075 2522
Q 1259 2794 1537 2939
Q 1816 3084 2150 3084
Q 2853 3084 3261 2657
Q 3669 2231 3669 1497
Q 3669 778 3244 343
Q 2819 -91 2113 -91
Q 1303 -91 875 529
Q 447 1150 447 2328
Q 447 3434 972 4092
Q 1497 4750 2381 4750
Q 2619 4750 2861 4703
Q 3103 4656 3366 4563
z
" transform="scale(0.015625)"/>
       </defs>
       <use xlink:href="#DejaVuSans-30"/>
       <use xlink:href="#DejaVuSans-2e" transform="translate(63.623047 0)"/>
       <use xlink:href="#DejaVuSans-36" transform="translate(95.410156 0)"/>
      </g>
     </g>
    </g>
    <g id="ytick_5">
     <g id="line2d_27">
      <path d="M 43.78125 199.748571
L 490.18125 199.748571
" clip-path="url(#pe50638493c)" style="fill: none; stroke: #b0b0b0; stroke-width: 0.8; stroke-linecap: square"/>
     </g>
     <g id="line2d_28">
      <g>
       <use xlink:href="#mc5bc332066" x="43.78125" y="199.748571" style="stroke: #000000; stroke-width: 0.8"/>
      </g>
     </g>
     <g id="text_15">
      <!-- 0.8 -->
      <g transform="translate(20.878125 203.54779) scale(0.1 -0.1)">
       <defs>
        <path id="DejaVuSans-38" d="M 2034 2216
Q 1584 2216 1326 1975
Q 1069 1734 1069 1313
Q 1069 891 1326 650
Q 1584 409 2034 409
Q 2484 409 2743 651
Q 3003 894 3003 1313
Q 3003 1734 2745 1975
Q 2488 2216 2034 2216
z
M 1403 2484
Q 997 2584 770 2862
Q 544 3141 544 3541
Q 544 4100 942 4425
Q 1341 4750 2034 4750
Q 2731 4750 3128 4425
Q 3525 4100 3525 3541
Q 3525 3141 3298 2862
Q 3072 2584 2669 2484
Q 3125 2378 3379 2068
Q 3634 1759 3634 1313
Q 3634 634 3220 271
Q 2806 -91 2034 -91
Q 1263 -91 848 271
Q 434 634 434 1313
Q 434 1759 690 2068
Q 947 2378 1403 2484
z
M 1172 3481
Q 1172 3119 1398 2916
Q 1625 2713 2034 2713
Q 2441 2713 2670 2916
Q 2900 3119 2900 3481
Q 2900 3844 2670 4047
Q 2441 4250 2034 4250
Q 1625 4250 1398 4047
Q 1172 3844 1172 3481
z
" transform="scale(0.015625)"/>
       </defs>
       <use xlink:href="#DejaVuSans-30"/>
       <use xlink:href="#DejaVuSans-2e" transform="translate(63.623047 0)"/>
       <use xlink:href="#DejaVuSans-38" transform="translate(95.410156 0)"/>
      </g>
     </g>
    </g>
    <g id="ytick_6">
     <g id="line2d_29">
      <path d="M 43.78125 154.491429
L 490.18125 154.491429
" clip-path="url(#pe50638493c)" style="fill: none; stroke: #b0b0b0; stroke-width: 0.8; stroke-linecap: square"/>
     </g>
     <g id="line2d_30">
      <g>
       <use xlink:href="#mc5bc332066" x="43.78125" y="154.491429" style="stroke: #000000; stroke-width: 0.8"/>
      </g>
     </g>
     <g id="text_16">
      <!-- 1.0 -->
      <g transform="translate(20.878125 158.290647) scale(0.1 -0.1)">
       <use xlink:href="#DejaVuSans-31"/>
       <use xlink:href="#DejaVuSans-2e" transform="translate(63.623047 0)"/>
       <use xlink:href="#DejaVuSans-30" transform="translate(95.410156 0)"/>
      </g>
     </g>
    </g>
    <g id="ytick_7">
     <g id="line2d_31">
      <path d="M 43.78125 109.234286
L 490.18125 109.234286
" clip-path="url(#pe50638493c)" style="fill: none; stroke: #b0b0b0; stroke-width: 0.8; stroke-linecap: square"/>
     </g>
     <g id="line2d_32">
      <g>
       <use xlink:href="#mc5bc332066" x="43.78125" y="109.234286" style="stroke: #000000; stroke-width: 0.8"/>
      </g>
     </g>
     <g id="text_17">
      <!-- 1.2 -->
      <g transform="translate(20.878125 113.033504) scale(0.1 -0.1)">
       <use xlink:href="#DejaVuSans-31"/>
       <use xlink:href="#DejaVuSans-2e" transform="translate(63.623047 0)"/>
       <use xlink:href="#DejaVuSans-32" transform="translate(95.410156 0)"/>
      </g>
     </g>
    </g>
    <g id="ytick_8">
     <g id="line2d_33">
      <path d="M 43.78125 63.977143
L 490.18125 63.977143
" clip-path="url(#pe50638493c)" style="fill: none; stroke: #b0b0b0; stroke-width: 0.8; stroke-linecap: square"/>
     </g>
     <g id="line2d_34">
      <g>
       <use xlink:href="#mc5bc332066" x="43.78125" y="63.977143" style="stroke: #000000; stroke-width: 0.8"/>
      </g>
     </g>
     <g id="text_18">
      <!-- 1.4 -->
      <g transform="translate(20.878125 67.776362) scale(0.1 -0.1)">
       <use xlink:href="#DejaVuSans-31"/>
       <use xlink:href="#DejaVuSans-2e" transform="translate(63.623047 0)"/>
       <use xlink:href="#DejaVuSans-34" transform="translate(95.410156 0)"/>
      </g>
     </g>
    </g>
    <g id="text_19">
     <!-- maximum principal log strain (cm/cm) -->
     <g transform="translate(14.798438 312.511406) rotate(-90) scale(0.1 -0.1)">
      <defs>
       <path id="DejaVuSans-61" d="M 2194 1759
Q 1497 1759 1228 1600
Q 959 1441 959 1056
Q 959 750 1161 570
Q 1363 391 1709 391
Q 2188 391 2477 730
Q 2766 1069 2766 1631
L 2766 1759
L 2194 1759
z
M 3341 1997
L 3341 0
L 2766 0
L 2766 531
Q 2569 213 2275 61
Q 1981 -91 1556 -91
Q 1019 -91 701 211
Q 384 513 384 1019
Q 384 1609 779 1909
Q 1175 2209 1959 2209
L 2766 2209
L 2766 2266
Q 2766 2663 2505 2880
Q 2244 3097 1772 3097
Q 1472 3097 1187 3025
Q 903 2953 641 2809
L 641 3341
Q 956 3463 1253 3523
Q 1550 3584 1831 3584
Q 2591 3584 2966 3190
Q 3341 2797 3341 1997
z
" transform="scale(0.015625)"/>
       <path id="DejaVuSans-78" d="M 3513 3500
L 2247 1797
L 3578 0
L 2900 0
L 1881 1375
L 863 0
L 184 0
L 1544 1831
L 300 3500
L 978 3500
L 1906 2253
L 2834 3500
L 3513 3500
z
" transform="scale(0.015625)"/>
       <path id="DejaVuSans-75" d="M 544 1381
L 544 3500
L 1119 3500
L 1119 1403
Q 1119 906 1312 657
Q 1506 409 1894 409
Q 2359 409 2629 706
Q 2900 1003 2900 1516
L 2900 3500
L 3475 3500
L 3475 0
L 2900 0
L 2900 538
Q 2691 219 2414 64
Q 2138 -91 1772 -91
Q 1169 -91 856 284
Q 544 659 544 1381
z
M 1991 3584
L 1991 3584
z
" transform="scale(0.015625)"/>
       <path id="DejaVuSans-70" d="M 1159 525
L 1159 -1331
L 581 -1331
L 581 3500
L 1159 3500
L 1159 2969
Q 1341 3281 1617 3432
Q 1894 3584 2278 3584
Q 2916 3584 3314 3078
Q 3713 2572 3713 1747
Q 3713 922 3314 415
Q 2916 -91 2278 -91
Q 1894 -91 1617 61
Q 1341 213 1159 525
z
M 3116 1747
Q 3116 2381 2855 2742
Q 2594 3103 2138 3103
Q 1681 3103 1420 2742
Q 1159 2381 1159 1747
Q 1159 1113 1420 752
Q 1681 391 2138 391
Q 2594 391 2855 752
Q 3116 1113 3116 1747
z
" transform="scale(0.015625)"/>
       <path id="DejaVuSans-72" d="M 2631 2963
Q 2534 3019 2420 3045
Q 2306 3072 2169 3072
Q 1681 3072 1420 2755
Q 1159 2438 1159 1844
L 1159 0
L 581 0
L 581 3500
L 1159 3500
L 1159 2956
Q 1341 3275 1631 3429
Q 1922 3584 2338 3584
Q 2397 3584 2469 3576
Q 2541 3569 2628 3553
L 2631 2963
z
" transform="scale(0.015625)"/>
       <path id="DejaVuSans-6e" d="M 3513 2113
L 3513 0
L 2938 0
L 2938 2094
Q 2938 2591 2744 2837
Q 2550 3084 2163 3084
Q 1697 3084 1428 2787
Q 1159 2491 1159 1978
L 1159 0
L 581 0
L 581 3500
L 1159 3500
L 1159 2956
Q 1366 3272 1645 3428
Q 1925 3584 2291 3584
Q 2894 3584 3203 3211
Q 3513 2838 3513 2113
z
" transform="scale(0.015625)"/>
       <path id="DejaVuSans-63" d="M 3122 3366
L 3122 2828
Q 2878 2963 2633 3030
Q 2388 3097 2138 3097
Q 1578 3097 1268 2742
Q 959 2388 959 1747
Q 959 1106 1268 751
Q 1578 397 2138 397
Q 2388 397 2633 464
Q 2878 531 3122 666
L 3122 134
Q 2881 22 2623 -34
Q 2366 -91 2075 -91
Q 1284 -91 818 406
Q 353 903 353 1747
Q 353 2603 823 3093
Q 1294 3584 2113 3584
Q 2378 3584 2631 3529
Q 2884 3475 3122 3366
z
" transform="scale(0.015625)"/>
       <path id="DejaVuSans-6c" d="M 603 4863
L 1178 4863
L 1178 0
L 603 0
L 603 4863
z
" transform="scale(0.015625)"/>
       <path id="DejaVuSans-6f" d="M 1959 3097
Q 1497 3097 1228 2736
Q 959 2375 959 1747
Q 959 1119 1226 758
Q 1494 397 1959 397
Q 2419 397 2687 759
Q 2956 1122 2956 1747
Q 2956 2369 2687 2733
Q 2419 3097 1959 3097
z
M 1959 3584
Q 2709 3584 3137 3096
Q 3566 2609 3566 1747
Q 3566 888 3137 398
Q 2709 -91 1959 -91
Q 1206 -91 779 398
Q 353 888 353 1747
Q 353 2609 779 3096
Q 1206 3584 1959 3584
z
" transform="scale(0.015625)"/>
       <path id="DejaVuSans-67" d="M 2906 1791
Q 2906 2416 2648 2759
Q 2391 3103 1925 3103
Q 1463 3103 1205 2759
Q 947 2416 947 1791
Q 947 1169 1205 825
Q 1463 481 1925 481
Q 2391 481 2648 825
Q 2906 1169 2906 1791
z
M 3481 434
Q 3481 -459 3084 -895
Q 2688 -1331 1869 -1331
Q 1566 -1331 1297 -1286
Q 1028 -1241 775 -1147
L 775 -588
Q 1028 -725 1275 -790
Q 1522 -856 1778 -856
Q 2344 -856 2625 -561
Q 2906 -266 2906 331
L 2906 616
Q 2728 306 2450 153
Q 2172 0 1784 0
Q 1141 0 747 490
Q 353 981 353 1791
Q 353 2603 747 3093
Q 1141 3584 1784 3584
Q 2172 3584 2450 3431
Q 2728 3278 2906 2969
L 2906 3500
L 3481 3500
L 3481 434
z
" transform="scale(0.015625)"/>
       <path id="DejaVuSans-2f" d="M 1625 4666
L 2156 4666
L 531 -594
L 0 -594
L 1625 4666
z
" transform="scale(0.015625)"/>
      </defs>
      <use xlink:href="#DejaVuSans-6d"/>
      <use xlink:href="#DejaVuSans-61" transform="translate(97.412109 0)"/>
      <use xlink:href="#DejaVuSans-78" transform="translate(158.691406 0)"/>
      <use xlink:href="#DejaVuSans-69" transform="translate(217.871094 0)"/>
      <use xlink:href="#DejaVuSans-6d" transform="translate(245.654297 0)"/>
      <use xlink:href="#DejaVuSans-75" transform="translate(343.066406 0)"/>
      <use xlink:href="#DejaVuSans-6d" transform="translate(406.445312 0)"/>
      <use xlink:href="#DejaVuSans-20" transform="translate(503.857422 0)"/>
      <use xlink:href="#DejaVuSans-70" transform="translate(535.644531 0)"/>
      <use xlink:href="#DejaVuSans-72" transform="translate(599.121094 0)"/>
      <use xlink:href="#DejaVuSans-69" transform="translate(640.234375 0)"/>
      <use xlink:href="#DejaVuSans-6e" transform="translate(668.017578 0)"/>
      <use xlink:href="#DejaVuSans-63" transform="translate(731.396484 0)"/>
      <use xlink:href="#DejaVuSans-69" transform="translate(786.376953 0)"/>
      <use xlink:href="#DejaVuSans-70" transform="translate(814.160156 0)"/>
      <use xlink:href="#DejaVuSans-61" transform="translate(877.636719 0)"/>
      <use xlink:href="#DejaVuSans-6c" transform="translate(938.916016 0)"/>
      <use xlink:href="#DejaVuSans-20" transform="translate(966.699219 0)"/>
      <use xlink:href="#DejaVuSans-6c" transform="translate(998.486328 0)"/>
      <use xlink:href="#DejaVuSans-6f" transform="translate(1026.269531 0)"/>
      <use xlink:href="#DejaVuSans-67" transform="translate(1087.451172 0)"/>
      <use xlink:href="#DejaVuSans-20" transform="translate(1150.927734 0)"/>
      <use xlink:href="#DejaVuSans-73" transform="translate(1182.714844 0)"/>
      <use xlink:href="#DejaVuSans-74" transform="translate(1234.814453 0)"/>
      <use xlink:href="#DejaVuSans-72" transform="translate(1274.023438 0)"/>
      <use xlink:href="#DejaVuSans-61" transform="translate(1315.136719 0)"/>
      <use xlink:href="#DejaVuSans-69" transform="translate(1376.416016 0)"/>
      <use xlink:href="#DejaVuSans-6e" transform="translate(1404.199219 0)"/>
      <use xlink:href="#DejaVuSans-20" transform="translate(1467.578125 0)"/>
      <use xlink:href="#DejaVuSans-28" transform="translate(1499.365234 0)"/>
      <use xlink:href="#DejaVuSans-63" transform="translate(1538.378906 0)"/>
      <use xlink:href="#DejaVuSans-6d" transform="translate(1593.359375 0)"/>
      <use xlink:href="#DejaVuSans-2f" transform="translate(1690.771484 0)"/>
      <use xlink:href="#DejaVuSans-63" transform="translate(1724.462891 0)"/>
      <use xlink:href="#DejaVuSans-6d" transform="translate(1779.443359 0)"/>
      <use xlink:href="#DejaVuSans-29" transform="translate(1876.855469 0)"/>
     </g>
    </g>
   </g>
   <g id="line2d_35">
    <path d="M 64.072159 380.777143
L 256.846144 380.666925
L 358.300486 380.683769
L 386.703701 380.648165
L 400.907337 380.282331
L 415.113003 379.735995
L 425.254399 379.182655
L 437.428945 378.236384
L 447.580486 377.531617
L 459.744886 376.961581
L 469.894399 376.555013
L 469.894399 376.555013
" clip-path="url(#pe50638493c)" style="fill: none; stroke-dasharray: 5.55,2.4; stroke-dashoffset: 0; stroke: #1f77b4; stroke-width: 1.5"/>
   </g>
   <g id="line2d_36">
    <path d="M 64.072159 380.777143
L 256.846144 380.666541
L 386.703701 380.467844
L 404.96349 380.00976
L 421.192159 379.240373
L 431.339643 378.584919
L 465.836217 376.163607
L 469.894399 375.915372
L 469.894399 375.915372
" clip-path="url(#pe50638493c)" style="fill: none; stroke-dasharray: 1.5,2.475; stroke-dashoffset: 0; stroke: #ff7f0e; stroke-width: 1.5"/>
   </g>
   <g id="line2d_37">
    <path d="M 64.072159 380.777143
L 250.752378 380.667949
L 366.408734 380.43298
L 386.703701 380.039456
L 415.113003 379.036132
L 427.281461 378.238534
L 469.894399 374.728209
L 469.894399 374.728209
" clip-path="url(#pe50638493c)" style="fill: none; stroke: #2ca02c; stroke-width: 1.5; stroke-linecap: square"/>
   </g>
   <g id="line2d_38">
    <path d="M 64.072159 380.777143
L 244.668352 380.66808
L 338.007548 380.42883
L 358.300486 380.065959
L 380.620486 379.435563
L 404.96349 378.53445
L 417.136006 377.824589
L 455.692792 375.016859
L 463.811185 374.257648
L 469.894399 373.587752
L 469.894399 373.587752
" clip-path="url(#pe50638493c)" style="fill: none; stroke: #d62728; stroke-width: 1.5; stroke-linecap: square"/>
   </g>
   <g id="line2d_39">
    <path d="M 64.072159 380.777143
L 236.553611 380.669794
L 323.801883 380.398074
L 340.032581 380.073869
L 358.300486 379.472427
L 388.732792 378.211199
L 400.907337 377.458256
L 427.281461 375.399259
L 455.692792 373.310687
L 461.776006 372.609677
L 465.836217 371.923941
L 469.894399 370.942404
L 469.894399 370.942404
" clip-path="url(#pe50638493c)" style="fill: none; stroke: #9467bd; stroke-width: 1.5; stroke-linecap: square"/>
   </g>
   <g id="line2d_40">
    <path d="M 64.072159 380.777143
L 230.459034 380.669193
L 309.592159 380.389977
L 323.801883 380.038433
L 340.032581 379.382809
L 362.35461 378.190969
L 374.527126 377.410306
L 382.641461 376.656186
L 392.793003 375.399146
L 404.96349 373.661973
L 419.171185 371.51778
L 427.281461 370.020765
L 433.374821 368.66658
L 439.462094 367.021325
L 443.522305 365.73394
L 449.60349 363.492376
L 457.715795 360.187406
L 465.836217 356.802624
L 469.894399 355.275648
L 469.894399 355.275648
" clip-path="url(#pe50638493c)" style="fill: none; stroke: #8c564b; stroke-width: 1.5; stroke-linecap: square"/>
   </g>
   <g id="line2d_41">
    <path d="M 64.072159 380.777143
L 228.438668 380.666886
L 295.392581 380.430788
L 307.563068 380.082016
L 319.743701 379.48139
L 331.918246 378.631085
L 342.059643 377.717466
L 352.205097 376.563703
L 360.329577 375.382559
L 366.408734 374.296071
L 374.527126 372.601191
L 386.703701 369.768728
L 394.822094 367.709233
L 400.907337 365.972581
L 406.996639 363.981244
L 413.077825 361.701506
L 419.171185 359.097116
L 429.31461 354.368469
L 437.428945 350.66123
L 443.522305 348.180007
L 447.580486 346.728837
L 451.632581 345.512777
L 455.692792 344.476615
L 461.776006 343.208736
L 467.863279 342.186603
L 469.894399 341.881797
L 469.894399 341.881797
" clip-path="url(#pe50638493c)" style="fill: none; stroke: #e377c2; stroke-width: 1.5; stroke-linecap: square"/>
   </g>
   <g id="line2d_42">
    <path d="M 64.072159 380.777143
L 234.522086 380.666066
L 266.983279 380.484877
L 283.213977 380.18083
L 293.361461 379.806416
L 301.475795 379.335438
L 309.592159 378.650756
L 317.716639 377.698458
L 323.801883 376.786843
L 329.887126 375.689448
L 335.97237 374.39317
L 342.059643 372.893009
L 350.180065 370.609764
L 358.300486 368.087176
L 370.466915 364.046188
L 378.585308 361.158941
L 384.67461 358.785543
L 390.765941 356.145038
L 396.847126 353.202418
L 404.96349 348.959335
L 413.077825 344.725982
L 419.171185 341.832466
L 423.225308 340.132155
L 427.281461 338.658357
L 431.339643 337.415143
L 435.401883 336.412923
L 439.462094 335.638121
L 443.522305 335.049326
L 449.60349 334.431566
L 459.744886 333.505831
L 465.836217 332.760898
L 469.894399 332.148117
L 469.894399 332.148117
" clip-path="url(#pe50638493c)" style="fill: none; stroke: #7f7f7f; stroke-width: 1.5; stroke-linecap: square"/>
   </g>
   <g id="line2d_43">
    <path d="M 64.072159 380.777143
L 218.292605 380.666058
L 246.694399 380.414889
L 262.928547 380.049284
L 273.078668 379.627759
L 281.188945 379.110119
L 289.311395 378.343553
L 295.392581 377.5356
L 301.475795 376.460358
L 305.538035 375.563543
L 309.592159 374.508259
L 313.65237 373.283691
L 317.716639 371.892487
L 323.801883 369.53244
L 329.887126 366.912753
L 340.032581 362.239591
L 360.329577 352.612491
L 368.443912 348.440688
L 376.552159 343.969509
L 386.703701 338.318702
L 390.765941 336.231669
L 394.822094 334.341278
L 398.878246 332.691429
L 402.938457 331.308144
L 406.996639 330.200249
L 411.052792 329.345342
L 415.113003 328.695675
L 421.192159 327.977671
L 439.462094 326.083207
L 445.545308 325.126018
L 451.632581 323.971056
L 457.715795 322.607685
L 463.811185 321.01237
L 469.894399 319.249605
L 469.894399 319.249605
" clip-path="url(#pe50638493c)" style="fill: none; stroke: #bcbd22; stroke-width: 1.5; stroke-linecap: square"/>
   </g>
   <g id="line2d_44">
    <path d="M 64.072159 380.777143
L 198.000275 380.668582
L 220.312768 380.427416
L 234.522086 380.086415
L 244.668352 379.669895
L 252.780251 379.170956
L 260.896209 378.452736
L 266.983279 377.710338
L 273.078668 376.71803
L 277.134821 375.868304
L 281.188945 374.81766
L 285.247126 373.512489
L 289.311395 371.897352
L 293.361461 369.933464
L 297.417614 367.585387
L 301.475795 364.858237
L 305.538035 361.787495
L 309.592159 358.451772
L 317.716639 351.338729
L 325.835032 344.314142
L 331.918246 339.441305
L 335.97237 336.439851
L 340.032581 333.640923
L 344.090763 331.051083
L 348.150974 328.672821
L 352.205097 326.521522
L 356.265308 324.608503
L 360.329577 322.957749
L 364.38573 321.592114
L 368.443912 320.519746
L 372.498035 319.739513
L 376.552159 319.227655
L 380.620486 318.940046
L 386.703701 318.771463
L 392.793003 318.622793
L 396.847126 318.356455
L 400.907337 317.852517
L 404.96349 317.070021
L 409.019643 316.010551
L 413.077825 314.711671
L 419.171185 312.458318
L 427.281461 309.369065
L 431.339643 307.988722
L 435.401883 306.791445
L 439.462094 305.796919
L 443.522305 305.016233
L 447.580486 304.435584
L 451.632581 304.033701
L 457.715795 303.682731
L 469.894399 303.327915
L 469.894399 303.327915
" clip-path="url(#pe50638493c)" style="fill: none; stroke: #17becf; stroke-width: 1.5; stroke-linecap: square"/>
   </g>
   <g id="line2d_45">
    <path d="M 64.072159 380.777143
L 133.068961 380.682027
L 145.236201 380.445849
L 153.36271 380.112447
L 161.477857 379.545771
L 167.561274 378.898528
L 173.644691 377.988601
L 177.707743 377.193931
L 181.759635 376.2183
L 185.822686 375.021611
L 189.885738 373.566141
L 193.937427 371.810685
L 198.000275 369.691451
L 202.051964 367.157685
L 206.115016 364.122016
L 208.146542 362.391994
L 210.177865 360.50459
L 212.198027 358.458447
L 214.229553 356.216318
L 216.261079 353.773111
L 218.292605 351.111538
L 220.312768 348.229337
L 222.344294 345.073783
L 224.375819 341.637408
L 226.407345 337.895774
L 228.438668 333.822857
L 230.459034 329.416848
L 232.49056 324.60013
L 234.522086 319.367952
L 236.553611 313.693159
L 238.585137 307.550407
L 240.6053 300.957573
L 242.636826 293.826631
L 244.668352 286.186546
L 246.694399 278.064247
L 250.752378 260.362368
L 254.816647 240.978507
L 260.896209 210.014702
L 266.983279 178.668473
L 271.041461 158.785653
L 275.101672 140.463977
L 277.134821 132.068777
L 279.157825 124.30944
L 281.188945 117.179177
L 283.213977 110.773029
L 285.247126 105.093257
L 287.280275 100.194171
L 289.311395 96.109714
L 291.33237 92.8512
L 293.361461 90.393737
L 295.392581 88.7328
L 297.417614 87.852549
L 299.452792 87.707726
L 301.475795 88.248549
L 303.508945 89.418446
L 305.538035 91.142743
L 307.563068 93.34224
L 309.592159 95.942263
L 311.629366 98.861349
L 315.68349 105.251657
L 321.774821 115.029463
L 323.801883 118.034537
L 325.835032 120.82464
L 327.862094 123.336411
L 329.887126 125.54496
L 331.918246 127.434446
L 333.947337 128.984503
L 335.97237 130.190606
L 338.007548 131.061806
L 340.032581 131.598103
L 342.059643 131.819863
L 344.090763 131.7384
L 346.123912 131.37408
L 348.150974 130.749531
L 350.180065 129.887383
L 352.205097 128.814789
L 354.240275 127.549851
L 358.300486 124.556091
L 362.35461 121.121074
L 376.552159 108.478491
L 378.585308 106.946537
L 380.620486 105.579771
L 382.641461 104.423451
L 384.67461 103.509257
L 386.703701 102.880183
L 388.732792 102.574697
L 390.765941 102.622217
L 392.793003 103.045371
L 394.822094 103.846423
L 396.847126 105.01632
L 398.878246 106.53696
L 400.907337 108.351771
L 402.938457 110.404183
L 411.052792 119.231589
L 413.077825 121.089394
L 415.113003 122.605509
L 417.136006 123.67584
L 419.171185 124.239291
L 421.192159 124.241554
L 423.225308 123.664526
L 425.254399 122.524046
L 427.281461 120.874423
L 429.31461 118.785806
L 431.339643 116.3736
L 435.401883 110.988
L 439.462094 105.638606
L 441.485097 103.246766
L 443.522305 101.142309
L 445.545308 99.433851
L 447.580486 98.177966
L 449.60349 97.451589
L 451.632581 97.304503
L 453.659643 97.786491
L 455.692792 98.93376
L 457.715795 100.759886
L 459.744886 103.278446
L 461.776006 106.466811
L 463.811185 110.29104
L 465.836217 114.66288
L 467.863279 119.530286
L 469.894399 124.809531
L 469.894399 124.809531
" clip-path="url(#pe50638493c)" style="fill: none; stroke: #1f77b4; stroke-width: 1.5; stroke-linecap: square"/>
   </g>
   <g id="line2d_46">
    <path d="M 64.072159 380.777143
L 78.28239 380.72267
L 82.334383 380.545877
L 86.397638 380.127241
L 90.460892 379.347042
L 92.481258 378.788705
L 94.512987 378.09525
L 96.544513 377.257042
L 98.576241 376.262539
L 100.596607 375.108143
L 102.628336 373.771337
L 104.659862 372.249453
L 106.69159 370.534795
L 108.723116 368.620667
L 110.743482 366.513721
L 112.775211 364.185671
L 114.806737 361.643984
L 116.838465 358.885923
L 118.858831 355.926898
L 120.89056 352.733328
L 124.953814 345.692448
L 129.005706 337.818158
L 133.068961 329.100501
L 137.121055 319.638363
L 141.18431 309.448039
L 145.236201 298.670503
L 149.299456 287.345582
L 155.383076 269.668368
L 175.676217 209.637257
L 179.739472 198.415296
L 183.791161 187.793445
L 187.854212 177.838005
L 191.905901 168.725479
L 195.968953 160.520585
L 198.000275 156.802937
L 200.031801 153.357737
L 202.051964 150.216891
L 204.08349 147.349851
L 206.115016 144.79056
L 208.146542 142.543543
L 210.177865 140.613326
L 212.198027 139.018011
L 214.229553 137.737234
L 216.261079 136.782309
L 218.292605 136.150971
L 220.312768 135.831909
L 222.344294 135.816069
L 224.375819 136.087611
L 226.407345 136.626171
L 228.438668 137.402331
L 230.459034 138.379886
L 232.49056 139.536206
L 236.553611 142.215429
L 244.668352 147.877097
L 246.694399 149.121669
L 248.72836 150.228206
L 250.752378 151.167291
L 252.780251 151.920823
L 254.816647 152.479749
L 256.846144 152.83728
L 258.87422 152.99568
L 260.896209 152.968526
L 262.928547 152.771657
L 264.956014 152.429966
L 269.018457 151.41168
L 275.101672 149.46336
L 281.188945 147.582926
L 285.247126 146.569166
L 289.311395 145.793006
L 293.361461 145.222766
L 303.508945 144.032503
L 307.563068 143.274446
L 309.592159 142.756251
L 311.629366 142.115863
L 313.65237 141.341966
L 315.68349 140.416457
L 317.716639 139.323497
L 319.743701 138.065349
L 321.774821 136.63296
L 323.801883 135.03312
L 327.862094 131.365029
L 331.918246 127.20816
L 346.123912 111.832046
L 350.180065 107.919566
L 354.240275 104.378194
L 358.300486 101.244137
L 362.35461 98.567177
L 364.38573 97.419909
L 366.408734 96.421989
L 368.443912 95.577943
L 370.466915 94.912663
L 372.498035 94.4352
L 374.527126 94.163657
L 376.552159 94.116137
L 378.585308 94.301691
L 380.620486 94.738423
L 382.641461 95.435383
L 384.67461 96.406149
L 386.703701 97.655246
L 388.732792 99.1872
L 390.765941 101.0088
L 392.793003 103.108731
L 394.822094 105.471154
L 396.847126 108.07344
L 400.907337 113.888983
L 411.052792 129.285463
L 413.077825 131.939794
L 415.113003 134.281851
L 417.136006 136.223383
L 419.171185 137.72592
L 421.192159 138.728366
L 423.225308 139.226194
L 425.254399 139.221669
L 427.281461 138.744206
L 429.31461 137.848114
L 431.339643 136.612594
L 433.374821 135.101006
L 437.428945 131.618469
L 441.485097 128.002423
L 445.545308 124.755223
L 447.580486 123.395246
L 449.60349 122.277394
L 451.632581 121.424297
L 453.659643 120.869897
L 455.692792 120.636823
L 457.715795 120.743177
L 459.744886 121.193486
L 461.776006 121.992274
L 463.811185 123.130491
L 465.836217 124.580983
L 467.863279 126.323383
L 469.894399 128.328274
L 469.894399 128.328274
" clip-path="url(#pe50638493c)" style="fill: none; stroke: #ff7f0e; stroke-width: 1.5; stroke-linecap: square"/>
   </g>
   <g id="patch_3">
    <path d="M 43.78125 383.04
L 43.78125 50.4
" style="fill: none; stroke: #000000; stroke-width: 0.8; stroke-linejoin: miter; stroke-linecap: square"/>
   </g>
   <g id="patch_4">
    <path d="M 490.18125 383.04
L 490.18125 50.4
" style="fill: none; stroke: #000000; stroke-width: 0.8; stroke-linejoin: miter; stroke-linecap: square"/>
   </g>
   <g id="patch_5">
    <path d="M 43.78125 383.04
L 490.18125 383.04
" style="fill: none; stroke: #000000; stroke-width: 0.8; stroke-linejoin: miter; stroke-linecap: square"/>
   </g>
   <g id="patch_6">
    <path d="M 43.78125 50.4
L 490.18125 50.4
" style="fill: none; stroke: #000000; stroke-width: 0.8; stroke-linejoin: miter; stroke-linecap: square"/>
   </g>
   <g id="text_20">
    <!-- log_strain_sr2c.svg created 2025-01-22 11:02:58 EST-0500 by chovey on s1088757 -->
    <g style="fill: #696969" transform="translate(99.204375 44.4) scale(0.08 -0.08)">
     <defs>
      <path id="DejaVuSans-5f" d="M 3263 -1063
L 3263 -1509
L -63 -1509
L -63 -1063
L 3263 -1063
z
" transform="scale(0.015625)"/>
      <path id="DejaVuSans-76" d="M 191 3500
L 800 3500
L 1894 563
L 2988 3500
L 3597 3500
L 2284 0
L 1503 0
L 191 3500
z
" transform="scale(0.015625)"/>
      <path id="DejaVuSans-64" d="M 2906 2969
L 2906 4863
L 3481 4863
L 3481 0
L 2906 0
L 2906 525
Q 2725 213 2448 61
Q 2172 -91 1784 -91
Q 1150 -91 751 415
Q 353 922 353 1747
Q 353 2572 751 3078
Q 1150 3584 1784 3584
Q 2172 3584 2448 3432
Q 2725 3281 2906 2969
z
M 947 1747
Q 947 1113 1208 752
Q 1469 391 1925 391
Q 2381 391 2643 752
Q 2906 1113 2906 1747
Q 2906 2381 2643 2742
Q 2381 3103 1925 3103
Q 1469 3103 1208 2742
Q 947 2381 947 1747
z
" transform="scale(0.015625)"/>
      <path id="DejaVuSans-2d" d="M 313 2009
L 1997 2009
L 1997 1497
L 313 1497
L 313 2009
z
" transform="scale(0.015625)"/>
      <path id="DejaVuSans-3a" d="M 750 794
L 1409 794
L 1409 0
L 750 0
L 750 794
z
M 750 3309
L 1409 3309
L 1409 2516
L 750 2516
L 750 3309
z
" transform="scale(0.015625)"/>
      <path id="DejaVuSans-45" d="M 628 4666
L 3578 4666
L 3578 4134
L 1259 4134
L 1259 2753
L 3481 2753
L 3481 2222
L 1259 2222
L 1259 531
L 3634 531
L 3634 0
L 628 0
L 628 4666
z
" transform="scale(0.015625)"/>
      <path id="DejaVuSans-53" d="M 3425 4513
L 3425 3897
Q 3066 4069 2747 4153
Q 2428 4238 2131 4238
Q 1616 4238 1336 4038
Q 1056 3838 1056 3469
Q 1056 3159 1242 3001
Q 1428 2844 1947 2747
L 2328 2669
Q 3034 2534 3370 2195
Q 3706 1856 3706 1288
Q 3706 609 3251 259
Q 2797 -91 1919 -91
Q 1588 -91 1214 -16
Q 841 59 441 206
L 441 856
Q 825 641 1194 531
Q 1563 422 1919 422
Q 2459 422 2753 634
Q 3047 847 3047 1241
Q 3047 1584 2836 1778
Q 2625 1972 2144 2069
L 1759 2144
Q 1053 2284 737 2584
Q 422 2884 422 3419
Q 422 4038 858 4394
Q 1294 4750 2059 4750
Q 2388 4750 2728 4690
Q 3069 4631 3425 4513
z
" transform="scale(0.015625)"/>
      <path id="DejaVuSans-54" d="M -19 4666
L 3928 4666
L 3928 4134
L 2272 4134
L 2272 0
L 1638 0
L 1638 4134
L -19 4134
L -19 4666
z
" transform="scale(0.015625)"/>
      <path id="DejaVuSans-62" d="M 3116 1747
Q 3116 2381 2855 2742
Q 2594 3103 2138 3103
Q 1681 3103 1420 2742
Q 1159 2381 1159 1747
Q 1159 1113 1420 752
Q 1681 391 2138 391
Q 2594 391 2855 752
Q 3116 1113 3116 1747
z
M 1159 2969
Q 1341 3281 1617 3432
Q 1894 3584 2278 3584
Q 2916 3584 3314 3078
Q 3713 2572 3713 1747
Q 3713 922 3314 415
Q 2916 -91 2278 -91
Q 1894 -91 1617 61
Q 1341 213 1159 525
L 1159 0
L 581 0
L 581 4863
L 1159 4863
L 1159 2969
z
" transform="scale(0.015625)"/>
      <path id="DejaVuSans-79" d="M 2059 -325
Q 1816 -950 1584 -1140
Q 1353 -1331 966 -1331
L 506 -1331
L 506 -850
L 844 -850
Q 1081 -850 1212 -737
Q 1344 -625 1503 -206
L 1606 56
L 191 3500
L 800 3500
L 1894 763
L 2988 3500
L 3597 3500
L 2059 -325
z
" transform="scale(0.015625)"/>
      <path id="DejaVuSans-68" d="M 3513 2113
L 3513 0
L 2938 0
L 2938 2094
Q 2938 2591 2744 2837
Q 2550 3084 2163 3084
Q 1697 3084 1428 2787
Q 1159 2491 1159 1978
L 1159 0
L 581 0
L 581 4863
L 1159 4863
L 1159 2956
Q 1366 3272 1645 3428
Q 1925 3584 2291 3584
Q 2894 3584 3203 3211
Q 3513 2838 3513 2113
z
" transform="scale(0.015625)"/>
     </defs>
     <use xlink:href="#DejaVuSans-6c"/>
     <use xlink:href="#DejaVuSans-6f" transform="translate(27.783203 0)"/>
     <use xlink:href="#DejaVuSans-67" transform="translate(88.964844 0)"/>
     <use xlink:href="#DejaVuSans-5f" transform="translate(152.441406 0)"/>
     <use xlink:href="#DejaVuSans-73" transform="translate(202.441406 0)"/>
     <use xlink:href="#DejaVuSans-74" transform="translate(254.541016 0)"/>
     <use xlink:href="#DejaVuSans-72" transform="translate(293.75 0)"/>
     <use xlink:href="#DejaVuSans-61" transform="translate(334.863281 0)"/>
     <use xlink:href="#DejaVuSans-69" transform="translate(396.142578 0)"/>
     <use xlink:href="#DejaVuSans-6e" transform="translate(423.925781 0)"/>
     <use xlink:href="#DejaVuSans-5f" transform="translate(487.304688 0)"/>
     <use xlink:href="#DejaVuSans-73" transform="translate(537.304688 0)"/>
     <use xlink:href="#DejaVuSans-72" transform="translate(589.404297 0)"/>
     <use xlink:href="#DejaVuSans-32" transform="translate(630.517578 0)"/>
     <use xlink:href="#DejaVuSans-63" transform="translate(694.140625 0)"/>
     <use xlink:href="#DejaVuSans-2e" transform="translate(749.121094 0)"/>
     <use xlink:href="#DejaVuSans-73" transform="translate(780.908203 0)"/>
     <use xlink:href="#DejaVuSans-76" transform="translate(833.007812 0)"/>
     <use xlink:href="#DejaVuSans-67" transform="translate(892.1875 0)"/>
     <use xlink:href="#DejaVuSans-20" transform="translate(955.664062 0)"/>
     <use xlink:href="#DejaVuSans-63" transform="translate(987.451172 0)"/>
     <use xlink:href="#DejaVuSans-72" transform="translate(1042.431641 0)"/>
     <use xlink:href="#DejaVuSans-65" transform="translate(1081.294922 0)"/>
     <use xlink:href="#DejaVuSans-61" transform="translate(1142.818359 0)"/>
     <use xlink:href="#DejaVuSans-74" transform="translate(1204.097656 0)"/>
     <use xlink:href="#DejaVuSans-65" transform="translate(1243.306641 0)"/>
     <use xlink:href="#DejaVuSans-64" transform="translate(1304.830078 0)"/>
     <use xlink:href="#DejaVuSans-20" transform="translate(1368.306641 0)"/>
     <use xlink:href="#DejaVuSans-32" transform="translate(1400.09375 0)"/>
     <use xlink:href="#DejaVuSans-30" transform="translate(1463.716797 0)"/>
     <use xlink:href="#DejaVuSans-32" transform="translate(1527.339844 0)"/>
     <use xlink:href="#DejaVuSans-35" transform="translate(1590.962891 0)"/>
     <use xlink:href="#DejaVuSans-2d" transform="translate(1654.585938 0)"/>
     <use xlink:href="#DejaVuSans-30" transform="translate(1690.669922 0)"/>
     <use xlink:href="#DejaVuSans-31" transform="translate(1754.292969 0)"/>
     <use xlink:href="#DejaVuSans-2d" transform="translate(1817.916016 0)"/>
     <use xlink:href="#DejaVuSans-32" transform="translate(1854 0)"/>
     <use xlink:href="#DejaVuSans-32" transform="translate(1917.623047 0)"/>
     <use xlink:href="#DejaVuSans-20" transform="translate(1981.246094 0)"/>
     <use xlink:href="#DejaVuSans-31" transform="translate(2013.033203 0)"/>
     <use xlink:href="#DejaVuSans-31" transform="translate(2076.65625 0)"/>
     <use xlink:href="#DejaVuSans-3a" transform="translate(2140.279297 0)"/>
     <use xlink:href="#DejaVuSans-30" transform="translate(2173.970703 0)"/>
     <use xlink:href="#DejaVuSans-32" transform="translate(2237.59375 0)"/>
     <use xlink:href="#DejaVuSans-3a" transform="translate(2301.216797 0)"/>
     <use xlink:href="#DejaVuSans-35" transform="translate(2334.908203 0)"/>
     <use xlink:href="#DejaVuSans-38" transform="translate(2398.53125 0)"/>
     <use xlink:href="#DejaVuSans-20" transform="translate(2462.154297 0)"/>
     <use xlink:href="#DejaVuSans-45" transform="translate(2493.941406 0)"/>
     <use xlink:href="#DejaVuSans-53" transform="translate(2557.125 0)"/>
     <use xlink:href="#DejaVuSans-54" transform="translate(2620.601562 0)"/>
     <use xlink:href="#DejaVuSans-2d" transform="translate(2672.560547 0)"/>
     <use xlink:href="#DejaVuSans-30" transform="translate(2708.644531 0)"/>
     <use xlink:href="#DejaVuSans-35" transform="translate(2772.267578 0)"/>
     <use xlink:href="#DejaVuSans-30" transform="translate(2835.890625 0)"/>
     <use xlink:href="#DejaVuSans-30" transform="translate(2899.513672 0)"/>
     <use xlink:href="#DejaVuSans-20" transform="translate(2963.136719 0)"/>
     <use xlink:href="#DejaVuSans-62" transform="translate(2994.923828 0)"/>
     <use xlink:href="#DejaVuSans-79" transform="translate(3058.400391 0)"/>
     <use xlink:href="#DejaVuSans-20" transform="translate(3117.580078 0)"/>
     <use xlink:href="#DejaVuSans-63" transform="translate(3149.367188 0)"/>
     <use xlink:href="#DejaVuSans-68" transform="translate(3204.347656 0)"/>
     <use xlink:href="#DejaVuSans-6f" transform="translate(3267.726562 0)"/>
     <use xlink:href="#DejaVuSans-76" transform="translate(3328.908203 0)"/>
     <use xlink:href="#DejaVuSans-65" transform="translate(3388.087891 0)"/>
     <use xlink:href="#DejaVuSans-79" transform="translate(3449.611328 0)"/>
     <use xlink:href="#DejaVuSans-20" transform="translate(3508.791016 0)"/>
     <use xlink:href="#DejaVuSans-6f" transform="translate(3540.578125 0)"/>
     <use xlink:href="#DejaVuSans-6e" transform="translate(3601.759766 0)"/>
     <use xlink:href="#DejaVuSans-20" transform="translate(3665.138672 0)"/>
     <use xlink:href="#DejaVuSans-73" transform="translate(3696.925781 0)"/>
     <use xlink:href="#DejaVuSans-31" transform="translate(3749.025391 0)"/>
     <use xlink:href="#DejaVuSans-30" transform="translate(3812.648438 0)"/>
     <use xlink:href="#DejaVuSans-38" transform="translate(3876.271484 0)"/>
     <use xlink:href="#DejaVuSans-38" transform="translate(3939.894531 0)"/>
     <use xlink:href="#DejaVuSans-37" transform="translate(4003.517578 0)"/>
     <use xlink:href="#DejaVuSans-35" transform="translate(4067.140625 0)"/>
     <use xlink:href="#DejaVuSans-37" transform="translate(4130.763672 0)"/>
    </g>
   </g>
   <g id="legend_1">
    <g id="patch_7">
     <path d="M 50.78125 234.5375
L 126.414062 234.5375
Q 128.414062 234.5375 128.414062 232.5375
L 128.414062 57.4
Q 128.414062 55.4 126.414062 55.4
L 50.78125 55.4
Q 48.78125 55.4 48.78125 57.4
L 48.78125 232.5375
Q 48.78125 234.5375 50.78125 234.5375
z
" style="fill: #ffffff; opacity: 0.8; stroke: #cccccc; stroke-linejoin: miter"/>
    </g>
    <g id="line2d_47">
     <path d="M 52.78125 63.498437
L 62.78125 63.498437
L 72.78125 63.498437
" style="fill: none; stroke-dasharray: 5.55,2.4; stroke-dashoffset: 0; stroke: #1f77b4; stroke-width: 1.5"/>
    </g>
    <g id="text_21">
     <!-- r=0 cm -->
     <g transform="translate(80.78125 66.998437) scale(0.1 -0.1)">
      <defs>
       <path id="DejaVuSans-3d" d="M 678 2906
L 4684 2906
L 4684 2381
L 678 2381
L 678 2906
z
M 678 1631
L 4684 1631
L 4684 1100
L 678 1100
L 678 1631
z
" transform="scale(0.015625)"/>
      </defs>
      <use xlink:href="#DejaVuSans-72"/>
      <use xlink:href="#DejaVuSans-3d" transform="translate(41.113281 0)"/>
      <use xlink:href="#DejaVuSans-30" transform="translate(124.902344 0)"/>
      <use xlink:href="#DejaVuSans-20" transform="translate(188.525391 0)"/>
      <use xlink:href="#DejaVuSans-63" transform="translate(220.3125 0)"/>
      <use xlink:href="#DejaVuSans-6d" transform="translate(275.292969 0)"/>
     </g>
    </g>
    <g id="line2d_48">
     <path d="M 52.78125 78.176562
L 62.78125 78.176562
L 72.78125 78.176562
" style="fill: none; stroke-dasharray: 1.5,2.475; stroke-dashoffset: 0; stroke: #ff7f0e; stroke-width: 1.5"/>
    </g>
    <g id="text_22">
     <!-- r=1 cm -->
     <g transform="translate(80.78125 81.676562) scale(0.1 -0.1)">
      <use xlink:href="#DejaVuSans-72"/>
      <use xlink:href="#DejaVuSans-3d" transform="translate(41.113281 0)"/>
      <use xlink:href="#DejaVuSans-31" transform="translate(124.902344 0)"/>
      <use xlink:href="#DejaVuSans-20" transform="translate(188.525391 0)"/>
      <use xlink:href="#DejaVuSans-63" transform="translate(220.3125 0)"/>
      <use xlink:href="#DejaVuSans-6d" transform="translate(275.292969 0)"/>
     </g>
    </g>
    <g id="line2d_49">
     <path d="M 52.78125 92.854687
L 62.78125 92.854687
L 72.78125 92.854687
" style="fill: none; stroke: #2ca02c; stroke-width: 1.5; stroke-linecap: square"/>
    </g>
    <g id="text_23">
     <!-- r=2 cm -->
     <g transform="translate(80.78125 96.354687) scale(0.1 -0.1)">
      <use xlink:href="#DejaVuSans-72"/>
      <use xlink:href="#DejaVuSans-3d" transform="translate(41.113281 0)"/>
      <use xlink:href="#DejaVuSans-32" transform="translate(124.902344 0)"/>
      <use xlink:href="#DejaVuSans-20" transform="translate(188.525391 0)"/>
      <use xlink:href="#DejaVuSans-63" transform="translate(220.3125 0)"/>
      <use xlink:href="#DejaVuSans-6d" transform="translate(275.292969 0)"/>
     </g>
    </g>
    <g id="line2d_50">
     <path d="M 52.78125 107.532812
L 62.78125 107.532812
L 72.78125 107.532812
" style="fill: none; stroke: #d62728; stroke-width: 1.5; stroke-linecap: square"/>
    </g>
    <g id="text_24">
     <!-- r=3 cm -->
     <g transform="translate(80.78125 111.032812) scale(0.1 -0.1)">
      <defs>
       <path id="DejaVuSans-33" d="M 2597 2516
Q 3050 2419 3304 2112
Q 3559 1806 3559 1356
Q 3559 666 3084 287
Q 2609 -91 1734 -91
Q 1441 -91 1130 -33
Q 819 25 488 141
L 488 750
Q 750 597 1062 519
Q 1375 441 1716 441
Q 2309 441 2620 675
Q 2931 909 2931 1356
Q 2931 1769 2642 2001
Q 2353 2234 1838 2234
L 1294 2234
L 1294 2753
L 1863 2753
Q 2328 2753 2575 2939
Q 2822 3125 2822 3475
Q 2822 3834 2567 4026
Q 2313 4219 1838 4219
Q 1578 4219 1281 4162
Q 984 4106 628 3988
L 628 4550
Q 988 4650 1302 4700
Q 1616 4750 1894 4750
Q 2613 4750 3031 4423
Q 3450 4097 3450 3541
Q 3450 3153 3228 2886
Q 3006 2619 2597 2516
z
" transform="scale(0.015625)"/>
      </defs>
      <use xlink:href="#DejaVuSans-72"/>
      <use xlink:href="#DejaVuSans-3d" transform="translate(41.113281 0)"/>
      <use xlink:href="#DejaVuSans-33" transform="translate(124.902344 0)"/>
      <use xlink:href="#DejaVuSans-20" transform="translate(188.525391 0)"/>
      <use xlink:href="#DejaVuSans-63" transform="translate(220.3125 0)"/>
      <use xlink:href="#DejaVuSans-6d" transform="translate(275.292969 0)"/>
     </g>
    </g>
    <g id="line2d_51">
     <path d="M 52.78125 122.210937
L 62.78125 122.210937
L 72.78125 122.210937
" style="fill: none; stroke: #9467bd; stroke-width: 1.5; stroke-linecap: square"/>
    </g>
    <g id="text_25">
     <!-- r=4 cm -->
     <g transform="translate(80.78125 125.710937) scale(0.1 -0.1)">
      <use xlink:href="#DejaVuSans-72"/>
      <use xlink:href="#DejaVuSans-3d" transform="translate(41.113281 0)"/>
      <use xlink:href="#DejaVuSans-34" transform="translate(124.902344 0)"/>
      <use xlink:href="#DejaVuSans-20" transform="translate(188.525391 0)"/>
      <use xlink:href="#DejaVuSans-63" transform="translate(220.3125 0)"/>
      <use xlink:href="#DejaVuSans-6d" transform="translate(275.292969 0)"/>
     </g>
    </g>
    <g id="line2d_52">
     <path d="M 52.78125 136.889062
L 62.78125 136.889062
L 72.78125 136.889062
" style="fill: none; stroke: #8c564b; stroke-width: 1.5; stroke-linecap: square"/>
    </g>
    <g id="text_26">
     <!-- r=5 cm -->
     <g transform="translate(80.78125 140.389062) scale(0.1 -0.1)">
      <use xlink:href="#DejaVuSans-72"/>
      <use xlink:href="#DejaVuSans-3d" transform="translate(41.113281 0)"/>
      <use xlink:href="#DejaVuSans-35" transform="translate(124.902344 0)"/>
      <use xlink:href="#DejaVuSans-20" transform="translate(188.525391 0)"/>
      <use xlink:href="#DejaVuSans-63" transform="translate(220.3125 0)"/>
      <use xlink:href="#DejaVuSans-6d" transform="translate(275.292969 0)"/>
     </g>
    </g>
    <g id="line2d_53">
     <path d="M 52.78125 151.567187
L 62.78125 151.567187
L 72.78125 151.567187
" style="fill: none; stroke: #e377c2; stroke-width: 1.5; stroke-linecap: square"/>
    </g>
    <g id="text_27">
     <!-- r=6 cm -->
     <g transform="translate(80.78125 155.067187) scale(0.1 -0.1)">
      <use xlink:href="#DejaVuSans-72"/>
      <use xlink:href="#DejaVuSans-3d" transform="translate(41.113281 0)"/>
      <use xlink:href="#DejaVuSans-36" transform="translate(124.902344 0)"/>
      <use xlink:href="#DejaVuSans-20" transform="translate(188.525391 0)"/>
      <use xlink:href="#DejaVuSans-63" transform="translate(220.3125 0)"/>
      <use xlink:href="#DejaVuSans-6d" transform="translate(275.292969 0)"/>
     </g>
    </g>
    <g id="line2d_54">
     <path d="M 52.78125 166.245312
L 62.78125 166.245312
L 72.78125 166.245312
" style="fill: none; stroke: #7f7f7f; stroke-width: 1.5; stroke-linecap: square"/>
    </g>
    <g id="text_28">
     <!-- r=7 cm -->
     <g transform="translate(80.78125 169.745312) scale(0.1 -0.1)">
      <use xlink:href="#DejaVuSans-72"/>
      <use xlink:href="#DejaVuSans-3d" transform="translate(41.113281 0)"/>
      <use xlink:href="#DejaVuSans-37" transform="translate(124.902344 0)"/>
      <use xlink:href="#DejaVuSans-20" transform="translate(188.525391 0)"/>
      <use xlink:href="#DejaVuSans-63" transform="translate(220.3125 0)"/>
      <use xlink:href="#DejaVuSans-6d" transform="translate(275.292969 0)"/>
     </g>
    </g>
    <g id="line2d_55">
     <path d="M 52.78125 180.923437
L 62.78125 180.923437
L 72.78125 180.923437
" style="fill: none; stroke: #bcbd22; stroke-width: 1.5; stroke-linecap: square"/>
    </g>
    <g id="text_29">
     <!-- r=8 cm -->
     <g transform="translate(80.78125 184.423437) scale(0.1 -0.1)">
      <use xlink:href="#DejaVuSans-72"/>
      <use xlink:href="#DejaVuSans-3d" transform="translate(41.113281 0)"/>
      <use xlink:href="#DejaVuSans-38" transform="translate(124.902344 0)"/>
      <use xlink:href="#DejaVuSans-20" transform="translate(188.525391 0)"/>
      <use xlink:href="#DejaVuSans-63" transform="translate(220.3125 0)"/>
      <use xlink:href="#DejaVuSans-6d" transform="translate(275.292969 0)"/>
     </g>
    </g>
    <g id="line2d_56">
     <path d="M 52.78125 195.601562
L 62.78125 195.601562
L 72.78125 195.601562
" style="fill: none; stroke: #17becf; stroke-width: 1.5; stroke-linecap: square"/>
    </g>
    <g id="text_30">
     <!-- r=9 cm -->
     <g transform="translate(80.78125 199.101562) scale(0.1 -0.1)">
      <defs>
       <path id="DejaVuSans-39" d="M 703 97
L 703 672
Q 941 559 1184 500
Q 1428 441 1663 441
Q 2288 441 2617 861
Q 2947 1281 2994 2138
Q 2813 1869 2534 1725
Q 2256 1581 1919 1581
Q 1219 1581 811 2004
Q 403 2428 403 3163
Q 403 3881 828 4315
Q 1253 4750 1959 4750
Q 2769 4750 3195 4129
Q 3622 3509 3622 2328
Q 3622 1225 3098 567
Q 2575 -91 1691 -91
Q 1453 -91 1209 -44
Q 966 3 703 97
z
M 1959 2075
Q 2384 2075 2632 2365
Q 2881 2656 2881 3163
Q 2881 3666 2632 3958
Q 2384 4250 1959 4250
Q 1534 4250 1286 3958
Q 1038 3666 1038 3163
Q 1038 2656 1286 2365
Q 1534 2075 1959 2075
z
" transform="scale(0.015625)"/>
      </defs>
      <use xlink:href="#DejaVuSans-72"/>
      <use xlink:href="#DejaVuSans-3d" transform="translate(41.113281 0)"/>
      <use xlink:href="#DejaVuSans-39" transform="translate(124.902344 0)"/>
      <use xlink:href="#DejaVuSans-20" transform="translate(188.525391 0)"/>
      <use xlink:href="#DejaVuSans-63" transform="translate(220.3125 0)"/>
      <use xlink:href="#DejaVuSans-6d" transform="translate(275.292969 0)"/>
     </g>
    </g>
    <g id="line2d_57">
     <path d="M 52.78125 210.279687
L 62.78125 210.279687
L 72.78125 210.279687
" style="fill: none; stroke: #1f77b4; stroke-width: 1.5; stroke-linecap: square"/>
    </g>
    <g id="text_31">
     <!-- r=10 cm -->
     <g transform="translate(80.78125 213.779687) scale(0.1 -0.1)">
      <use xlink:href="#DejaVuSans-72"/>
      <use xlink:href="#DejaVuSans-3d" transform="translate(41.113281 0)"/>
      <use xlink:href="#DejaVuSans-31" transform="translate(124.902344 0)"/>
      <use xlink:href="#DejaVuSans-30" transform="translate(188.525391 0)"/>
      <use xlink:href="#DejaVuSans-20" transform="translate(252.148438 0)"/>
      <use xlink:href="#DejaVuSans-63" transform="translate(283.935547 0)"/>
      <use xlink:href="#DejaVuSans-6d" transform="translate(338.916016 0)"/>
     </g>
    </g>
    <g id="line2d_58">
     <path d="M 52.78125 224.957812
L 62.78125 224.957812
L 72.78125 224.957812
" style="fill: none; stroke: #ff7f0e; stroke-width: 1.5; stroke-linecap: square"/>
    </g>
    <g id="text_32">
     <!-- r=11 cm -->
     <g transform="translate(80.78125 228.457812) scale(0.1 -0.1)">
      <use xlink:href="#DejaVuSans-72"/>
      <use xlink:href="#DejaVuSans-3d" transform="translate(41.113281 0)"/>
      <use xlink:href="#DejaVuSans-31" transform="translate(124.902344 0)"/>
      <use xlink:href="#DejaVuSans-31" transform="translate(188.525391 0)"/>
      <use xlink:href="#DejaVuSans-20" transform="translate(252.148438 0)"/>
      <use xlink:href="#DejaVuSans-63" transform="translate(283.935547 0)"/>
      <use xlink:href="#DejaVuSans-6d" transform="translate(338.916016 0)"/>
     </g>
    </g>
   </g>
  </g>
  <g id="text_33">
   <!-- Maximum Principal Log Strain at Various Radii (sr2c) -->
   <g transform="translate(102.4875 16.318125) scale(0.12 -0.12)">
    <defs>
     <path id="DejaVuSans-4d" d="M 628 4666
L 1569 4666
L 2759 1491
L 3956 4666
L 4897 4666
L 4897 0
L 4281 0
L 4281 4097
L 3078 897
L 2444 897
L 1241 4097
L 1241 0
L 628 0
L 628 4666
z
" transform="scale(0.015625)"/>
     <path id="DejaVuSans-50" d="M 1259 4147
L 1259 2394
L 2053 2394
Q 2494 2394 2734 2622
Q 2975 2850 2975 3272
Q 2975 3691 2734 3919
Q 2494 4147 2053 4147
L 1259 4147
z
M 628 4666
L 2053 4666
Q 2838 4666 3239 4311
Q 3641 3956 3641 3272
Q 3641 2581 3239 2228
Q 2838 1875 2053 1875
L 1259 1875
L 1259 0
L 628 0
L 628 4666
z
" transform="scale(0.015625)"/>
     <path id="DejaVuSans-4c" d="M 628 4666
L 1259 4666
L 1259 531
L 3531 531
L 3531 0
L 628 0
L 628 4666
z
" transform="scale(0.015625)"/>
     <path id="DejaVuSans-56" d="M 1831 0
L 50 4666
L 709 4666
L 2188 738
L 3669 4666
L 4325 4666
L 2547 0
L 1831 0
z
" transform="scale(0.015625)"/>
     <path id="DejaVuSans-52" d="M 2841 2188
Q 3044 2119 3236 1894
Q 3428 1669 3622 1275
L 4263 0
L 3584 0
L 2988 1197
Q 2756 1666 2539 1819
Q 2322 1972 1947 1972
L 1259 1972
L 1259 0
L 628 0
L 628 4666
L 2053 4666
Q 2853 4666 3247 4331
Q 3641 3997 3641 3322
Q 3641 2881 3436 2590
Q 3231 2300 2841 2188
z
M 1259 4147
L 1259 2491
L 2053 2491
Q 2509 2491 2742 2702
Q 2975 2913 2975 3322
Q 2975 3731 2742 3939
Q 2509 4147 2053 4147
L 1259 4147
z
" transform="scale(0.015625)"/>
    </defs>
    <use xlink:href="#DejaVuSans-4d"/>
    <use xlink:href="#DejaVuSans-61" transform="translate(86.279297 0)"/>
    <use xlink:href="#DejaVuSans-78" transform="translate(147.558594 0)"/>
    <use xlink:href="#DejaVuSans-69" transform="translate(206.738281 0)"/>
    <use xlink:href="#DejaVuSans-6d" transform="translate(234.521484 0)"/>
    <use xlink:href="#DejaVuSans-75" transform="translate(331.933594 0)"/>
    <use xlink:href="#DejaVuSans-6d" transform="translate(395.3125 0)"/>
    <use xlink:href="#DejaVuSans-20" transform="translate(492.724609 0)"/>
    <use xlink:href="#DejaVuSans-50" transform="translate(524.511719 0)"/>
    <use xlink:href="#DejaVuSans-72" transform="translate(583.064453 0)"/>
    <use xlink:href="#DejaVuSans-69" transform="translate(624.177734 0)"/>
    <use xlink:href="#DejaVuSans-6e" transform="translate(651.960938 0)"/>
    <use xlink:href="#DejaVuSans-63" transform="translate(715.339844 0)"/>
    <use xlink:href="#DejaVuSans-69" transform="translate(770.320312 0)"/>
    <use xlink:href="#DejaVuSans-70" transform="translate(798.103516 0)"/>
    <use xlink:href="#DejaVuSans-61" transform="translate(861.580078 0)"/>
    <use xlink:href="#DejaVuSans-6c" transform="translate(922.859375 0)"/>
    <use xlink:href="#DejaVuSans-20" transform="translate(950.642578 0)"/>
    <use xlink:href="#DejaVuSans-4c" transform="translate(982.429688 0)"/>
    <use xlink:href="#DejaVuSans-6f" transform="translate(1036.392578 0)"/>
    <use xlink:href="#DejaVuSans-67" transform="translate(1097.574219 0)"/>
    <use xlink:href="#DejaVuSans-20" transform="translate(1161.050781 0)"/>
    <use xlink:href="#DejaVuSans-53" transform="translate(1192.837891 0)"/>
    <use xlink:href="#DejaVuSans-74" transform="translate(1256.314453 0)"/>
    <use xlink:href="#DejaVuSans-72" transform="translate(1295.523438 0)"/>
    <use xlink:href="#DejaVuSans-61" transform="translate(1336.636719 0)"/>
    <use xlink:href="#DejaVuSans-69" transform="translate(1397.916016 0)"/>
    <use xlink:href="#DejaVuSans-6e" transform="translate(1425.699219 0)"/>
    <use xlink:href="#DejaVuSans-20" transform="translate(1489.078125 0)"/>
    <use xlink:href="#DejaVuSans-61" transform="translate(1520.865234 0)"/>
    <use xlink:href="#DejaVuSans-74" transform="translate(1582.144531 0)"/>
    <use xlink:href="#DejaVuSans-20" transform="translate(1621.353516 0)"/>
    <use xlink:href="#DejaVuSans-56" transform="translate(1653.140625 0)"/>
    <use xlink:href="#DejaVuSans-61" transform="translate(1713.798828 0)"/>
    <use xlink:href="#DejaVuSans-72" transform="translate(1775.078125 0)"/>
    <use xlink:href="#DejaVuSans-69" transform="translate(1816.191406 0)"/>
    <use xlink:href="#DejaVuSans-6f" transform="translate(1843.974609 0)"/>
    <use xlink:href="#DejaVuSans-75" transform="translate(1905.15625 0)"/>
    <use xlink:href="#DejaVuSans-73" transform="translate(1968.535156 0)"/>
    <use xlink:href="#DejaVuSans-20" transform="translate(2020.634766 0)"/>
    <use xlink:href="#DejaVuSans-52" transform="translate(2052.421875 0)"/>
    <use xlink:href="#DejaVuSans-61" transform="translate(2119.654297 0)"/>
    <use xlink:href="#DejaVuSans-64" transform="translate(2180.933594 0)"/>
    <use xlink:href="#DejaVuSans-69" transform="translate(2244.410156 0)"/>
    <use xlink:href="#DejaVuSans-69" transform="translate(2272.193359 0)"/>
    <use xlink:href="#DejaVuSans-20" transform="translate(2299.976562 0)"/>
    <use xlink:href="#DejaVuSans-28" transform="translate(2331.763672 0)"/>
    <use xlink:href="#DejaVuSans-73" transform="translate(2370.777344 0)"/>
    <use xlink:href="#DejaVuSans-72" transform="translate(2422.876953 0)"/>
    <use xlink:href="#DejaVuSans-32" transform="translate(2463.990234 0)"/>
    <use xlink:href="#DejaVuSans-63" transform="translate(2527.613281 0)"/>
    <use xlink:href="#DejaVuSans-29" transform="translate(2582.59375 0)"/>
   </g>
  </g>
 </g>
 <defs>
  <clipPath id="pe50638493c">
   <rect x="43.78125" y="50.4" width="446.4" height="332.64"/>
  </clipPath>
 </defs>
</svg>
