<?xml version="1.0" encoding="utf-8" standalone="no"?>
<!DOCTYPE svg PUBLIC "-//W3C//DTD SVG 1.1//EN"
  "http://www.w3.org/Graphics/SVG/1.1/DTD/svg11.dtd">
<svg xmlns:xlink="http://www.w3.org/1999/xlink" width="497.38125pt" height="420.59625pt" viewBox="0 0 497.38125 420.59625" xmlns="http://www.w3.org/2000/svg" version="1.1">
 <metadata>
  <rdf:RDF xmlns:dc="http://purl.org/dc/elements/1.1/" xmlns:cc="http://creativecommons.org/ns#" xmlns:rdf="http://www.w3.org/1999/02/22-rdf-syntax-ns#">
   <cc:Work>
    <dc:type rdf:resource="http://purl.org/dc/dcmitype/StillImage"/>
    <dc:date>2025-01-08T10:26:38.008349</dc:date>
    <dc:format>image/svg+xml</dc:format>
    <dc:creator>
     <cc:Agent>
      <dc:title>Matplotlib v3.10.0, https://matplotlib.org/</dc:title>
     </cc:Agent>
    </dc:creator>
   </cc:Work>
  </rdf:RDF>
 </metadata>
 <defs>
  <style type="text/css">*{stroke-linejoin: round; stroke-linecap: butt}</style>
 </defs>
 <g id="figure_1">
  <g id="patch_1">
   <path d="M 0 420.59625 
L 497.38125 420.59625 
L 497.38125 0 
L 0 0 
z
" style="fill: #ffffff"/>
  </g>
  <g id="axes_1">
   <g id="patch_2">
    <path d="M 43.78125 383.04 
L 490.18125 383.04 
L 490.18125 50.4 
L 43.78125 50.4 
z
" style="fill: #ffffff"/>
   </g>
   <g id="matplotlib.axis_1">
    <g id="xtick_1">
     <g id="line2d_1">
      <path d="M 64.072159 383.04 
L 64.072159 50.4 
" clip-path="url(#p2270249dc8)" style="fill: none; stroke: #b0b0b0; stroke-width: 0.8; stroke-linecap: square"/>
     </g>
     <g id="line2d_2">
      <defs>
       <path id="m25cde45184" d="M 0 0 
L 0 3.5 
" style="stroke: #000000; stroke-width: 0.8"/>
      </defs>
      <g>
       <use xlink:href="#m25cde45184" x="64.072159" y="383.04" style="stroke: #000000; stroke-width: 0.8"/>
      </g>
     </g>
     <g id="text_1">
      <!-- 0.0000 -->
      <g transform="translate(46.576847 397.638437) scale(0.1 -0.1)">
       <defs>
        <path id="DejaVuSans-30" d="M 2034 4250 
Q 1547 4250 1301 3770 
Q 1056 3291 1056 2328 
Q 1056 1369 1301 889 
Q 1547 409 2034 409 
Q 2525 409 2770 889 
Q 3016 1369 3016 2328 
Q 3016 3291 2770 3770 
Q 2525 4250 2034 4250 
z
M 2034 4750 
Q 2819 4750 3233 4129 
Q 3647 3509 3647 2328 
Q 3647 1150 3233 529 
Q 2819 -91 2034 -91 
Q 1250 -91 836 529 
Q 422 1150 422 2328 
Q 422 3509 836 4129 
Q 1250 4750 2034 4750 
z
" transform="scale(0.015625)"/>
        <path id="DejaVuSans-2e" d="M 684 794 
L 1344 794 
L 1344 0 
L 684 0 
L 684 794 
z
" transform="scale(0.015625)"/>
       </defs>
       <use xlink:href="#DejaVuSans-30"/>
       <use xlink:href="#DejaVuSans-2e" transform="translate(63.623047 0)"/>
       <use xlink:href="#DejaVuSans-30" transform="translate(95.410156 0)"/>
       <use xlink:href="#DejaVuSans-30" transform="translate(159.033203 0)"/>
       <use xlink:href="#DejaVuSans-30" transform="translate(222.65625 0)"/>
       <use xlink:href="#DejaVuSans-30" transform="translate(286.279297 0)"/>
      </g>
     </g>
    </g>
    <g id="xtick_2">
     <g id="line2d_3">
      <path d="M 114.799432 383.04 
L 114.799432 50.4 
" clip-path="url(#p2270249dc8)" style="fill: none; stroke: #b0b0b0; stroke-width: 0.8; stroke-linecap: square"/>
     </g>
     <g id="line2d_4">
      <g>
       <use xlink:href="#m25cde45184" x="114.799432" y="383.04" style="stroke: #000000; stroke-width: 0.8"/>
      </g>
     </g>
     <g id="text_2">
      <!-- 0.0025 -->
      <g transform="translate(97.304119 397.638437) scale(0.1 -0.1)">
       <defs>
        <path id="DejaVuSans-32" d="M 1228 531 
L 3431 531 
L 3431 0 
L 469 0 
L 469 531 
Q 828 903 1448 1529 
Q 2069 2156 2228 2338 
Q 2531 2678 2651 2914 
Q 2772 3150 2772 3378 
Q 2772 3750 2511 3984 
Q 2250 4219 1831 4219 
Q 1534 4219 1204 4116 
Q 875 4013 500 3803 
L 500 4441 
Q 881 4594 1212 4672 
Q 1544 4750 1819 4750 
Q 2544 4750 2975 4387 
Q 3406 4025 3406 3419 
Q 3406 3131 3298 2873 
Q 3191 2616 2906 2266 
Q 2828 2175 2409 1742 
Q 1991 1309 1228 531 
z
" transform="scale(0.015625)"/>
        <path id="DejaVuSans-35" d="M 691 4666 
L 3169 4666 
L 3169 4134 
L 1269 4134 
L 1269 2991 
Q 1406 3038 1543 3061 
Q 1681 3084 1819 3084 
Q 2600 3084 3056 2656 
Q 3513 2228 3513 1497 
Q 3513 744 3044 326 
Q 2575 -91 1722 -91 
Q 1428 -91 1123 -41 
Q 819 9 494 109 
L 494 744 
Q 775 591 1075 516 
Q 1375 441 1709 441 
Q 2250 441 2565 725 
Q 2881 1009 2881 1497 
Q 2881 1984 2565 2268 
Q 2250 2553 1709 2553 
Q 1456 2553 1204 2497 
Q 953 2441 691 2322 
L 691 4666 
z
" transform="scale(0.015625)"/>
       </defs>
       <use xlink:href="#DejaVuSans-30"/>
       <use xlink:href="#DejaVuSans-2e" transform="translate(63.623047 0)"/>
       <use xlink:href="#DejaVuSans-30" transform="translate(95.410156 0)"/>
       <use xlink:href="#DejaVuSans-30" transform="translate(159.033203 0)"/>
       <use xlink:href="#DejaVuSans-32" transform="translate(222.65625 0)"/>
       <use xlink:href="#DejaVuSans-35" transform="translate(286.279297 0)"/>
      </g>
     </g>
    </g>
    <g id="xtick_3">
     <g id="line2d_5">
      <path d="M 165.526705 383.04 
L 165.526705 50.4 
" clip-path="url(#p2270249dc8)" style="fill: none; stroke: #b0b0b0; stroke-width: 0.8; stroke-linecap: square"/>
     </g>
     <g id="line2d_6">
      <g>
       <use xlink:href="#m25cde45184" x="165.526705" y="383.04" style="stroke: #000000; stroke-width: 0.8"/>
      </g>
     </g>
     <g id="text_3">
      <!-- 0.0050 -->
      <g transform="translate(148.031392 397.638437) scale(0.1 -0.1)">
       <use xlink:href="#DejaVuSans-30"/>
       <use xlink:href="#DejaVuSans-2e" transform="translate(63.623047 0)"/>
       <use xlink:href="#DejaVuSans-30" transform="translate(95.410156 0)"/>
       <use xlink:href="#DejaVuSans-30" transform="translate(159.033203 0)"/>
       <use xlink:href="#DejaVuSans-35" transform="translate(222.65625 0)"/>
       <use xlink:href="#DejaVuSans-30" transform="translate(286.279297 0)"/>
      </g>
     </g>
    </g>
    <g id="xtick_4">
     <g id="line2d_7">
      <path d="M 216.253977 383.04 
L 216.253977 50.4 
" clip-path="url(#p2270249dc8)" style="fill: none; stroke: #b0b0b0; stroke-width: 0.8; stroke-linecap: square"/>
     </g>
     <g id="line2d_8">
      <g>
       <use xlink:href="#m25cde45184" x="216.253977" y="383.04" style="stroke: #000000; stroke-width: 0.8"/>
      </g>
     </g>
     <g id="text_4">
      <!-- 0.0075 -->
      <g transform="translate(198.758665 397.638437) scale(0.1 -0.1)">
       <defs>
        <path id="DejaVuSans-37" d="M 525 4666 
L 3525 4666 
L 3525 4397 
L 1831 0 
L 1172 0 
L 2766 4134 
L 525 4134 
L 525 4666 
z
" transform="scale(0.015625)"/>
       </defs>
       <use xlink:href="#DejaVuSans-30"/>
       <use xlink:href="#DejaVuSans-2e" transform="translate(63.623047 0)"/>
       <use xlink:href="#DejaVuSans-30" transform="translate(95.410156 0)"/>
       <use xlink:href="#DejaVuSans-30" transform="translate(159.033203 0)"/>
       <use xlink:href="#DejaVuSans-37" transform="translate(222.65625 0)"/>
       <use xlink:href="#DejaVuSans-35" transform="translate(286.279297 0)"/>
      </g>
     </g>
    </g>
    <g id="xtick_5">
     <g id="line2d_9">
      <path d="M 266.98125 383.04 
L 266.98125 50.4 
" clip-path="url(#p2270249dc8)" style="fill: none; stroke: #b0b0b0; stroke-width: 0.8; stroke-linecap: square"/>
     </g>
     <g id="line2d_10">
      <g>
       <use xlink:href="#m25cde45184" x="266.98125" y="383.04" style="stroke: #000000; stroke-width: 0.8"/>
      </g>
     </g>
     <g id="text_5">
      <!-- 0.0100 -->
      <g transform="translate(249.485937 397.638437) scale(0.1 -0.1)">
       <defs>
        <path id="DejaVuSans-31" d="M 794 531 
L 1825 531 
L 1825 4091 
L 703 3866 
L 703 4441 
L 1819 4666 
L 2450 4666 
L 2450 531 
L 3481 531 
L 3481 0 
L 794 0 
L 794 531 
z
" transform="scale(0.015625)"/>
       </defs>
       <use xlink:href="#DejaVuSans-30"/>
       <use xlink:href="#DejaVuSans-2e" transform="translate(63.623047 0)"/>
       <use xlink:href="#DejaVuSans-30" transform="translate(95.410156 0)"/>
       <use xlink:href="#DejaVuSans-31" transform="translate(159.033203 0)"/>
       <use xlink:href="#DejaVuSans-30" transform="translate(222.65625 0)"/>
       <use xlink:href="#DejaVuSans-30" transform="translate(286.279297 0)"/>
      </g>
     </g>
    </g>
    <g id="xtick_6">
     <g id="line2d_11">
      <path d="M 317.708523 383.04 
L 317.708523 50.4 
" clip-path="url(#p2270249dc8)" style="fill: none; stroke: #b0b0b0; stroke-width: 0.8; stroke-linecap: square"/>
     </g>
     <g id="line2d_12">
      <g>
       <use xlink:href="#m25cde45184" x="317.708523" y="383.04" style="stroke: #000000; stroke-width: 0.8"/>
      </g>
     </g>
     <g id="text_6">
      <!-- 0.0125 -->
      <g transform="translate(300.21321 397.638437) scale(0.1 -0.1)">
       <use xlink:href="#DejaVuSans-30"/>
       <use xlink:href="#DejaVuSans-2e" transform="translate(63.623047 0)"/>
       <use xlink:href="#DejaVuSans-30" transform="translate(95.410156 0)"/>
       <use xlink:href="#DejaVuSans-31" transform="translate(159.033203 0)"/>
       <use xlink:href="#DejaVuSans-32" transform="translate(222.65625 0)"/>
       <use xlink:href="#DejaVuSans-35" transform="translate(286.279297 0)"/>
      </g>
     </g>
    </g>
    <g id="xtick_7">
     <g id="line2d_13">
      <path d="M 368.435795 383.04 
L 368.435795 50.4 
" clip-path="url(#p2270249dc8)" style="fill: none; stroke: #b0b0b0; stroke-width: 0.8; stroke-linecap: square"/>
     </g>
     <g id="line2d_14">
      <g>
       <use xlink:href="#m25cde45184" x="368.435795" y="383.04" style="stroke: #000000; stroke-width: 0.8"/>
      </g>
     </g>
     <g id="text_7">
      <!-- 0.0150 -->
      <g transform="translate(350.940483 397.638437) scale(0.1 -0.1)">
       <use xlink:href="#DejaVuSans-30"/>
       <use xlink:href="#DejaVuSans-2e" transform="translate(63.623047 0)"/>
       <use xlink:href="#DejaVuSans-30" transform="translate(95.410156 0)"/>
       <use xlink:href="#DejaVuSans-31" transform="translate(159.033203 0)"/>
       <use xlink:href="#DejaVuSans-35" transform="translate(222.65625 0)"/>
       <use xlink:href="#DejaVuSans-30" transform="translate(286.279297 0)"/>
      </g>
     </g>
    </g>
    <g id="xtick_8">
     <g id="line2d_15">
      <path d="M 419.163068 383.04 
L 419.163068 50.4 
" clip-path="url(#p2270249dc8)" style="fill: none; stroke: #b0b0b0; stroke-width: 0.8; stroke-linecap: square"/>
     </g>
     <g id="line2d_16">
      <g>
       <use xlink:href="#m25cde45184" x="419.163068" y="383.04" style="stroke: #000000; stroke-width: 0.8"/>
      </g>
     </g>
     <g id="text_8">
      <!-- 0.0175 -->
      <g transform="translate(401.667756 397.638437) scale(0.1 -0.1)">
       <use xlink:href="#DejaVuSans-30"/>
       <use xlink:href="#DejaVuSans-2e" transform="translate(63.623047 0)"/>
       <use xlink:href="#DejaVuSans-30" transform="translate(95.410156 0)"/>
       <use xlink:href="#DejaVuSans-31" transform="translate(159.033203 0)"/>
       <use xlink:href="#DejaVuSans-37" transform="translate(222.65625 0)"/>
       <use xlink:href="#DejaVuSans-35" transform="translate(286.279297 0)"/>
      </g>
     </g>
    </g>
    <g id="xtick_9">
     <g id="line2d_17">
      <path d="M 469.890341 383.04 
L 469.890341 50.4 
" clip-path="url(#p2270249dc8)" style="fill: none; stroke: #b0b0b0; stroke-width: 0.8; stroke-linecap: square"/>
     </g>
     <g id="line2d_18">
      <g>
       <use xlink:href="#m25cde45184" x="469.890341" y="383.04" style="stroke: #000000; stroke-width: 0.8"/>
      </g>
     </g>
     <g id="text_9">
      <!-- 0.0200 -->
      <g transform="translate(452.395028 397.638437) scale(0.1 -0.1)">
       <use xlink:href="#DejaVuSans-30"/>
       <use xlink:href="#DejaVuSans-2e" transform="translate(63.623047 0)"/>
       <use xlink:href="#DejaVuSans-30" transform="translate(95.410156 0)"/>
       <use xlink:href="#DejaVuSans-32" transform="translate(159.033203 0)"/>
       <use xlink:href="#DejaVuSans-30" transform="translate(222.65625 0)"/>
       <use xlink:href="#DejaVuSans-30" transform="translate(286.279297 0)"/>
      </g>
     </g>
    </g>
    <g id="text_10">
     <!-- time (s) -->
     <g transform="translate(247.589844 411.316562) scale(0.1 -0.1)">
      <defs>
       <path id="DejaVuSans-74" d="M 1172 4494 
L 1172 3500 
L 2356 3500 
L 2356 3053 
L 1172 3053 
L 1172 1153 
Q 1172 725 1289 603 
Q 1406 481 1766 481 
L 2356 481 
L 2356 0 
L 1766 0 
Q 1100 0 847 248 
Q 594 497 594 1153 
L 594 3053 
L 172 3053 
L 172 3500 
L 594 3500 
L 594 4494 
L 1172 4494 
z
" transform="scale(0.015625)"/>
       <path id="DejaVuSans-69" d="M 603 3500 
L 1178 3500 
L 1178 0 
L 603 0 
L 603 3500 
z
M 603 4863 
L 1178 4863 
L 1178 4134 
L 603 4134 
L 603 4863 
z
" transform="scale(0.015625)"/>
       <path id="DejaVuSans-6d" d="M 3328 2828 
Q 3544 3216 3844 3400 
Q 4144 3584 4550 3584 
Q 5097 3584 5394 3201 
Q 5691 2819 5691 2113 
L 5691 0 
L 5113 0 
L 5113 2094 
Q 5113 2597 4934 2840 
Q 4756 3084 4391 3084 
Q 3944 3084 3684 2787 
Q 3425 2491 3425 1978 
L 3425 0 
L 2847 0 
L 2847 2094 
Q 2847 2600 2669 2842 
Q 2491 3084 2119 3084 
Q 1678 3084 1418 2786 
Q 1159 2488 1159 1978 
L 1159 0 
L 581 0 
L 581 3500 
L 1159 3500 
L 1159 2956 
Q 1356 3278 1631 3431 
Q 1906 3584 2284 3584 
Q 2666 3584 2933 3390 
Q 3200 3197 3328 2828 
z
" transform="scale(0.015625)"/>
       <path id="DejaVuSans-65" d="M 3597 1894 
L 3597 1613 
L 953 1613 
Q 991 1019 1311 708 
Q 1631 397 2203 397 
Q 2534 397 2845 478 
Q 3156 559 3463 722 
L 3463 178 
Q 3153 47 2828 -22 
Q 2503 -91 2169 -91 
Q 1331 -91 842 396 
Q 353 884 353 1716 
Q 353 2575 817 3079 
Q 1281 3584 2069 3584 
Q 2775 3584 3186 3129 
Q 3597 2675 3597 1894 
z
M 3022 2063 
Q 3016 2534 2758 2815 
Q 2500 3097 2075 3097 
Q 1594 3097 1305 2825 
Q 1016 2553 972 2059 
L 3022 2063 
z
" transform="scale(0.015625)"/>
       <path id="DejaVuSans-20" transform="scale(0.015625)"/>
       <path id="DejaVuSans-28" d="M 1984 4856 
Q 1566 4138 1362 3434 
Q 1159 2731 1159 2009 
Q 1159 1288 1364 580 
Q 1569 -128 1984 -844 
L 1484 -844 
Q 1016 -109 783 600 
Q 550 1309 550 2009 
Q 550 2706 781 3412 
Q 1013 4119 1484 4856 
L 1984 4856 
z
" transform="scale(0.015625)"/>
       <path id="DejaVuSans-73" d="M 2834 3397 
L 2834 2853 
Q 2591 2978 2328 3040 
Q 2066 3103 1784 3103 
Q 1356 3103 1142 2972 
Q 928 2841 928 2578 
Q 928 2378 1081 2264 
Q 1234 2150 1697 2047 
L 1894 2003 
Q 2506 1872 2764 1633 
Q 3022 1394 3022 966 
Q 3022 478 2636 193 
Q 2250 -91 1575 -91 
Q 1294 -91 989 -36 
Q 684 19 347 128 
L 347 722 
Q 666 556 975 473 
Q 1284 391 1588 391 
Q 1994 391 2212 530 
Q 2431 669 2431 922 
Q 2431 1156 2273 1281 
Q 2116 1406 1581 1522 
L 1381 1569 
Q 847 1681 609 1914 
Q 372 2147 372 2553 
Q 372 3047 722 3315 
Q 1072 3584 1716 3584 
Q 2034 3584 2315 3537 
Q 2597 3491 2834 3397 
z
" transform="scale(0.015625)"/>
       <path id="DejaVuSans-29" d="M 513 4856 
L 1013 4856 
Q 1481 4119 1714 3412 
Q 1947 2706 1947 2009 
Q 1947 1309 1714 600 
Q 1481 -109 1013 -844 
L 513 -844 
Q 928 -128 1133 580 
Q 1338 1288 1338 2009 
Q 1338 2731 1133 3434 
Q 928 4138 513 4856 
z
" transform="scale(0.015625)"/>
      </defs>
      <use xlink:href="#DejaVuSans-74"/>
      <use xlink:href="#DejaVuSans-69" transform="translate(39.208984 0)"/>
      <use xlink:href="#DejaVuSans-6d" transform="translate(66.992188 0)"/>
      <use xlink:href="#DejaVuSans-65" transform="translate(164.404297 0)"/>
      <use xlink:href="#DejaVuSans-20" transform="translate(225.927734 0)"/>
      <use xlink:href="#DejaVuSans-28" transform="translate(257.714844 0)"/>
      <use xlink:href="#DejaVuSans-73" transform="translate(296.728516 0)"/>
      <use xlink:href="#DejaVuSans-29" transform="translate(348.828125 0)"/>
     </g>
    </g>
   </g>
   <g id="matplotlib.axis_2">
    <g id="ytick_1">
     <g id="line2d_19">
      <path d="M 43.78125 380.777143 
L 490.18125 380.777143 
" clip-path="url(#p2270249dc8)" style="fill: none; stroke: #b0b0b0; stroke-width: 0.8; stroke-linecap: square"/>
     </g>
     <g id="line2d_20">
      <defs>
       <path id="m93e3f340f4" d="M 0 0 
L -3.5 0 
" style="stroke: #000000; stroke-width: 0.8"/>
      </defs>
      <g>
       <use xlink:href="#m93e3f340f4" x="43.78125" y="380.777143" style="stroke: #000000; stroke-width: 0.8"/>
      </g>
     </g>
     <g id="text_11">
      <!-- 0.0 -->
      <g transform="translate(20.878125 384.576362) scale(0.1 -0.1)">
       <use xlink:href="#DejaVuSans-30"/>
       <use xlink:href="#DejaVuSans-2e" transform="translate(63.623047 0)"/>
       <use xlink:href="#DejaVuSans-30" transform="translate(95.410156 0)"/>
      </g>
     </g>
    </g>
    <g id="ytick_2">
     <g id="line2d_21">
      <path d="M 43.78125 335.52 
L 490.18125 335.52 
" clip-path="url(#p2270249dc8)" style="fill: none; stroke: #b0b0b0; stroke-width: 0.8; stroke-linecap: square"/>
     </g>
     <g id="line2d_22">
      <g>
       <use xlink:href="#m93e3f340f4" x="43.78125" y="335.52" style="stroke: #000000; stroke-width: 0.8"/>
      </g>
     </g>
     <g id="text_12">
      <!-- 0.2 -->
      <g transform="translate(20.878125 339.319219) scale(0.1 -0.1)">
       <use xlink:href="#DejaVuSans-30"/>
       <use xlink:href="#DejaVuSans-2e" transform="translate(63.623047 0)"/>
       <use xlink:href="#DejaVuSans-32" transform="translate(95.410156 0)"/>
      </g>
     </g>
    </g>
    <g id="ytick_3">
     <g id="line2d_23">
      <path d="M 43.78125 290.262857 
L 490.18125 290.262857 
" clip-path="url(#p2270249dc8)" style="fill: none; stroke: #b0b0b0; stroke-width: 0.8; stroke-linecap: square"/>
     </g>
     <g id="line2d_24">
      <g>
       <use xlink:href="#m93e3f340f4" x="43.78125" y="290.262857" style="stroke: #000000; stroke-width: 0.8"/>
      </g>
     </g>
     <g id="text_13">
      <!-- 0.4 -->
      <g transform="translate(20.878125 294.062076) scale(0.1 -0.1)">
       <defs>
        <path id="DejaVuSans-34" d="M 2419 4116 
L 825 1625 
L 2419 1625 
L 2419 4116 
z
M 2253 4666 
L 3047 4666 
L 3047 1625 
L 3713 1625 
L 3713 1100 
L 3047 1100 
L 3047 0 
L 2419 0 
L 2419 1100 
L 313 1100 
L 313 1709 
L 2253 4666 
z
" transform="scale(0.015625)"/>
       </defs>
       <use xlink:href="#DejaVuSans-30"/>
       <use xlink:href="#DejaVuSans-2e" transform="translate(63.623047 0)"/>
       <use xlink:href="#DejaVuSans-34" transform="translate(95.410156 0)"/>
      </g>
     </g>
    </g>
    <g id="ytick_4">
     <g id="line2d_25">
      <path d="M 43.78125 245.005714 
L 490.18125 245.005714 
" clip-path="url(#p2270249dc8)" style="fill: none; stroke: #b0b0b0; stroke-width: 0.8; stroke-linecap: square"/>
     </g>
     <g id="line2d_26">
      <g>
       <use xlink:href="#m93e3f340f4" x="43.78125" y="245.005714" style="stroke: #000000; stroke-width: 0.8"/>
      </g>
     </g>
     <g id="text_14">
      <!-- 0.6 -->
      <g transform="translate(20.878125 248.804933) scale(0.1 -0.1)">
       <defs>
        <path id="DejaVuSans-36" d="M 2113 2584 
Q 1688 2584 1439 2293 
Q 1191 2003 1191 1497 
Q 1191 994 1439 701 
Q 1688 409 2113 409 
Q 2538 409 2786 701 
Q 3034 994 3034 1497 
Q 3034 2003 2786 2293 
Q 2538 2584 2113 2584 
z
M 3366 4563 
L 3366 3988 
Q 3128 4100 2886 4159 
Q 2644 4219 2406 4219 
Q 1781 4219 1451 3797 
Q 1122 3375 1075 2522 
Q 1259 2794 1537 2939 
Q 1816 3084 2150 3084 
Q 2853 3084 3261 2657 
Q 3669 2231 3669 1497 
Q 3669 778 3244 343 
Q 2819 -91 2113 -91 
Q 1303 -91 875 529 
Q 447 1150 447 2328 
Q 447 3434 972 4092 
Q 1497 4750 2381 4750 
Q 2619 4750 2861 4703 
Q 3103 4656 3366 4563 
z
" transform="scale(0.015625)"/>
       </defs>
       <use xlink:href="#DejaVuSans-30"/>
       <use xlink:href="#DejaVuSans-2e" transform="translate(63.623047 0)"/>
       <use xlink:href="#DejaVuSans-36" transform="translate(95.410156 0)"/>
      </g>
     </g>
    </g>
    <g id="ytick_5">
     <g id="line2d_27">
      <path d="M 43.78125 199.748571 
L 490.18125 199.748571 
" clip-path="url(#p2270249dc8)" style="fill: none; stroke: #b0b0b0; stroke-width: 0.8; stroke-linecap: square"/>
     </g>
     <g id="line2d_28">
      <g>
       <use xlink:href="#m93e3f340f4" x="43.78125" y="199.748571" style="stroke: #000000; stroke-width: 0.8"/>
      </g>
     </g>
     <g id="text_15">
      <!-- 0.8 -->
      <g transform="translate(20.878125 203.54779) scale(0.1 -0.1)">
       <defs>
        <path id="DejaVuSans-38" d="M 2034 2216 
Q 1584 2216 1326 1975 
Q 1069 1734 1069 1313 
Q 1069 891 1326 650 
Q 1584 409 2034 409 
Q 2484 409 2743 651 
Q 3003 894 3003 1313 
Q 3003 1734 2745 1975 
Q 2488 2216 2034 2216 
z
M 1403 2484 
Q 997 2584 770 2862 
Q 544 3141 544 3541 
Q 544 4100 942 4425 
Q 1341 4750 2034 4750 
Q 2731 4750 3128 4425 
Q 3525 4100 3525 3541 
Q 3525 3141 3298 2862 
Q 3072 2584 2669 2484 
Q 3125 2378 3379 2068 
Q 3634 1759 3634 1313 
Q 3634 634 3220 271 
Q 2806 -91 2034 -91 
Q 1263 -91 848 271 
Q 434 634 434 1313 
Q 434 1759 690 2068 
Q 947 2378 1403 2484 
z
M 1172 3481 
Q 1172 3119 1398 2916 
Q 1625 2713 2034 2713 
Q 2441 2713 2670 2916 
Q 2900 3119 2900 3481 
Q 2900 3844 2670 4047 
Q 2441 4250 2034 4250 
Q 1625 4250 1398 4047 
Q 1172 3844 1172 3481 
z
" transform="scale(0.015625)"/>
       </defs>
       <use xlink:href="#DejaVuSans-30"/>
       <use xlink:href="#DejaVuSans-2e" transform="translate(63.623047 0)"/>
       <use xlink:href="#DejaVuSans-38" transform="translate(95.410156 0)"/>
      </g>
     </g>
    </g>
    <g id="ytick_6">
     <g id="line2d_29">
      <path d="M 43.78125 154.491429 
L 490.18125 154.491429 
" clip-path="url(#p2270249dc8)" style="fill: none; stroke: #b0b0b0; stroke-width: 0.8; stroke-linecap: square"/>
     </g>
     <g id="line2d_30">
      <g>
       <use xlink:href="#m93e3f340f4" x="43.78125" y="154.491429" style="stroke: #000000; stroke-width: 0.8"/>
      </g>
     </g>
     <g id="text_16">
      <!-- 1.0 -->
      <g transform="translate(20.878125 158.290647) scale(0.1 -0.1)">
       <use xlink:href="#DejaVuSans-31"/>
       <use xlink:href="#DejaVuSans-2e" transform="translate(63.623047 0)"/>
       <use xlink:href="#DejaVuSans-30" transform="translate(95.410156 0)"/>
      </g>
     </g>
    </g>
    <g id="ytick_7">
     <g id="line2d_31">
      <path d="M 43.78125 109.234286 
L 490.18125 109.234286 
" clip-path="url(#p2270249dc8)" style="fill: none; stroke: #b0b0b0; stroke-width: 0.8; stroke-linecap: square"/>
     </g>
     <g id="line2d_32">
      <g>
       <use xlink:href="#m93e3f340f4" x="43.78125" y="109.234286" style="stroke: #000000; stroke-width: 0.8"/>
      </g>
     </g>
     <g id="text_17">
      <!-- 1.2 -->
      <g transform="translate(20.878125 113.033504) scale(0.1 -0.1)">
       <use xlink:href="#DejaVuSans-31"/>
       <use xlink:href="#DejaVuSans-2e" transform="translate(63.623047 0)"/>
       <use xlink:href="#DejaVuSans-32" transform="translate(95.410156 0)"/>
      </g>
     </g>
    </g>
    <g id="ytick_8">
     <g id="line2d_33">
      <path d="M 43.78125 63.977143 
L 490.18125 63.977143 
" clip-path="url(#p2270249dc8)" style="fill: none; stroke: #b0b0b0; stroke-width: 0.8; stroke-linecap: square"/>
     </g>
     <g id="line2d_34">
      <g>
       <use xlink:href="#m93e3f340f4" x="43.78125" y="63.977143" style="stroke: #000000; stroke-width: 0.8"/>
      </g>
     </g>
     <g id="text_18">
      <!-- 1.4 -->
      <g transform="translate(20.878125 67.776362) scale(0.1 -0.1)">
       <use xlink:href="#DejaVuSans-31"/>
       <use xlink:href="#DejaVuSans-2e" transform="translate(63.623047 0)"/>
       <use xlink:href="#DejaVuSans-34" transform="translate(95.410156 0)"/>
      </g>
     </g>
    </g>
    <g id="text_19">
     <!-- maximum principal log strain (cm/cm) -->
     <g transform="translate(14.798438 312.511406) rotate(-90) scale(0.1 -0.1)">
      <defs>
       <path id="DejaVuSans-61" d="M 2194 1759 
Q 1497 1759 1228 1600 
Q 959 1441 959 1056 
Q 959 750 1161 570 
Q 1363 391 1709 391 
Q 2188 391 2477 730 
Q 2766 1069 2766 1631 
L 2766 1759 
L 2194 1759 
z
M 3341 1997 
L 3341 0 
L 2766 0 
L 2766 531 
Q 2569 213 2275 61 
Q 1981 -91 1556 -91 
Q 1019 -91 701 211 
Q 384 513 384 1019 
Q 384 1609 779 1909 
Q 1175 2209 1959 2209 
L 2766 2209 
L 2766 2266 
Q 2766 2663 2505 2880 
Q 2244 3097 1772 3097 
Q 1472 3097 1187 3025 
Q 903 2953 641 2809 
L 641 3341 
Q 956 3463 1253 3523 
Q 1550 3584 1831 3584 
Q 2591 3584 2966 3190 
Q 3341 2797 3341 1997 
z
" transform="scale(0.015625)"/>
       <path id="DejaVuSans-78" d="M 3513 3500 
L 2247 1797 
L 3578 0 
L 2900 0 
L 1881 1375 
L 863 0 
L 184 0 
L 1544 1831 
L 300 3500 
L 978 3500 
L 1906 2253 
L 2834 3500 
L 3513 3500 
z
" transform="scale(0.015625)"/>
       <path id="DejaVuSans-75" d="M 544 1381 
L 544 3500 
L 1119 3500 
L 1119 1403 
Q 1119 906 1312 657 
Q 1506 409 1894 409 
Q 2359 409 2629 706 
Q 2900 1003 2900 1516 
L 2900 3500 
L 3475 3500 
L 3475 0 
L 2900 0 
L 2900 538 
Q 2691 219 2414 64 
Q 2138 -91 1772 -91 
Q 1169 -91 856 284 
Q 544 659 544 1381 
z
M 1991 3584 
L 1991 3584 
z
" transform="scale(0.015625)"/>
       <path id="DejaVuSans-70" d="M 1159 525 
L 1159 -1331 
L 581 -1331 
L 581 3500 
L 1159 3500 
L 1159 2969 
Q 1341 3281 1617 3432 
Q 1894 3584 2278 3584 
Q 2916 3584 3314 3078 
Q 3713 2572 3713 1747 
Q 3713 922 3314 415 
Q 2916 -91 2278 -91 
Q 1894 -91 1617 61 
Q 1341 213 1159 525 
z
M 3116 1747 
Q 3116 2381 2855 2742 
Q 2594 3103 2138 3103 
Q 1681 3103 1420 2742 
Q 1159 2381 1159 1747 
Q 1159 1113 1420 752 
Q 1681 391 2138 391 
Q 2594 391 2855 752 
Q 3116 1113 3116 1747 
z
" transform="scale(0.015625)"/>
       <path id="DejaVuSans-72" d="M 2631 2963 
Q 2534 3019 2420 3045 
Q 2306 3072 2169 3072 
Q 1681 3072 1420 2755 
Q 1159 2438 1159 1844 
L 1159 0 
L 581 0 
L 581 3500 
L 1159 3500 
L 1159 2956 
Q 1341 3275 1631 3429 
Q 1922 3584 2338 3584 
Q 2397 3584 2469 3576 
Q 2541 3569 2628 3553 
L 2631 2963 
z
" transform="scale(0.015625)"/>
       <path id="DejaVuSans-6e" d="M 3513 2113 
L 3513 0 
L 2938 0 
L 2938 2094 
Q 2938 2591 2744 2837 
Q 2550 3084 2163 3084 
Q 1697 3084 1428 2787 
Q 1159 2491 1159 1978 
L 1159 0 
L 581 0 
L 581 3500 
L 1159 3500 
L 1159 2956 
Q 1366 3272 1645 3428 
Q 1925 3584 2291 3584 
Q 2894 3584 3203 3211 
Q 3513 2838 3513 2113 
z
" transform="scale(0.015625)"/>
       <path id="DejaVuSans-63" d="M 3122 3366 
L 3122 2828 
Q 2878 2963 2633 3030 
Q 2388 3097 2138 3097 
Q 1578 3097 1268 2742 
Q 959 2388 959 1747 
Q 959 1106 1268 751 
Q 1578 397 2138 397 
Q 2388 397 2633 464 
Q 2878 531 3122 666 
L 3122 134 
Q 2881 22 2623 -34 
Q 2366 -91 2075 -91 
Q 1284 -91 818 406 
Q 353 903 353 1747 
Q 353 2603 823 3093 
Q 1294 3584 2113 3584 
Q 2378 3584 2631 3529 
Q 2884 3475 3122 3366 
z
" transform="scale(0.015625)"/>
       <path id="DejaVuSans-6c" d="M 603 4863 
L 1178 4863 
L 1178 0 
L 603 0 
L 603 4863 
z
" transform="scale(0.015625)"/>
       <path id="DejaVuSans-6f" d="M 1959 3097 
Q 1497 3097 1228 2736 
Q 959 2375 959 1747 
Q 959 1119 1226 758 
Q 1494 397 1959 397 
Q 2419 397 2687 759 
Q 2956 1122 2956 1747 
Q 2956 2369 2687 2733 
Q 2419 3097 1959 3097 
z
M 1959 3584 
Q 2709 3584 3137 3096 
Q 3566 2609 3566 1747 
Q 3566 888 3137 398 
Q 2709 -91 1959 -91 
Q 1206 -91 779 398 
Q 353 888 353 1747 
Q 353 2609 779 3096 
Q 1206 3584 1959 3584 
z
" transform="scale(0.015625)"/>
       <path id="DejaVuSans-67" d="M 2906 1791 
Q 2906 2416 2648 2759 
Q 2391 3103 1925 3103 
Q 1463 3103 1205 2759 
Q 947 2416 947 1791 
Q 947 1169 1205 825 
Q 1463 481 1925 481 
Q 2391 481 2648 825 
Q 2906 1169 2906 1791 
z
M 3481 434 
Q 3481 -459 3084 -895 
Q 2688 -1331 1869 -1331 
Q 1566 -1331 1297 -1286 
Q 1028 -1241 775 -1147 
L 775 -588 
Q 1028 -725 1275 -790 
Q 1522 -856 1778 -856 
Q 2344 -856 2625 -561 
Q 2906 -266 2906 331 
L 2906 616 
Q 2728 306 2450 153 
Q 2172 0 1784 0 
Q 1141 0 747 490 
Q 353 981 353 1791 
Q 353 2603 747 3093 
Q 1141 3584 1784 3584 
Q 2172 3584 2450 3431 
Q 2728 3278 2906 2969 
L 2906 3500 
L 3481 3500 
L 3481 434 
z
" transform="scale(0.015625)"/>
       <path id="DejaVuSans-2f" d="M 1625 4666 
L 2156 4666 
L 531 -594 
L 0 -594 
L 1625 4666 
z
" transform="scale(0.015625)"/>
      </defs>
      <use xlink:href="#DejaVuSans-6d"/>
      <use xlink:href="#DejaVuSans-61" transform="translate(97.412109 0)"/>
      <use xlink:href="#DejaVuSans-78" transform="translate(158.691406 0)"/>
      <use xlink:href="#DejaVuSans-69" transform="translate(217.871094 0)"/>
      <use xlink:href="#DejaVuSans-6d" transform="translate(245.654297 0)"/>
      <use xlink:href="#DejaVuSans-75" transform="translate(343.066406 0)"/>
      <use xlink:href="#DejaVuSans-6d" transform="translate(406.445312 0)"/>
      <use xlink:href="#DejaVuSans-20" transform="translate(503.857422 0)"/>
      <use xlink:href="#DejaVuSans-70" transform="translate(535.644531 0)"/>
      <use xlink:href="#DejaVuSans-72" transform="translate(599.121094 0)"/>
      <use xlink:href="#DejaVuSans-69" transform="translate(640.234375 0)"/>
      <use xlink:href="#DejaVuSans-6e" transform="translate(668.017578 0)"/>
      <use xlink:href="#DejaVuSans-63" transform="translate(731.396484 0)"/>
      <use xlink:href="#DejaVuSans-69" transform="translate(786.376953 0)"/>
      <use xlink:href="#DejaVuSans-70" transform="translate(814.160156 0)"/>
      <use xlink:href="#DejaVuSans-61" transform="translate(877.636719 0)"/>
      <use xlink:href="#DejaVuSans-6c" transform="translate(938.916016 0)"/>
      <use xlink:href="#DejaVuSans-20" transform="translate(966.699219 0)"/>
      <use xlink:href="#DejaVuSans-6c" transform="translate(998.486328 0)"/>
      <use xlink:href="#DejaVuSans-6f" transform="translate(1026.269531 0)"/>
      <use xlink:href="#DejaVuSans-67" transform="translate(1087.451172 0)"/>
      <use xlink:href="#DejaVuSans-20" transform="translate(1150.927734 0)"/>
      <use xlink:href="#DejaVuSans-73" transform="translate(1182.714844 0)"/>
      <use xlink:href="#DejaVuSans-74" transform="translate(1234.814453 0)"/>
      <use xlink:href="#DejaVuSans-72" transform="translate(1274.023438 0)"/>
      <use xlink:href="#DejaVuSans-61" transform="translate(1315.136719 0)"/>
      <use xlink:href="#DejaVuSans-69" transform="translate(1376.416016 0)"/>
      <use xlink:href="#DejaVuSans-6e" transform="translate(1404.199219 0)"/>
      <use xlink:href="#DejaVuSans-20" transform="translate(1467.578125 0)"/>
      <use xlink:href="#DejaVuSans-28" transform="translate(1499.365234 0)"/>
      <use xlink:href="#DejaVuSans-63" transform="translate(1538.378906 0)"/>
      <use xlink:href="#DejaVuSans-6d" transform="translate(1593.359375 0)"/>
      <use xlink:href="#DejaVuSans-2f" transform="translate(1690.771484 0)"/>
      <use xlink:href="#DejaVuSans-63" transform="translate(1724.462891 0)"/>
      <use xlink:href="#DejaVuSans-6d" transform="translate(1779.443359 0)"/>
      <use xlink:href="#DejaVuSans-29" transform="translate(1876.855469 0)"/>
     </g>
    </g>
   </g>
   <g id="line2d_35">
    <path d="M 64.072159 380.777143 
L 69.169662 380.777137 
L 74.23129 380.773534 
L 79.292898 380.724605 
L 84.390461 380.52301 
L 89.452028 380.043658 
L 94.513595 379.189721 
L 99.610672 377.934338 
L 104.671427 376.361675 
L 109.731169 374.553154 
L 114.825201 372.573109 
L 119.88129 370.521693 
L 124.970047 368.423572 
L 130.018425 366.338032 
L 135.096022 364.242649 
L 140.165503 362.146542 
L 145.260956 360.028847 
L 150.309131 357.917986 
L 155.414527 355.779813 
L 160.469601 353.684633 
L 165.543952 351.642178 
L 170.601258 349.714224 
L 175.675203 347.938786 
L 180.76538 346.362933 
L 185.836281 345.029431 
L 190.923415 343.952311 
L 195.992693 343.159632 
L 201.046144 342.666103 
L 206.119886 342.485301 
L 211.182467 342.636007 
L 216.271225 343.139266 
L 221.355923 344.004809 
L 226.406534 345.189415 
L 231.495899 346.597817 
L 236.559699 348.065506 
L 241.635673 349.489975 
L 246.691761 350.814199 
L 251.763677 352.071216 
L 256.842289 353.307641 
L 261.918059 354.55357 
L 266.987337 355.829143 
L 272.084414 357.150199 
L 277.144966 358.474559 
L 282.205519 359.7657 
L 287.302595 360.988163 
L 292.369235 362.094089 
L 297.439934 363.076984 
L 302.510632 363.940241 
L 307.587417 364.698479 
L 312.666232 365.377608 
L 317.718668 366.002111 
L 322.811686 366.605027 
L 327.87021 367.200204 
L 332.928734 367.803097 
L 338.02581 368.416195 
L 343.090421 369.019925 
L 348.15909 369.608879 
L 353.229788 370.180183 
L 358.306574 370.723088 
L 363.387417 371.21983 
L 368.435795 371.656154 
L 373.526785 372.037966 
L 378.587337 372.368162 
L 383.656006 372.659935 
L 388.730763 372.923603 
L 393.813635 373.170322 
L 398.902595 373.410909 
L 403.967206 373.648849 
L 409.037905 373.884978 
L 414.120777 374.117509 
L 419.177272 374.33893 
L 424.243912 374.527675 
L 429.320697 374.657811 
L 434.407628 374.726421 
L 439.468181 374.751177 
L 444.538879 374.760658 
L 449.619723 374.784509 
L 454.674188 374.83884 
L 459.765177 374.924263 
L 464.821672 375.031341 
L 469.912661 375.154486 
" clip-path="url(#p2270249dc8)" style="fill: none; stroke: #1f77b4; stroke-width: 1.5; stroke-linecap: square"/>
   </g>
   <g id="line2d_36">
    <path d="M 64.072159 380.777143 
L 69.151724 380.777143 
L 74.23129 380.777082 
L 79.292898 380.775232 
L 84.372402 380.766507 
L 89.452028 380.700453 
L 94.51319 380.472381 
L 99.591801 380.286372 
L 104.66879 380.611208 
L 109.743343 379.683977 
L 114.814853 377.254485 
L 119.880478 373.558402 
L 124.954017 368.618495 
L 130.031411 362.547566 
L 135.091964 355.529993 
L 140.168344 347.729698 
L 145.23681 339.432933 
L 150.318059 330.856251 
L 155.381859 322.238839 
L 160.468587 313.601739 
L 165.534415 305.039993 
L 170.604302 296.512416 
L 175.685957 288.010409 
L 180.755235 279.593033 
L 185.821063 271.294683 
L 190.892979 263.175099 
L 195.966112 255.354213 
L 201.038433 247.96621 
L 206.110958 241.136455 
L 211.187134 234.968359 
L 216.259862 229.555152 
L 221.337459 224.962683 
L 226.404099 221.272416 
L 231.473174 218.545447 
L 236.54651 216.866859 
L 241.627759 216.270823 
L 246.702921 216.586491 
L 251.774431 217.526482 
L 256.840868 218.879671 
L 261.912378 220.520469 
L 266.985308 222.357909 
L 272.066152 224.345829 
L 277.134821 226.467031 
L 282.207548 228.763831 
L 287.284334 231.309545 
L 292.35909 234.151015 
L 297.427759 237.303175 
L 302.494399 240.750638 
L 307.575243 244.464665 
L 312.641883 248.367189 
L 317.710552 252.405257 
L 322.783279 256.515058 
L 327.864123 260.644546 
L 332.940908 264.768151 
L 338.009577 268.899675 
L 343.072159 273.059486 
L 348.157061 277.290576 
L 353.219643 281.555157 
L 358.300486 285.879024 
L 363.371185 290.207191 
L 368.443912 294.514992 
L 373.516639 298.75717 
L 378.589366 302.892994 
L 383.660065 306.892594 
L 388.742937 310.758686 
L 393.80349 314.467735 
L 398.886363 318.057305 
L 403.957061 321.518571 
L 409.031817 324.88525 
L 414.106574 328.162999 
L 419.179301 331.347518 
L 424.24797 334.42704 
L 429.322726 337.398171 
L 434.393425 340.251861 
L 439.456006 342.983355 
L 444.528734 345.598087 
L 449.609577 348.101938 
L 454.682305 350.492873 
L 459.746915 352.768629 
L 464.819643 354.947307 
L 469.902515 357.045881 
" clip-path="url(#p2270249dc8)" style="fill: none; stroke: #ff7f0e; stroke-width: 1.5; stroke-linecap: square"/>
   </g>
   <g id="line2d_37">
    <path d="M 64.072159 380.777143 
L 69.148133 380.777143 
L 74.224107 380.777136 
L 79.292898 380.776631 
L 84.36875 380.772429 
L 89.437419 380.760646 
L 94.511972 380.746384 
L 99.584294 380.773619 
L 104.659659 380.58639 
L 109.731777 380.044149 
L 114.801258 379.462185 
L 119.875 379.277584 
L 124.945292 379.781271 
L 130.024513 380.435436 
L 135.093182 378.487788 
L 140.163677 376.030732 
L 145.236201 373.317136 
L 150.311972 370.579396 
L 155.387134 368.191358 
L 160.455601 366.503606 
L 165.528937 365.699386 
L 170.604099 365.858556 
L 175.676623 367.0218 
L 180.747727 369.270854 
L 185.819034 372.725716 
L 190.894805 377.487333 
L 195.9653 377.884284 
L 201.040259 370.414162 
L 206.108929 361.601601 
L 211.185511 351.533109 
L 216.257427 340.341017 
L 221.330763 328.122267 
L 226.402475 315.083232 
L 231.473174 301.466263 
L 236.545901 287.496288 
L 241.620454 273.388958 
L 246.692167 259.428939 
L 251.764286 246.203218 
L 256.839042 234.250128 
L 261.911363 223.74323 
L 266.983279 214.630704 
L 272.053977 206.761845 
L 277.126705 199.976215 
L 282.199432 194.103422 
L 287.274188 188.96832 
L 292.344886 184.463424 
L 297.419643 180.525826 
L 302.49237 177.12792 
L 307.563068 174.252734 
L 312.637825 171.861346 
L 317.708523 169.917778 
L 322.783279 168.353918 
L 327.856006 167.089886 
L 332.926705 166.078841 
L 337.999432 165.280279 
L 343.074188 164.665687 
L 348.146915 164.228729 
L 353.217614 163.962165 
L 358.290341 163.855584 
L 363.363068 163.876402 
L 368.435795 163.983662 
L 373.510552 164.149529 
L 378.58125 164.353186 
L 383.656006 164.591691 
L 388.728734 164.876133 
L 393.801461 165.221445 
L 398.874188 165.637131 
L 403.944886 166.108485 
L 409.019643 166.611065 
L 414.090341 167.127449 
L 419.165097 167.644738 
L 424.237825 168.171531 
L 429.308523 168.741093 
L 434.383279 169.389401 
L 439.456006 170.148816 
L 444.528734 171.05328 
L 449.599432 172.123159 
L 454.674188 173.368409 
L 459.744886 174.78179 
L 464.819643 176.351307 
L 469.89237 178.066101 
" clip-path="url(#p2270249dc8)" style="fill: none; stroke: #2ca02c; stroke-width: 1.5; stroke-linecap: square"/>
   </g>
   <g id="line2d_38">
    <path d="M 64.072159 380.777143 
L 69.151278 380.777143 
L 74.219095 380.777143 
L 79.298214 380.77714 
L 84.366112 380.777126 
L 89.445129 380.777099 
L 94.512987 380.777082 
L 99.592004 380.776933 
L 104.659862 380.776233 
L 109.727719 380.774316 
L 114.806737 380.76985 
L 119.874594 380.760551 
L 124.953814 380.742682 
L 130.021469 380.710883 
L 135.100689 380.657544 
L 140.168547 380.573256 
L 145.236201 380.445849 
L 150.315219 380.259795 
L 155.383076 379.99712 
L 160.462094 379.633131 
L 165.529748 379.140289 
L 170.608766 378.480343 
L 175.676217 377.612288 
L 180.755235 376.479004 
L 185.822686 375.021611 
L 190.901501 373.156541 
L 195.968953 370.799685 
L 201.036404 367.836112 
L 206.115016 364.122016 
L 211.182467 359.509182 
L 216.261079 353.773111 
L 221.328531 346.685163 
L 226.407345 337.895774 
L 231.474797 327.058725 
L 236.553611 313.693159 
L 241.621063 297.455575 
L 246.694399 278.064247 
L 251.769561 255.650647 
L 256.846144 230.827557 
L 261.911972 204.742018 
L 266.983279 178.668473 
L 272.062094 154.007177 
L 277.134821 132.068777 
L 282.205519 113.875406 
L 287.280275 100.194171 
L 292.350974 91.516114 
L 297.417614 87.852549 
L 302.49237 88.757691 
L 307.563068 93.34224 
L 312.635795 100.393303 
L 317.716639 108.571269 
L 322.785308 116.554629 
L 327.862094 123.336411 
L 332.934821 128.2536 
L 338.007548 131.061806 
L 343.074188 131.815337 
L 348.150974 130.749531 
L 353.219643 128.20608 
L 358.300486 124.556091 
L 363.363068 120.22272 
L 368.443912 115.563497 
L 373.508523 111.00384 
L 378.585308 106.946537 
L 383.658035 103.934674 
L 388.732792 102.574697 
L 393.80349 103.396114 
L 398.878246 106.53696 
L 403.948945 111.492617 
L 409.019643 117.124869 
L 414.094399 121.894971 
L 419.171185 124.239291 
L 424.241883 123.162171 
L 429.31461 118.785806 
L 434.391395 112.359291 
L 439.462094 105.638606 
L 444.528734 100.239429 
L 449.60349 97.451589 
L 454.678246 98.277531 
L 459.744886 103.278446 
L 464.823701 112.409074 
L 469.894399 124.809531 
" clip-path="url(#p2270249dc8)" style="fill: none; stroke: #d62728; stroke-width: 1.5; stroke-linecap: square"/>
   </g>
   <g id="line2d_39">
    <path d="M 64.072159 380.777143 
L 69.146936 380.777143 
L 74.221733 380.777143 
L 79.290544 380.777142 
L 84.3653 380.777135 
L 89.440057 380.777113 
L 94.508929 380.777066 
L 99.583685 380.776985 
L 104.658441 380.776871 
L 109.727313 380.776726 
L 114.80207 380.776554 
L 119.876826 380.776368 
L 124.945698 380.776204 
L 130.020454 380.776153 
L 135.095211 380.775872 
L 140.164083 380.773595 
L 145.238839 380.768502 
L 150.313595 380.758484 
L 155.382467 380.740622 
L 160.457224 380.711188 
L 165.53198 380.665701 
L 170.600852 380.598684 
L 175.675609 380.50279 
L 180.745495 380.36862 
L 185.81944 380.182887 
L 190.891355 379.928062 
L 195.967329 379.579899 
L 201.039651 379.107138 
L 206.112987 378.467558 
L 211.183076 377.606993 
L 216.257833 376.451691 
L 221.328937 374.907586 
L 226.401867 372.844493 
L 231.476623 370.088741 
L 236.548742 366.413589 
L 241.620251 361.518464 
L 246.692776 355.000258 
L 251.765097 346.283733 
L 256.838433 334.493342 
L 261.909131 318.387682 
L 266.98125 296.532782 
L 272.058035 268.080069 
L 277.128734 233.838741 
L 282.20349 196.343198 
L 287.276217 159.087744 
L 292.344886 125.160274 
L 297.421672 96.845143 
L 302.490341 75.866194 
L 307.565097 63.083314 
L 312.637825 58.338103 
L 317.710552 60.121234 
L 322.783279 65.898309 
L 327.858035 72.922217 
L 332.930763 79.074926 
L 337.999432 83.417349 
L 343.074188 86.035474 
L 348.148945 87.41808 
L 353.219643 88.160297 
L 358.290341 88.62192 
L 363.365097 88.556297 
L 368.439854 87.1488 
L 373.508523 83.967223 
L 378.583279 79.758309 
L 383.656006 76.072114 
L 388.726705 74.28672 
L 393.801461 75.239383 
L 398.874188 79.061349 
L 403.946915 84.879154 
L 409.019643 90.83952 
L 414.09237 94.742949 
L 419.163068 95.095954 
L 424.237825 91.4256 
L 429.312581 83.992114 
L 434.383279 74.436069 
L 439.453977 65.988823 
L 444.528734 61.510629 
L 449.601461 62.015246 
L 454.676217 66.73104 
L 459.748945 74.074011 
L 464.819643 81.93744 
L 469.890341 87.662469 
" clip-path="url(#p2270249dc8)" style="fill: none; stroke: #9467bd; stroke-width: 1.5; stroke-linecap: square"/>
   </g>
   <g id="patch_3">
    <path d="M 43.78125 383.04 
L 43.78125 50.4 
" style="fill: none; stroke: #000000; stroke-width: 0.8; stroke-linejoin: miter; stroke-linecap: square"/>
   </g>
   <g id="patch_4">
    <path d="M 490.18125 383.04 
L 490.18125 50.4 
" style="fill: none; stroke: #000000; stroke-width: 0.8; stroke-linejoin: miter; stroke-linecap: square"/>
   </g>
   <g id="patch_5">
    <path d="M 43.78125 383.04 
L 490.18125 383.04 
" style="fill: none; stroke: #000000; stroke-width: 0.8; stroke-linejoin: miter; stroke-linecap: square"/>
   </g>
   <g id="patch_6">
    <path d="M 43.78125 50.4 
L 490.18125 50.4 
" style="fill: none; stroke: #000000; stroke-width: 0.8; stroke-linejoin: miter; stroke-linecap: square"/>
   </g>
   <g id="text_20">
    <!-- log_strain_t10.svg created 2025-01-08 10:26:27 EST-0500 by chovey on s1088757 -->
    <g style="fill: #696969" transform="translate(101.01875 44.4) scale(0.08 -0.08)">
     <defs>
      <path id="DejaVuSans-5f" d="M 3263 -1063 
L 3263 -1509 
L -63 -1509 
L -63 -1063 
L 3263 -1063 
z
" transform="scale(0.015625)"/>
      <path id="DejaVuSans-76" d="M 191 3500 
L 800 3500 
L 1894 563 
L 2988 3500 
L 3597 3500 
L 2284 0 
L 1503 0 
L 191 3500 
z
" transform="scale(0.015625)"/>
      <path id="DejaVuSans-64" d="M 2906 2969 
L 2906 4863 
L 3481 4863 
L 3481 0 
L 2906 0 
L 2906 525 
Q 2725 213 2448 61 
Q 2172 -91 1784 -91 
Q 1150 -91 751 415 
Q 353 922 353 1747 
Q 353 2572 751 3078 
Q 1150 3584 1784 3584 
Q 2172 3584 2448 3432 
Q 2725 3281 2906 2969 
z
M 947 1747 
Q 947 1113 1208 752 
Q 1469 391 1925 391 
Q 2381 391 2643 752 
Q 2906 1113 2906 1747 
Q 2906 2381 2643 2742 
Q 2381 3103 1925 3103 
Q 1469 3103 1208 2742 
Q 947 2381 947 1747 
z
" transform="scale(0.015625)"/>
      <path id="DejaVuSans-2d" d="M 313 2009 
L 1997 2009 
L 1997 1497 
L 313 1497 
L 313 2009 
z
" transform="scale(0.015625)"/>
      <path id="DejaVuSans-3a" d="M 750 794 
L 1409 794 
L 1409 0 
L 750 0 
L 750 794 
z
M 750 3309 
L 1409 3309 
L 1409 2516 
L 750 2516 
L 750 3309 
z
" transform="scale(0.015625)"/>
      <path id="DejaVuSans-45" d="M 628 4666 
L 3578 4666 
L 3578 4134 
L 1259 4134 
L 1259 2753 
L 3481 2753 
L 3481 2222 
L 1259 2222 
L 1259 531 
L 3634 531 
L 3634 0 
L 628 0 
L 628 4666 
z
" transform="scale(0.015625)"/>
      <path id="DejaVuSans-53" d="M 3425 4513 
L 3425 3897 
Q 3066 4069 2747 4153 
Q 2428 4238 2131 4238 
Q 1616 4238 1336 4038 
Q 1056 3838 1056 3469 
Q 1056 3159 1242 3001 
Q 1428 2844 1947 2747 
L 2328 2669 
Q 3034 2534 3370 2195 
Q 3706 1856 3706 1288 
Q 3706 609 3251 259 
Q 2797 -91 1919 -91 
Q 1588 -91 1214 -16 
Q 841 59 441 206 
L 441 856 
Q 825 641 1194 531 
Q 1563 422 1919 422 
Q 2459 422 2753 634 
Q 3047 847 3047 1241 
Q 3047 1584 2836 1778 
Q 2625 1972 2144 2069 
L 1759 2144 
Q 1053 2284 737 2584 
Q 422 2884 422 3419 
Q 422 4038 858 4394 
Q 1294 4750 2059 4750 
Q 2388 4750 2728 4690 
Q 3069 4631 3425 4513 
z
" transform="scale(0.015625)"/>
      <path id="DejaVuSans-54" d="M -19 4666 
L 3928 4666 
L 3928 4134 
L 2272 4134 
L 2272 0 
L 1638 0 
L 1638 4134 
L -19 4134 
L -19 4666 
z
" transform="scale(0.015625)"/>
      <path id="DejaVuSans-62" d="M 3116 1747 
Q 3116 2381 2855 2742 
Q 2594 3103 2138 3103 
Q 1681 3103 1420 2742 
Q 1159 2381 1159 1747 
Q 1159 1113 1420 752 
Q 1681 391 2138 391 
Q 2594 391 2855 752 
Q 3116 1113 3116 1747 
z
M 1159 2969 
Q 1341 3281 1617 3432 
Q 1894 3584 2278 3584 
Q 2916 3584 3314 3078 
Q 3713 2572 3713 1747 
Q 3713 922 3314 415 
Q 2916 -91 2278 -91 
Q 1894 -91 1617 61 
Q 1341 213 1159 525 
L 1159 0 
L 581 0 
L 581 4863 
L 1159 4863 
L 1159 2969 
z
" transform="scale(0.015625)"/>
      <path id="DejaVuSans-79" d="M 2059 -325 
Q 1816 -950 1584 -1140 
Q 1353 -1331 966 -1331 
L 506 -1331 
L 506 -850 
L 844 -850 
Q 1081 -850 1212 -737 
Q 1344 -625 1503 -206 
L 1606 56 
L 191 3500 
L 800 3500 
L 1894 763 
L 2988 3500 
L 3597 3500 
L 2059 -325 
z
" transform="scale(0.015625)"/>
      <path id="DejaVuSans-68" d="M 3513 2113 
L 3513 0 
L 2938 0 
L 2938 2094 
Q 2938 2591 2744 2837 
Q 2550 3084 2163 3084 
Q 1697 3084 1428 2787 
Q 1159 2491 1159 1978 
L 1159 0 
L 581 0 
L 581 4863 
L 1159 4863 
L 1159 2956 
Q 1366 3272 1645 3428 
Q 1925 3584 2291 3584 
Q 2894 3584 3203 3211 
Q 3513 2838 3513 2113 
z
" transform="scale(0.015625)"/>
     </defs>
     <use xlink:href="#DejaVuSans-6c"/>
     <use xlink:href="#DejaVuSans-6f" transform="translate(27.783203 0)"/>
     <use xlink:href="#DejaVuSans-67" transform="translate(88.964844 0)"/>
     <use xlink:href="#DejaVuSans-5f" transform="translate(152.441406 0)"/>
     <use xlink:href="#DejaVuSans-73" transform="translate(202.441406 0)"/>
     <use xlink:href="#DejaVuSans-74" transform="translate(254.541016 0)"/>
     <use xlink:href="#DejaVuSans-72" transform="translate(293.75 0)"/>
     <use xlink:href="#DejaVuSans-61" transform="translate(334.863281 0)"/>
     <use xlink:href="#DejaVuSans-69" transform="translate(396.142578 0)"/>
     <use xlink:href="#DejaVuSans-6e" transform="translate(423.925781 0)"/>
     <use xlink:href="#DejaVuSans-5f" transform="translate(487.304688 0)"/>
     <use xlink:href="#DejaVuSans-74" transform="translate(537.304688 0)"/>
     <use xlink:href="#DejaVuSans-31" transform="translate(576.513672 0)"/>
     <use xlink:href="#DejaVuSans-30" transform="translate(640.136719 0)"/>
     <use xlink:href="#DejaVuSans-2e" transform="translate(703.759766 0)"/>
     <use xlink:href="#DejaVuSans-73" transform="translate(735.546875 0)"/>
     <use xlink:href="#DejaVuSans-76" transform="translate(787.646484 0)"/>
     <use xlink:href="#DejaVuSans-67" transform="translate(846.826172 0)"/>
     <use xlink:href="#DejaVuSans-20" transform="translate(910.302734 0)"/>
     <use xlink:href="#DejaVuSans-63" transform="translate(942.089844 0)"/>
     <use xlink:href="#DejaVuSans-72" transform="translate(997.070312 0)"/>
     <use xlink:href="#DejaVuSans-65" transform="translate(1035.933594 0)"/>
     <use xlink:href="#DejaVuSans-61" transform="translate(1097.457031 0)"/>
     <use xlink:href="#DejaVuSans-74" transform="translate(1158.736328 0)"/>
     <use xlink:href="#DejaVuSans-65" transform="translate(1197.945312 0)"/>
     <use xlink:href="#DejaVuSans-64" transform="translate(1259.46875 0)"/>
     <use xlink:href="#DejaVuSans-20" transform="translate(1322.945312 0)"/>
     <use xlink:href="#DejaVuSans-32" transform="translate(1354.732422 0)"/>
     <use xlink:href="#DejaVuSans-30" transform="translate(1418.355469 0)"/>
     <use xlink:href="#DejaVuSans-32" transform="translate(1481.978516 0)"/>
     <use xlink:href="#DejaVuSans-35" transform="translate(1545.601562 0)"/>
     <use xlink:href="#DejaVuSans-2d" transform="translate(1609.224609 0)"/>
     <use xlink:href="#DejaVuSans-30" transform="translate(1645.308594 0)"/>
     <use xlink:href="#DejaVuSans-31" transform="translate(1708.931641 0)"/>
     <use xlink:href="#DejaVuSans-2d" transform="translate(1772.554688 0)"/>
     <use xlink:href="#DejaVuSans-30" transform="translate(1808.638672 0)"/>
     <use xlink:href="#DejaVuSans-38" transform="translate(1872.261719 0)"/>
     <use xlink:href="#DejaVuSans-20" transform="translate(1935.884766 0)"/>
     <use xlink:href="#DejaVuSans-31" transform="translate(1967.671875 0)"/>
     <use xlink:href="#DejaVuSans-30" transform="translate(2031.294922 0)"/>
     <use xlink:href="#DejaVuSans-3a" transform="translate(2094.917969 0)"/>
     <use xlink:href="#DejaVuSans-32" transform="translate(2128.609375 0)"/>
     <use xlink:href="#DejaVuSans-36" transform="translate(2192.232422 0)"/>
     <use xlink:href="#DejaVuSans-3a" transform="translate(2255.855469 0)"/>
     <use xlink:href="#DejaVuSans-32" transform="translate(2289.546875 0)"/>
     <use xlink:href="#DejaVuSans-37" transform="translate(2353.169922 0)"/>
     <use xlink:href="#DejaVuSans-20" transform="translate(2416.792969 0)"/>
     <use xlink:href="#DejaVuSans-45" transform="translate(2448.580078 0)"/>
     <use xlink:href="#DejaVuSans-53" transform="translate(2511.763672 0)"/>
     <use xlink:href="#DejaVuSans-54" transform="translate(2575.240234 0)"/>
     <use xlink:href="#DejaVuSans-2d" transform="translate(2627.199219 0)"/>
     <use xlink:href="#DejaVuSans-30" transform="translate(2663.283203 0)"/>
     <use xlink:href="#DejaVuSans-35" transform="translate(2726.90625 0)"/>
     <use xlink:href="#DejaVuSans-30" transform="translate(2790.529297 0)"/>
     <use xlink:href="#DejaVuSans-30" transform="translate(2854.152344 0)"/>
     <use xlink:href="#DejaVuSans-20" transform="translate(2917.775391 0)"/>
     <use xlink:href="#DejaVuSans-62" transform="translate(2949.5625 0)"/>
     <use xlink:href="#DejaVuSans-79" transform="translate(3013.039062 0)"/>
     <use xlink:href="#DejaVuSans-20" transform="translate(3072.21875 0)"/>
     <use xlink:href="#DejaVuSans-63" transform="translate(3104.005859 0)"/>
     <use xlink:href="#DejaVuSans-68" transform="translate(3158.986328 0)"/>
     <use xlink:href="#DejaVuSans-6f" transform="translate(3222.365234 0)"/>
     <use xlink:href="#DejaVuSans-76" transform="translate(3283.546875 0)"/>
     <use xlink:href="#DejaVuSans-65" transform="translate(3342.726562 0)"/>
     <use xlink:href="#DejaVuSans-79" transform="translate(3404.25 0)"/>
     <use xlink:href="#DejaVuSans-20" transform="translate(3463.429688 0)"/>
     <use xlink:href="#DejaVuSans-6f" transform="translate(3495.216797 0)"/>
     <use xlink:href="#DejaVuSans-6e" transform="translate(3556.398438 0)"/>
     <use xlink:href="#DejaVuSans-20" transform="translate(3619.777344 0)"/>
     <use xlink:href="#DejaVuSans-73" transform="translate(3651.564453 0)"/>
     <use xlink:href="#DejaVuSans-31" transform="translate(3703.664062 0)"/>
     <use xlink:href="#DejaVuSans-30" transform="translate(3767.287109 0)"/>
     <use xlink:href="#DejaVuSans-38" transform="translate(3830.910156 0)"/>
     <use xlink:href="#DejaVuSans-38" transform="translate(3894.533203 0)"/>
     <use xlink:href="#DejaVuSans-37" transform="translate(3958.15625 0)"/>
     <use xlink:href="#DejaVuSans-35" transform="translate(4021.779297 0)"/>
     <use xlink:href="#DejaVuSans-37" transform="translate(4085.402344 0)"/>
    </g>
   </g>
   <g id="legend_1">
    <g id="patch_7">
     <path d="M 50.78125 131.790625 
L 103.9625 131.790625 
Q 105.9625 131.790625 105.9625 129.790625 
L 105.9625 57.4 
Q 105.9625 55.4 103.9625 55.4 
L 50.78125 55.4 
Q 48.78125 55.4 48.78125 57.4 
L 48.78125 129.790625 
Q 48.78125 131.790625 50.78125 131.790625 
z
" style="fill: #ffffff; opacity: 0.8; stroke: #cccccc; stroke-linejoin: miter"/>
    </g>
    <g id="line2d_40">
     <path d="M 52.78125 63.498437 
L 62.78125 63.498437 
L 72.78125 63.498437 
" style="fill: none; stroke: #1f77b4; stroke-width: 1.5; stroke-linecap: square"/>
    </g>
    <g id="text_21">
     <!-- sr2 -->
     <g transform="translate(80.78125 66.998437) scale(0.1 -0.1)">
      <use xlink:href="#DejaVuSans-73"/>
      <use xlink:href="#DejaVuSans-72" transform="translate(52.099609 0)"/>
      <use xlink:href="#DejaVuSans-32" transform="translate(93.212891 0)"/>
     </g>
    </g>
    <g id="line2d_41">
     <path d="M 52.78125 78.176562 
L 62.78125 78.176562 
L 72.78125 78.176562 
" style="fill: none; stroke: #ff7f0e; stroke-width: 1.5; stroke-linecap: square"/>
    </g>
    <g id="text_22">
     <!-- sr3 -->
     <g transform="translate(80.78125 81.676562) scale(0.1 -0.1)">
      <defs>
       <path id="DejaVuSans-33" d="M 2597 2516 
Q 3050 2419 3304 2112 
Q 3559 1806 3559 1356 
Q 3559 666 3084 287 
Q 2609 -91 1734 -91 
Q 1441 -91 1130 -33 
Q 819 25 488 141 
L 488 750 
Q 750 597 1062 519 
Q 1375 441 1716 441 
Q 2309 441 2620 675 
Q 2931 909 2931 1356 
Q 2931 1769 2642 2001 
Q 2353 2234 1838 2234 
L 1294 2234 
L 1294 2753 
L 1863 2753 
Q 2328 2753 2575 2939 
Q 2822 3125 2822 3475 
Q 2822 3834 2567 4026 
Q 2313 4219 1838 4219 
Q 1578 4219 1281 4162 
Q 984 4106 628 3988 
L 628 4550 
Q 988 4650 1302 4700 
Q 1616 4750 1894 4750 
Q 2613 4750 3031 4423 
Q 3450 4097 3450 3541 
Q 3450 3153 3228 2886 
Q 3006 2619 2597 2516 
z
" transform="scale(0.015625)"/>
      </defs>
      <use xlink:href="#DejaVuSans-73"/>
      <use xlink:href="#DejaVuSans-72" transform="translate(52.099609 0)"/>
      <use xlink:href="#DejaVuSans-33" transform="translate(93.212891 0)"/>
     </g>
    </g>
    <g id="line2d_42">
     <path d="M 52.78125 92.854687 
L 62.78125 92.854687 
L 72.78125 92.854687 
" style="fill: none; stroke: #2ca02c; stroke-width: 1.5; stroke-linecap: square"/>
    </g>
    <g id="text_23">
     <!-- sr4 -->
     <g transform="translate(80.78125 96.354687) scale(0.1 -0.1)">
      <use xlink:href="#DejaVuSans-73"/>
      <use xlink:href="#DejaVuSans-72" transform="translate(52.099609 0)"/>
      <use xlink:href="#DejaVuSans-34" transform="translate(93.212891 0)"/>
     </g>
    </g>
    <g id="line2d_43">
     <path d="M 52.78125 107.532812 
L 62.78125 107.532812 
L 72.78125 107.532812 
" style="fill: none; stroke: #d62728; stroke-width: 1.5; stroke-linecap: square"/>
    </g>
    <g id="text_24">
     <!-- sr2c -->
     <g transform="translate(80.78125 111.032812) scale(0.1 -0.1)">
      <use xlink:href="#DejaVuSans-73"/>
      <use xlink:href="#DejaVuSans-72" transform="translate(52.099609 0)"/>
      <use xlink:href="#DejaVuSans-32" transform="translate(93.212891 0)"/>
      <use xlink:href="#DejaVuSans-63" transform="translate(156.835938 0)"/>
     </g>
    </g>
    <g id="line2d_44">
     <path d="M 52.78125 122.210938 
L 62.78125 122.210938 
L 72.78125 122.210938 
" style="fill: none; stroke: #9467bd; stroke-width: 1.5; stroke-linecap: square"/>
    </g>
    <g id="text_25">
     <!-- sr3c -->
     <g transform="translate(80.78125 125.710938) scale(0.1 -0.1)">
      <use xlink:href="#DejaVuSans-73"/>
      <use xlink:href="#DejaVuSans-72" transform="translate(52.099609 0)"/>
      <use xlink:href="#DejaVuSans-33" transform="translate(93.212891 0)"/>
      <use xlink:href="#DejaVuSans-63" transform="translate(156.835938 0)"/>
     </g>
    </g>
   </g>
  </g>
  <g id="text_26">
   <!-- Maximum Principal Log Strain at R=10-cm for Various Resolutions -->
   <g transform="translate(61.959375 16.318125) scale(0.12 -0.12)">
    <defs>
     <path id="DejaVuSans-4d" d="M 628 4666 
L 1569 4666 
L 2759 1491 
L 3956 4666 
L 4897 4666 
L 4897 0 
L 4281 0 
L 4281 4097 
L 3078 897 
L 2444 897 
L 1241 4097 
L 1241 0 
L 628 0 
L 628 4666 
z
" transform="scale(0.015625)"/>
     <path id="DejaVuSans-50" d="M 1259 4147 
L 1259 2394 
L 2053 2394 
Q 2494 2394 2734 2622 
Q 2975 2850 2975 3272 
Q 2975 3691 2734 3919 
Q 2494 4147 2053 4147 
L 1259 4147 
z
M 628 4666 
L 2053 4666 
Q 2838 4666 3239 4311 
Q 3641 3956 3641 3272 
Q 3641 2581 3239 2228 
Q 2838 1875 2053 1875 
L 1259 1875 
L 1259 0 
L 628 0 
L 628 4666 
z
" transform="scale(0.015625)"/>
     <path id="DejaVuSans-4c" d="M 628 4666 
L 1259 4666 
L 1259 531 
L 3531 531 
L 3531 0 
L 628 0 
L 628 4666 
z
" transform="scale(0.015625)"/>
     <path id="DejaVuSans-52" d="M 2841 2188 
Q 3044 2119 3236 1894 
Q 3428 1669 3622 1275 
L 4263 0 
L 3584 0 
L 2988 1197 
Q 2756 1666 2539 1819 
Q 2322 1972 1947 1972 
L 1259 1972 
L 1259 0 
L 628 0 
L 628 4666 
L 2053 4666 
Q 2853 4666 3247 4331 
Q 3641 3997 3641 3322 
Q 3641 2881 3436 2590 
Q 3231 2300 2841 2188 
z
M 1259 4147 
L 1259 2491 
L 2053 2491 
Q 2509 2491 2742 2702 
Q 2975 2913 2975 3322 
Q 2975 3731 2742 3939 
Q 2509 4147 2053 4147 
L 1259 4147 
z
" transform="scale(0.015625)"/>
     <path id="DejaVuSans-3d" d="M 678 2906 
L 4684 2906 
L 4684 2381 
L 678 2381 
L 678 2906 
z
M 678 1631 
L 4684 1631 
L 4684 1100 
L 678 1100 
L 678 1631 
z
" transform="scale(0.015625)"/>
     <path id="DejaVuSans-66" d="M 2375 4863 
L 2375 4384 
L 1825 4384 
Q 1516 4384 1395 4259 
Q 1275 4134 1275 3809 
L 1275 3500 
L 2222 3500 
L 2222 3053 
L 1275 3053 
L 1275 0 
L 697 0 
L 697 3053 
L 147 3053 
L 147 3500 
L 697 3500 
L 697 3744 
Q 697 4328 969 4595 
Q 1241 4863 1831 4863 
L 2375 4863 
z
" transform="scale(0.015625)"/>
     <path id="DejaVuSans-56" d="M 1831 0 
L 50 4666 
L 709 4666 
L 2188 738 
L 3669 4666 
L 4325 4666 
L 2547 0 
L 1831 0 
z
" transform="scale(0.015625)"/>
    </defs>
    <use xlink:href="#DejaVuSans-4d"/>
    <use xlink:href="#DejaVuSans-61" transform="translate(86.279297 0)"/>
    <use xlink:href="#DejaVuSans-78" transform="translate(147.558594 0)"/>
    <use xlink:href="#DejaVuSans-69" transform="translate(206.738281 0)"/>
    <use xlink:href="#DejaVuSans-6d" transform="translate(234.521484 0)"/>
    <use xlink:href="#DejaVuSans-75" transform="translate(331.933594 0)"/>
    <use xlink:href="#DejaVuSans-6d" transform="translate(395.3125 0)"/>
    <use xlink:href="#DejaVuSans-20" transform="translate(492.724609 0)"/>
    <use xlink:href="#DejaVuSans-50" transform="translate(524.511719 0)"/>
    <use xlink:href="#DejaVuSans-72" transform="translate(583.064453 0)"/>
    <use xlink:href="#DejaVuSans-69" transform="translate(624.177734 0)"/>
    <use xlink:href="#DejaVuSans-6e" transform="translate(651.960938 0)"/>
    <use xlink:href="#DejaVuSans-63" transform="translate(715.339844 0)"/>
    <use xlink:href="#DejaVuSans-69" transform="translate(770.320312 0)"/>
    <use xlink:href="#DejaVuSans-70" transform="translate(798.103516 0)"/>
    <use xlink:href="#DejaVuSans-61" transform="translate(861.580078 0)"/>
    <use xlink:href="#DejaVuSans-6c" transform="translate(922.859375 0)"/>
    <use xlink:href="#DejaVuSans-20" transform="translate(950.642578 0)"/>
    <use xlink:href="#DejaVuSans-4c" transform="translate(982.429688 0)"/>
    <use xlink:href="#DejaVuSans-6f" transform="translate(1036.392578 0)"/>
    <use xlink:href="#DejaVuSans-67" transform="translate(1097.574219 0)"/>
    <use xlink:href="#DejaVuSans-20" transform="translate(1161.050781 0)"/>
    <use xlink:href="#DejaVuSans-53" transform="translate(1192.837891 0)"/>
    <use xlink:href="#DejaVuSans-74" transform="translate(1256.314453 0)"/>
    <use xlink:href="#DejaVuSans-72" transform="translate(1295.523438 0)"/>
    <use xlink:href="#DejaVuSans-61" transform="translate(1336.636719 0)"/>
    <use xlink:href="#DejaVuSans-69" transform="translate(1397.916016 0)"/>
    <use xlink:href="#DejaVuSans-6e" transform="translate(1425.699219 0)"/>
    <use xlink:href="#DejaVuSans-20" transform="translate(1489.078125 0)"/>
    <use xlink:href="#DejaVuSans-61" transform="translate(1520.865234 0)"/>
    <use xlink:href="#DejaVuSans-74" transform="translate(1582.144531 0)"/>
    <use xlink:href="#DejaVuSans-20" transform="translate(1621.353516 0)"/>
    <use xlink:href="#DejaVuSans-52" transform="translate(1653.140625 0)"/>
    <use xlink:href="#DejaVuSans-3d" transform="translate(1722.623047 0)"/>
    <use xlink:href="#DejaVuSans-31" transform="translate(1806.412109 0)"/>
    <use xlink:href="#DejaVuSans-30" transform="translate(1870.035156 0)"/>
    <use xlink:href="#DejaVuSans-2d" transform="translate(1933.658203 0)"/>
    <use xlink:href="#DejaVuSans-63" transform="translate(1969.742188 0)"/>
    <use xlink:href="#DejaVuSans-6d" transform="translate(2024.722656 0)"/>
    <use xlink:href="#DejaVuSans-20" transform="translate(2122.134766 0)"/>
    <use xlink:href="#DejaVuSans-66" transform="translate(2153.921875 0)"/>
    <use xlink:href="#DejaVuSans-6f" transform="translate(2189.126953 0)"/>
    <use xlink:href="#DejaVuSans-72" transform="translate(2250.308594 0)"/>
    <use xlink:href="#DejaVuSans-20" transform="translate(2291.421875 0)"/>
    <use xlink:href="#DejaVuSans-56" transform="translate(2323.208984 0)"/>
    <use xlink:href="#DejaVuSans-61" transform="translate(2383.867188 0)"/>
    <use xlink:href="#DejaVuSans-72" transform="translate(2445.146484 0)"/>
    <use xlink:href="#DejaVuSans-69" transform="translate(2486.259766 0)"/>
    <use xlink:href="#DejaVuSans-6f" transform="translate(2514.042969 0)"/>
    <use xlink:href="#DejaVuSans-75" transform="translate(2575.224609 0)"/>
    <use xlink:href="#DejaVuSans-73" transform="translate(2638.603516 0)"/>
    <use xlink:href="#DejaVuSans-20" transform="translate(2690.703125 0)"/>
    <use xlink:href="#DejaVuSans-52" transform="translate(2722.490234 0)"/>
    <use xlink:href="#DejaVuSans-65" transform="translate(2787.472656 0)"/>
    <use xlink:href="#DejaVuSans-73" transform="translate(2848.996094 0)"/>
    <use xlink:href="#DejaVuSans-6f" transform="translate(2901.095703 0)"/>
    <use xlink:href="#DejaVuSans-6c" transform="translate(2962.277344 0)"/>
    <use xlink:href="#DejaVuSans-75" transform="translate(2990.060547 0)"/>
    <use xlink:href="#DejaVuSans-74" transform="translate(3053.439453 0)"/>
    <use xlink:href="#DejaVuSans-69" transform="translate(3092.648438 0)"/>
    <use xlink:href="#DejaVuSans-6f" transform="translate(3120.431641 0)"/>
    <use xlink:href="#DejaVuSans-6e" transform="translate(3181.613281 0)"/>
    <use xlink:href="#DejaVuSans-73" transform="translate(3244.992188 0)"/>
   </g>
  </g>
 </g>
 <defs>
  <clipPath id="p2270249dc8">
   <rect x="43.78125" y="50.4" width="446.4" height="332.64"/>
  </clipPath>
 </defs>
</svg>
