<?xml version="1.0" encoding="utf-8" standalone="no"?>
<!DOCTYPE svg PUBLIC "-//W3C//DTD SVG 1.1//EN"
  "http://www.w3.org/Graphics/SVG/1.1/DTD/svg11.dtd">
<svg xmlns:xlink="http://www.w3.org/1999/xlink" width="506.928125pt" height="420.59625pt" viewBox="0 0 506.928125 420.59625" xmlns="http://www.w3.org/2000/svg" version="1.1">
 <metadata>
  <rdf:RDF xmlns:dc="http://purl.org/dc/elements/1.1/" xmlns:cc="http://creativecommons.org/ns#" xmlns:rdf="http://www.w3.org/1999/02/22-rdf-syntax-ns#">
   <cc:Work>
    <dc:type rdf:resource="http://purl.org/dc/dcmitype/StillImage"/>
    <dc:date>2025-01-22T11:15:21.848602</dc:date>
    <dc:format>image/svg+xml</dc:format>
    <dc:creator>
     <cc:Agent>
      <dc:title>Matplotlib v3.10.0, https://matplotlib.org/</dc:title>
     </cc:Agent>
    </dc:creator>
   </cc:Work>
  </rdf:RDF>
 </metadata>
 <defs>
  <style type="text/css">*{stroke-linejoin: round; stroke-linecap: butt}</style>
 </defs>
 <g id="figure_1">
  <g id="patch_1">
   <path d="M 0 420.59625
L 506.928125 420.59625
L 506.928125 0
L 0 0
z
" style="fill: #ffffff"/>
  </g>
  <g id="axes_1">
   <g id="patch_2">
    <path d="M 53.328125 383.04
L 499.728125 383.04
L 499.728125 50.4
L 53.328125 50.4
z
" style="fill: #ffffff"/>
   </g>
   <g id="matplotlib.axis_1">
    <g id="xtick_1">
     <g id="line2d_1">
      <path d="M 73.619034 383.04
L 73.619034 50.4
" clip-path="url(#p8baed8cc54)" style="fill: none; stroke: #b0b0b0; stroke-width: 0.8; stroke-linecap: square"/>
     </g>
     <g id="line2d_2">
      <defs>
       <path id="m794fcc7c74" d="M 0 0
L 0 3.5
" style="stroke: #000000; stroke-width: 0.8"/>
      </defs>
      <g>
       <use xlink:href="#m794fcc7c74" x="73.619034" y="383.04" style="stroke: #000000; stroke-width: 0.8"/>
      </g>
     </g>
     <g id="text_1">
      <!-- 0.0000 -->
      <g transform="translate(56.123722 397.638437) scale(0.1 -0.1)">
       <defs>
        <path id="DejaVuSans-30" d="M 2034 4250
Q 1547 4250 1301 3770
Q 1056 3291 1056 2328
Q 1056 1369 1301 889
Q 1547 409 2034 409
Q 2525 409 2770 889
Q 3016 1369 3016 2328
Q 3016 3291 2770 3770
Q 2525 4250 2034 4250
z
M 2034 4750
Q 2819 4750 3233 4129
Q 3647 3509 3647 2328
Q 3647 1150 3233 529
Q 2819 -91 2034 -91
Q 1250 -91 836 529
Q 422 1150 422 2328
Q 422 3509 836 4129
Q 1250 4750 2034 4750
z
" transform="scale(0.015625)"/>
        <path id="DejaVuSans-2e" d="M 684 794
L 1344 794
L 1344 0
L 684 0
L 684 794
z
" transform="scale(0.015625)"/>
       </defs>
       <use xlink:href="#DejaVuSans-30"/>
       <use xlink:href="#DejaVuSans-2e" transform="translate(63.623047 0)"/>
       <use xlink:href="#DejaVuSans-30" transform="translate(95.410156 0)"/>
       <use xlink:href="#DejaVuSans-30" transform="translate(159.033203 0)"/>
       <use xlink:href="#DejaVuSans-30" transform="translate(222.65625 0)"/>
       <use xlink:href="#DejaVuSans-30" transform="translate(286.279297 0)"/>
      </g>
     </g>
    </g>
    <g id="xtick_2">
     <g id="line2d_3">
      <path d="M 124.346307 383.04
L 124.346307 50.4
" clip-path="url(#p8baed8cc54)" style="fill: none; stroke: #b0b0b0; stroke-width: 0.8; stroke-linecap: square"/>
     </g>
     <g id="line2d_4">
      <g>
       <use xlink:href="#m794fcc7c74" x="124.346307" y="383.04" style="stroke: #000000; stroke-width: 0.8"/>
      </g>
     </g>
     <g id="text_2">
      <!-- 0.0025 -->
      <g transform="translate(106.850994 397.638437) scale(0.1 -0.1)">
       <defs>
        <path id="DejaVuSans-32" d="M 1228 531
L 3431 531
L 3431 0
L 469 0
L 469 531
Q 828 903 1448 1529
Q 2069 2156 2228 2338
Q 2531 2678 2651 2914
Q 2772 3150 2772 3378
Q 2772 3750 2511 3984
Q 2250 4219 1831 4219
Q 1534 4219 1204 4116
Q 875 4013 500 3803
L 500 4441
Q 881 4594 1212 4672
Q 1544 4750 1819 4750
Q 2544 4750 2975 4387
Q 3406 4025 3406 3419
Q 3406 3131 3298 2873
Q 3191 2616 2906 2266
Q 2828 2175 2409 1742
Q 1991 1309 1228 531
z
" transform="scale(0.015625)"/>
        <path id="DejaVuSans-35" d="M 691 4666
L 3169 4666
L 3169 4134
L 1269 4134
L 1269 2991
Q 1406 3038 1543 3061
Q 1681 3084 1819 3084
Q 2600 3084 3056 2656
Q 3513 2228 3513 1497
Q 3513 744 3044 326
Q 2575 -91 1722 -91
Q 1428 -91 1123 -41
Q 819 9 494 109
L 494 744
Q 775 591 1075 516
Q 1375 441 1709 441
Q 2250 441 2565 725
Q 2881 1009 2881 1497
Q 2881 1984 2565 2268
Q 2250 2553 1709 2553
Q 1456 2553 1204 2497
Q 953 2441 691 2322
L 691 4666
z
" transform="scale(0.015625)"/>
       </defs>
       <use xlink:href="#DejaVuSans-30"/>
       <use xlink:href="#DejaVuSans-2e" transform="translate(63.623047 0)"/>
       <use xlink:href="#DejaVuSans-30" transform="translate(95.410156 0)"/>
       <use xlink:href="#DejaVuSans-30" transform="translate(159.033203 0)"/>
       <use xlink:href="#DejaVuSans-32" transform="translate(222.65625 0)"/>
       <use xlink:href="#DejaVuSans-35" transform="translate(286.279297 0)"/>
      </g>
     </g>
    </g>
    <g id="xtick_3">
     <g id="line2d_5">
      <path d="M 175.07358 383.04
L 175.07358 50.4
" clip-path="url(#p8baed8cc54)" style="fill: none; stroke: #b0b0b0; stroke-width: 0.8; stroke-linecap: square"/>
     </g>
     <g id="line2d_6">
      <g>
       <use xlink:href="#m794fcc7c74" x="175.07358" y="383.04" style="stroke: #000000; stroke-width: 0.8"/>
      </g>
     </g>
     <g id="text_3">
      <!-- 0.0050 -->
      <g transform="translate(157.578267 397.638437) scale(0.1 -0.1)">
       <use xlink:href="#DejaVuSans-30"/>
       <use xlink:href="#DejaVuSans-2e" transform="translate(63.623047 0)"/>
       <use xlink:href="#DejaVuSans-30" transform="translate(95.410156 0)"/>
       <use xlink:href="#DejaVuSans-30" transform="translate(159.033203 0)"/>
       <use xlink:href="#DejaVuSans-35" transform="translate(222.65625 0)"/>
       <use xlink:href="#DejaVuSans-30" transform="translate(286.279297 0)"/>
      </g>
     </g>
    </g>
    <g id="xtick_4">
     <g id="line2d_7">
      <path d="M 225.800852 383.04
L 225.800852 50.4
" clip-path="url(#p8baed8cc54)" style="fill: none; stroke: #b0b0b0; stroke-width: 0.8; stroke-linecap: square"/>
     </g>
     <g id="line2d_8">
      <g>
       <use xlink:href="#m794fcc7c74" x="225.800852" y="383.04" style="stroke: #000000; stroke-width: 0.8"/>
      </g>
     </g>
     <g id="text_4">
      <!-- 0.0075 -->
      <g transform="translate(208.30554 397.638437) scale(0.1 -0.1)">
       <defs>
        <path id="DejaVuSans-37" d="M 525 4666
L 3525 4666
L 3525 4397
L 1831 0
L 1172 0
L 2766 4134
L 525 4134
L 525 4666
z
" transform="scale(0.015625)"/>
       </defs>
       <use xlink:href="#DejaVuSans-30"/>
       <use xlink:href="#DejaVuSans-2e" transform="translate(63.623047 0)"/>
       <use xlink:href="#DejaVuSans-30" transform="translate(95.410156 0)"/>
       <use xlink:href="#DejaVuSans-30" transform="translate(159.033203 0)"/>
       <use xlink:href="#DejaVuSans-37" transform="translate(222.65625 0)"/>
       <use xlink:href="#DejaVuSans-35" transform="translate(286.279297 0)"/>
      </g>
     </g>
    </g>
    <g id="xtick_5">
     <g id="line2d_9">
      <path d="M 276.528125 383.04
L 276.528125 50.4
" clip-path="url(#p8baed8cc54)" style="fill: none; stroke: #b0b0b0; stroke-width: 0.8; stroke-linecap: square"/>
     </g>
     <g id="line2d_10">
      <g>
       <use xlink:href="#m794fcc7c74" x="276.528125" y="383.04" style="stroke: #000000; stroke-width: 0.8"/>
      </g>
     </g>
     <g id="text_5">
      <!-- 0.0100 -->
      <g transform="translate(259.032812 397.638437) scale(0.1 -0.1)">
       <defs>
        <path id="DejaVuSans-31" d="M 794 531
L 1825 531
L 1825 4091
L 703 3866
L 703 4441
L 1819 4666
L 2450 4666
L 2450 531
L 3481 531
L 3481 0
L 794 0
L 794 531
z
" transform="scale(0.015625)"/>
       </defs>
       <use xlink:href="#DejaVuSans-30"/>
       <use xlink:href="#DejaVuSans-2e" transform="translate(63.623047 0)"/>
       <use xlink:href="#DejaVuSans-30" transform="translate(95.410156 0)"/>
       <use xlink:href="#DejaVuSans-31" transform="translate(159.033203 0)"/>
       <use xlink:href="#DejaVuSans-30" transform="translate(222.65625 0)"/>
       <use xlink:href="#DejaVuSans-30" transform="translate(286.279297 0)"/>
      </g>
     </g>
    </g>
    <g id="xtick_6">
     <g id="line2d_11">
      <path d="M 327.255398 383.04
L 327.255398 50.4
" clip-path="url(#p8baed8cc54)" style="fill: none; stroke: #b0b0b0; stroke-width: 0.8; stroke-linecap: square"/>
     </g>
     <g id="line2d_12">
      <g>
       <use xlink:href="#m794fcc7c74" x="327.255398" y="383.04" style="stroke: #000000; stroke-width: 0.8"/>
      </g>
     </g>
     <g id="text_6">
      <!-- 0.0125 -->
      <g transform="translate(309.760085 397.638437) scale(0.1 -0.1)">
       <use xlink:href="#DejaVuSans-30"/>
       <use xlink:href="#DejaVuSans-2e" transform="translate(63.623047 0)"/>
       <use xlink:href="#DejaVuSans-30" transform="translate(95.410156 0)"/>
       <use xlink:href="#DejaVuSans-31" transform="translate(159.033203 0)"/>
       <use xlink:href="#DejaVuSans-32" transform="translate(222.65625 0)"/>
       <use xlink:href="#DejaVuSans-35" transform="translate(286.279297 0)"/>
      </g>
     </g>
    </g>
    <g id="xtick_7">
     <g id="line2d_13">
      <path d="M 377.98267 383.04
L 377.98267 50.4
" clip-path="url(#p8baed8cc54)" style="fill: none; stroke: #b0b0b0; stroke-width: 0.8; stroke-linecap: square"/>
     </g>
     <g id="line2d_14">
      <g>
       <use xlink:href="#m794fcc7c74" x="377.98267" y="383.04" style="stroke: #000000; stroke-width: 0.8"/>
      </g>
     </g>
     <g id="text_7">
      <!-- 0.0150 -->
      <g transform="translate(360.487358 397.638437) scale(0.1 -0.1)">
       <use xlink:href="#DejaVuSans-30"/>
       <use xlink:href="#DejaVuSans-2e" transform="translate(63.623047 0)"/>
       <use xlink:href="#DejaVuSans-30" transform="translate(95.410156 0)"/>
       <use xlink:href="#DejaVuSans-31" transform="translate(159.033203 0)"/>
       <use xlink:href="#DejaVuSans-35" transform="translate(222.65625 0)"/>
       <use xlink:href="#DejaVuSans-30" transform="translate(286.279297 0)"/>
      </g>
     </g>
    </g>
    <g id="xtick_8">
     <g id="line2d_15">
      <path d="M 428.709943 383.04
L 428.709943 50.4
" clip-path="url(#p8baed8cc54)" style="fill: none; stroke: #b0b0b0; stroke-width: 0.8; stroke-linecap: square"/>
     </g>
     <g id="line2d_16">
      <g>
       <use xlink:href="#m794fcc7c74" x="428.709943" y="383.04" style="stroke: #000000; stroke-width: 0.8"/>
      </g>
     </g>
     <g id="text_8">
      <!-- 0.0175 -->
      <g transform="translate(411.214631 397.638437) scale(0.1 -0.1)">
       <use xlink:href="#DejaVuSans-30"/>
       <use xlink:href="#DejaVuSans-2e" transform="translate(63.623047 0)"/>
       <use xlink:href="#DejaVuSans-30" transform="translate(95.410156 0)"/>
       <use xlink:href="#DejaVuSans-31" transform="translate(159.033203 0)"/>
       <use xlink:href="#DejaVuSans-37" transform="translate(222.65625 0)"/>
       <use xlink:href="#DejaVuSans-35" transform="translate(286.279297 0)"/>
      </g>
     </g>
    </g>
    <g id="xtick_9">
     <g id="line2d_17">
      <path d="M 479.437216 383.04
L 479.437216 50.4
" clip-path="url(#p8baed8cc54)" style="fill: none; stroke: #b0b0b0; stroke-width: 0.8; stroke-linecap: square"/>
     </g>
     <g id="line2d_18">
      <g>
       <use xlink:href="#m794fcc7c74" x="479.437216" y="383.04" style="stroke: #000000; stroke-width: 0.8"/>
      </g>
     </g>
     <g id="text_9">
      <!-- 0.0200 -->
      <g transform="translate(461.941903 397.638437) scale(0.1 -0.1)">
       <use xlink:href="#DejaVuSans-30"/>
       <use xlink:href="#DejaVuSans-2e" transform="translate(63.623047 0)"/>
       <use xlink:href="#DejaVuSans-30" transform="translate(95.410156 0)"/>
       <use xlink:href="#DejaVuSans-32" transform="translate(159.033203 0)"/>
       <use xlink:href="#DejaVuSans-30" transform="translate(222.65625 0)"/>
       <use xlink:href="#DejaVuSans-30" transform="translate(286.279297 0)"/>
      </g>
     </g>
    </g>
    <g id="text_10">
     <!-- time (s) -->
     <g transform="translate(257.136719 411.316562) scale(0.1 -0.1)">
      <defs>
       <path id="DejaVuSans-74" d="M 1172 4494
L 1172 3500
L 2356 3500
L 2356 3053
L 1172 3053
L 1172 1153
Q 1172 725 1289 603
Q 1406 481 1766 481
L 2356 481
L 2356 0
L 1766 0
Q 1100 0 847 248
Q 594 497 594 1153
L 594 3053
L 172 3053
L 172 3500
L 594 3500
L 594 4494
L 1172 4494
z
" transform="scale(0.015625)"/>
       <path id="DejaVuSans-69" d="M 603 3500
L 1178 3500
L 1178 0
L 603 0
L 603 3500
z
M 603 4863
L 1178 4863
L 1178 4134
L 603 4134
L 603 4863
z
" transform="scale(0.015625)"/>
       <path id="DejaVuSans-6d" d="M 3328 2828
Q 3544 3216 3844 3400
Q 4144 3584 4550 3584
Q 5097 3584 5394 3201
Q 5691 2819 5691 2113
L 5691 0
L 5113 0
L 5113 2094
Q 5113 2597 4934 2840
Q 4756 3084 4391 3084
Q 3944 3084 3684 2787
Q 3425 2491 3425 1978
L 3425 0
L 2847 0
L 2847 2094
Q 2847 2600 2669 2842
Q 2491 3084 2119 3084
Q 1678 3084 1418 2786
Q 1159 2488 1159 1978
L 1159 0
L 581 0
L 581 3500
L 1159 3500
L 1159 2956
Q 1356 3278 1631 3431
Q 1906 3584 2284 3584
Q 2666 3584 2933 3390
Q 3200 3197 3328 2828
z
" transform="scale(0.015625)"/>
       <path id="DejaVuSans-65" d="M 3597 1894
L 3597 1613
L 953 1613
Q 991 1019 1311 708
Q 1631 397 2203 397
Q 2534 397 2845 478
Q 3156 559 3463 722
L 3463 178
Q 3153 47 2828 -22
Q 2503 -91 2169 -91
Q 1331 -91 842 396
Q 353 884 353 1716
Q 353 2575 817 3079
Q 1281 3584 2069 3584
Q 2775 3584 3186 3129
Q 3597 2675 3597 1894
z
M 3022 2063
Q 3016 2534 2758 2815
Q 2500 3097 2075 3097
Q 1594 3097 1305 2825
Q 1016 2553 972 2059
L 3022 2063
z
" transform="scale(0.015625)"/>
       <path id="DejaVuSans-20" transform="scale(0.015625)"/>
       <path id="DejaVuSans-28" d="M 1984 4856
Q 1566 4138 1362 3434
Q 1159 2731 1159 2009
Q 1159 1288 1364 580
Q 1569 -128 1984 -844
L 1484 -844
Q 1016 -109 783 600
Q 550 1309 550 2009
Q 550 2706 781 3412
Q 1013 4119 1484 4856
L 1984 4856
z
" transform="scale(0.015625)"/>
       <path id="DejaVuSans-73" d="M 2834 3397
L 2834 2853
Q 2591 2978 2328 3040
Q 2066 3103 1784 3103
Q 1356 3103 1142 2972
Q 928 2841 928 2578
Q 928 2378 1081 2264
Q 1234 2150 1697 2047
L 1894 2003
Q 2506 1872 2764 1633
Q 3022 1394 3022 966
Q 3022 478 2636 193
Q 2250 -91 1575 -91
Q 1294 -91 989 -36
Q 684 19 347 128
L 347 722
Q 666 556 975 473
Q 1284 391 1588 391
Q 1994 391 2212 530
Q 2431 669 2431 922
Q 2431 1156 2273 1281
Q 2116 1406 1581 1522
L 1381 1569
Q 847 1681 609 1914
Q 372 2147 372 2553
Q 372 3047 722 3315
Q 1072 3584 1716 3584
Q 2034 3584 2315 3537
Q 2597 3491 2834 3397
z
" transform="scale(0.015625)"/>
       <path id="DejaVuSans-29" d="M 513 4856
L 1013 4856
Q 1481 4119 1714 3412
Q 1947 2706 1947 2009
Q 1947 1309 1714 600
Q 1481 -109 1013 -844
L 513 -844
Q 928 -128 1133 580
Q 1338 1288 1338 2009
Q 1338 2731 1133 3434
Q 928 4138 513 4856
z
" transform="scale(0.015625)"/>
      </defs>
      <use xlink:href="#DejaVuSans-74"/>
      <use xlink:href="#DejaVuSans-69" transform="translate(39.208984 0)"/>
      <use xlink:href="#DejaVuSans-6d" transform="translate(66.992188 0)"/>
      <use xlink:href="#DejaVuSans-65" transform="translate(164.404297 0)"/>
      <use xlink:href="#DejaVuSans-20" transform="translate(225.927734 0)"/>
      <use xlink:href="#DejaVuSans-28" transform="translate(257.714844 0)"/>
      <use xlink:href="#DejaVuSans-73" transform="translate(296.728516 0)"/>
      <use xlink:href="#DejaVuSans-29" transform="translate(348.828125 0)"/>
     </g>
    </g>
   </g>
   <g id="matplotlib.axis_2">
    <g id="ytick_1">
     <g id="line2d_19">
      <path d="M 53.328125 381.5
L 499.728125 381.5
" clip-path="url(#p8baed8cc54)" style="fill: none; stroke: #b0b0b0; stroke-width: 0.8; stroke-linecap: square"/>
     </g>
     <g id="line2d_20">
      <defs>
       <path id="m04ca00fccb" d="M 0 0
L -3.5 0
" style="stroke: #000000; stroke-width: 0.8"/>
      </defs>
      <g>
       <use xlink:href="#m04ca00fccb" x="53.328125" y="381.5" style="stroke: #000000; stroke-width: 0.8"/>
      </g>
     </g>
     <g id="text_11">
      <!-- 0 -->
      <g transform="translate(39.965625 385.299219) scale(0.1 -0.1)">
       <use xlink:href="#DejaVuSans-30"/>
      </g>
     </g>
    </g>
    <g id="ytick_2">
     <g id="line2d_21">
      <path d="M 53.328125 319.9
L 499.728125 319.9
" clip-path="url(#p8baed8cc54)" style="fill: none; stroke: #b0b0b0; stroke-width: 0.8; stroke-linecap: square"/>
     </g>
     <g id="line2d_22">
      <g>
       <use xlink:href="#m04ca00fccb" x="53.328125" y="319.9" style="stroke: #000000; stroke-width: 0.8"/>
      </g>
     </g>
     <g id="text_12">
      <!-- 200 -->
      <g transform="translate(27.240625 323.699219) scale(0.1 -0.1)">
       <use xlink:href="#DejaVuSans-32"/>
       <use xlink:href="#DejaVuSans-30" transform="translate(63.623047 0)"/>
       <use xlink:href="#DejaVuSans-30" transform="translate(127.246094 0)"/>
      </g>
     </g>
    </g>
    <g id="ytick_3">
     <g id="line2d_23">
      <path d="M 53.328125 258.3
L 499.728125 258.3
" clip-path="url(#p8baed8cc54)" style="fill: none; stroke: #b0b0b0; stroke-width: 0.8; stroke-linecap: square"/>
     </g>
     <g id="line2d_24">
      <g>
       <use xlink:href="#m04ca00fccb" x="53.328125" y="258.3" style="stroke: #000000; stroke-width: 0.8"/>
      </g>
     </g>
     <g id="text_13">
      <!-- 400 -->
      <g transform="translate(27.240625 262.099219) scale(0.1 -0.1)">
       <defs>
        <path id="DejaVuSans-34" d="M 2419 4116
L 825 1625
L 2419 1625
L 2419 4116
z
M 2253 4666
L 3047 4666
L 3047 1625
L 3713 1625
L 3713 1100
L 3047 1100
L 3047 0
L 2419 0
L 2419 1100
L 313 1100
L 313 1709
L 2253 4666
z
" transform="scale(0.015625)"/>
       </defs>
       <use xlink:href="#DejaVuSans-34"/>
       <use xlink:href="#DejaVuSans-30" transform="translate(63.623047 0)"/>
       <use xlink:href="#DejaVuSans-30" transform="translate(127.246094 0)"/>
      </g>
     </g>
    </g>
    <g id="ytick_4">
     <g id="line2d_25">
      <path d="M 53.328125 196.7
L 499.728125 196.7
" clip-path="url(#p8baed8cc54)" style="fill: none; stroke: #b0b0b0; stroke-width: 0.8; stroke-linecap: square"/>
     </g>
     <g id="line2d_26">
      <g>
       <use xlink:href="#m04ca00fccb" x="53.328125" y="196.7" style="stroke: #000000; stroke-width: 0.8"/>
      </g>
     </g>
     <g id="text_14">
      <!-- 600 -->
      <g transform="translate(27.240625 200.499219) scale(0.1 -0.1)">
       <defs>
        <path id="DejaVuSans-36" d="M 2113 2584
Q 1688 2584 1439 2293
Q 1191 2003 1191 1497
Q 1191 994 1439 701
Q 1688 409 2113 409
Q 2538 409 2786 701
Q 3034 994 3034 1497
Q 3034 2003 2786 2293
Q 2538 2584 2113 2584
z
M 3366 4563
L 3366 3988
Q 3128 4100 2886 4159
Q 2644 4219 2406 4219
Q 1781 4219 1451 3797
Q 1122 3375 1075 2522
Q 1259 2794 1537 2939
Q 1816 3084 2150 3084
Q 2853 3084 3261 2657
Q 3669 2231 3669 1497
Q 3669 778 3244 343
Q 2819 -91 2113 -91
Q 1303 -91 875 529
Q 447 1150 447 2328
Q 447 3434 972 4092
Q 1497 4750 2381 4750
Q 2619 4750 2861 4703
Q 3103 4656 3366 4563
z
" transform="scale(0.015625)"/>
       </defs>
       <use xlink:href="#DejaVuSans-36"/>
       <use xlink:href="#DejaVuSans-30" transform="translate(63.623047 0)"/>
       <use xlink:href="#DejaVuSans-30" transform="translate(127.246094 0)"/>
      </g>
     </g>
    </g>
    <g id="ytick_5">
     <g id="line2d_27">
      <path d="M 53.328125 135.1
L 499.728125 135.1
" clip-path="url(#p8baed8cc54)" style="fill: none; stroke: #b0b0b0; stroke-width: 0.8; stroke-linecap: square"/>
     </g>
     <g id="line2d_28">
      <g>
       <use xlink:href="#m04ca00fccb" x="53.328125" y="135.1" style="stroke: #000000; stroke-width: 0.8"/>
      </g>
     </g>
     <g id="text_15">
      <!-- 800 -->
      <g transform="translate(27.240625 138.899219) scale(0.1 -0.1)">
       <defs>
        <path id="DejaVuSans-38" d="M 2034 2216
Q 1584 2216 1326 1975
Q 1069 1734 1069 1313
Q 1069 891 1326 650
Q 1584 409 2034 409
Q 2484 409 2743 651
Q 3003 894 3003 1313
Q 3003 1734 2745 1975
Q 2488 2216 2034 2216
z
M 1403 2484
Q 997 2584 770 2862
Q 544 3141 544 3541
Q 544 4100 942 4425
Q 1341 4750 2034 4750
Q 2731 4750 3128 4425
Q 3525 4100 3525 3541
Q 3525 3141 3298 2862
Q 3072 2584 2669 2484
Q 3125 2378 3379 2068
Q 3634 1759 3634 1313
Q 3634 634 3220 271
Q 2806 -91 2034 -91
Q 1263 -91 848 271
Q 434 634 434 1313
Q 434 1759 690 2068
Q 947 2378 1403 2484
z
M 1172 3481
Q 1172 3119 1398 2916
Q 1625 2713 2034 2713
Q 2441 2713 2670 2916
Q 2900 3119 2900 3481
Q 2900 3844 2670 4047
Q 2441 4250 2034 4250
Q 1625 4250 1398 4047
Q 1172 3844 1172 3481
z
" transform="scale(0.015625)"/>
       </defs>
       <use xlink:href="#DejaVuSans-38"/>
       <use xlink:href="#DejaVuSans-30" transform="translate(63.623047 0)"/>
       <use xlink:href="#DejaVuSans-30" transform="translate(127.246094 0)"/>
      </g>
     </g>
    </g>
    <g id="ytick_6">
     <g id="line2d_29">
      <path d="M 53.328125 73.5
L 499.728125 73.5
" clip-path="url(#p8baed8cc54)" style="fill: none; stroke: #b0b0b0; stroke-width: 0.8; stroke-linecap: square"/>
     </g>
     <g id="line2d_30">
      <g>
       <use xlink:href="#m04ca00fccb" x="53.328125" y="73.5" style="stroke: #000000; stroke-width: 0.8"/>
      </g>
     </g>
     <g id="text_16">
      <!-- 1000 -->
      <g transform="translate(20.878125 77.299219) scale(0.1 -0.1)">
       <use xlink:href="#DejaVuSans-31"/>
       <use xlink:href="#DejaVuSans-30" transform="translate(63.623047 0)"/>
       <use xlink:href="#DejaVuSans-30" transform="translate(127.246094 0)"/>
       <use xlink:href="#DejaVuSans-30" transform="translate(190.869141 0)"/>
      </g>
     </g>
    </g>
    <g id="text_17">
     <!-- maximum principal rate of deformation (1/s) -->
     <g transform="translate(14.798438 328.308281) rotate(-90) scale(0.1 -0.1)">
      <defs>
       <path id="DejaVuSans-61" d="M 2194 1759
Q 1497 1759 1228 1600
Q 959 1441 959 1056
Q 959 750 1161 570
Q 1363 391 1709 391
Q 2188 391 2477 730
Q 2766 1069 2766 1631
L 2766 1759
L 2194 1759
z
M 3341 1997
L 3341 0
L 2766 0
L 2766 531
Q 2569 213 2275 61
Q 1981 -91 1556 -91
Q 1019 -91 701 211
Q 384 513 384 1019
Q 384 1609 779 1909
Q 1175 2209 1959 2209
L 2766 2209
L 2766 2266
Q 2766 2663 2505 2880
Q 2244 3097 1772 3097
Q 1472 3097 1187 3025
Q 903 2953 641 2809
L 641 3341
Q 956 3463 1253 3523
Q 1550 3584 1831 3584
Q 2591 3584 2966 3190
Q 3341 2797 3341 1997
z
" transform="scale(0.015625)"/>
       <path id="DejaVuSans-78" d="M 3513 3500
L 2247 1797
L 3578 0
L 2900 0
L 1881 1375
L 863 0
L 184 0
L 1544 1831
L 300 3500
L 978 3500
L 1906 2253
L 2834 3500
L 3513 3500
z
" transform="scale(0.015625)"/>
       <path id="DejaVuSans-75" d="M 544 1381
L 544 3500
L 1119 3500
L 1119 1403
Q 1119 906 1312 657
Q 1506 409 1894 409
Q 2359 409 2629 706
Q 2900 1003 2900 1516
L 2900 3500
L 3475 3500
L 3475 0
L 2900 0
L 2900 538
Q 2691 219 2414 64
Q 2138 -91 1772 -91
Q 1169 -91 856 284
Q 544 659 544 1381
z
M 1991 3584
L 1991 3584
z
" transform="scale(0.015625)"/>
       <path id="DejaVuSans-70" d="M 1159 525
L 1159 -1331
L 581 -1331
L 581 3500
L 1159 3500
L 1159 2969
Q 1341 3281 1617 3432
Q 1894 3584 2278 3584
Q 2916 3584 3314 3078
Q 3713 2572 3713 1747
Q 3713 922 3314 415
Q 2916 -91 2278 -91
Q 1894 -91 1617 61
Q 1341 213 1159 525
z
M 3116 1747
Q 3116 2381 2855 2742
Q 2594 3103 2138 3103
Q 1681 3103 1420 2742
Q 1159 2381 1159 1747
Q 1159 1113 1420 752
Q 1681 391 2138 391
Q 2594 391 2855 752
Q 3116 1113 3116 1747
z
" transform="scale(0.015625)"/>
       <path id="DejaVuSans-72" d="M 2631 2963
Q 2534 3019 2420 3045
Q 2306 3072 2169 3072
Q 1681 3072 1420 2755
Q 1159 2438 1159 1844
L 1159 0
L 581 0
L 581 3500
L 1159 3500
L 1159 2956
Q 1341 3275 1631 3429
Q 1922 3584 2338 3584
Q 2397 3584 2469 3576
Q 2541 3569 2628 3553
L 2631 2963
z
" transform="scale(0.015625)"/>
       <path id="DejaVuSans-6e" d="M 3513 2113
L 3513 0
L 2938 0
L 2938 2094
Q 2938 2591 2744 2837
Q 2550 3084 2163 3084
Q 1697 3084 1428 2787
Q 1159 2491 1159 1978
L 1159 0
L 581 0
L 581 3500
L 1159 3500
L 1159 2956
Q 1366 3272 1645 3428
Q 1925 3584 2291 3584
Q 2894 3584 3203 3211
Q 3513 2838 3513 2113
z
" transform="scale(0.015625)"/>
       <path id="DejaVuSans-63" d="M 3122 3366
L 3122 2828
Q 2878 2963 2633 3030
Q 2388 3097 2138 3097
Q 1578 3097 1268 2742
Q 959 2388 959 1747
Q 959 1106 1268 751
Q 1578 397 2138 397
Q 2388 397 2633 464
Q 2878 531 3122 666
L 3122 134
Q 2881 22 2623 -34
Q 2366 -91 2075 -91
Q 1284 -91 818 406
Q 353 903 353 1747
Q 353 2603 823 3093
Q 1294 3584 2113 3584
Q 2378 3584 2631 3529
Q 2884 3475 3122 3366
z
" transform="scale(0.015625)"/>
       <path id="DejaVuSans-6c" d="M 603 4863
L 1178 4863
L 1178 0
L 603 0
L 603 4863
z
" transform="scale(0.015625)"/>
       <path id="DejaVuSans-6f" d="M 1959 3097
Q 1497 3097 1228 2736
Q 959 2375 959 1747
Q 959 1119 1226 758
Q 1494 397 1959 397
Q 2419 397 2687 759
Q 2956 1122 2956 1747
Q 2956 2369 2687 2733
Q 2419 3097 1959 3097
z
M 1959 3584
Q 2709 3584 3137 3096
Q 3566 2609 3566 1747
Q 3566 888 3137 398
Q 2709 -91 1959 -91
Q 1206 -91 779 398
Q 353 888 353 1747
Q 353 2609 779 3096
Q 1206 3584 1959 3584
z
" transform="scale(0.015625)"/>
       <path id="DejaVuSans-66" d="M 2375 4863
L 2375 4384
L 1825 4384
Q 1516 4384 1395 4259
Q 1275 4134 1275 3809
L 1275 3500
L 2222 3500
L 2222 3053
L 1275 3053
L 1275 0
L 697 0
L 697 3053
L 147 3053
L 147 3500
L 697 3500
L 697 3744
Q 697 4328 969 4595
Q 1241 4863 1831 4863
L 2375 4863
z
" transform="scale(0.015625)"/>
       <path id="DejaVuSans-64" d="M 2906 2969
L 2906 4863
L 3481 4863
L 3481 0
L 2906 0
L 2906 525
Q 2725 213 2448 61
Q 2172 -91 1784 -91
Q 1150 -91 751 415
Q 353 922 353 1747
Q 353 2572 751 3078
Q 1150 3584 1784 3584
Q 2172 3584 2448 3432
Q 2725 3281 2906 2969
z
M 947 1747
Q 947 1113 1208 752
Q 1469 391 1925 391
Q 2381 391 2643 752
Q 2906 1113 2906 1747
Q 2906 2381 2643 2742
Q 2381 3103 1925 3103
Q 1469 3103 1208 2742
Q 947 2381 947 1747
z
" transform="scale(0.015625)"/>
       <path id="DejaVuSans-2f" d="M 1625 4666
L 2156 4666
L 531 -594
L 0 -594
L 1625 4666
z
" transform="scale(0.015625)"/>
      </defs>
      <use xlink:href="#DejaVuSans-6d"/>
      <use xlink:href="#DejaVuSans-61" transform="translate(97.412109 0)"/>
      <use xlink:href="#DejaVuSans-78" transform="translate(158.691406 0)"/>
      <use xlink:href="#DejaVuSans-69" transform="translate(217.871094 0)"/>
      <use xlink:href="#DejaVuSans-6d" transform="translate(245.654297 0)"/>
      <use xlink:href="#DejaVuSans-75" transform="translate(343.066406 0)"/>
      <use xlink:href="#DejaVuSans-6d" transform="translate(406.445312 0)"/>
      <use xlink:href="#DejaVuSans-20" transform="translate(503.857422 0)"/>
      <use xlink:href="#DejaVuSans-70" transform="translate(535.644531 0)"/>
      <use xlink:href="#DejaVuSans-72" transform="translate(599.121094 0)"/>
      <use xlink:href="#DejaVuSans-69" transform="translate(640.234375 0)"/>
      <use xlink:href="#DejaVuSans-6e" transform="translate(668.017578 0)"/>
      <use xlink:href="#DejaVuSans-63" transform="translate(731.396484 0)"/>
      <use xlink:href="#DejaVuSans-69" transform="translate(786.376953 0)"/>
      <use xlink:href="#DejaVuSans-70" transform="translate(814.160156 0)"/>
      <use xlink:href="#DejaVuSans-61" transform="translate(877.636719 0)"/>
      <use xlink:href="#DejaVuSans-6c" transform="translate(938.916016 0)"/>
      <use xlink:href="#DejaVuSans-20" transform="translate(966.699219 0)"/>
      <use xlink:href="#DejaVuSans-72" transform="translate(998.486328 0)"/>
      <use xlink:href="#DejaVuSans-61" transform="translate(1039.599609 0)"/>
      <use xlink:href="#DejaVuSans-74" transform="translate(1100.878906 0)"/>
      <use xlink:href="#DejaVuSans-65" transform="translate(1140.087891 0)"/>
      <use xlink:href="#DejaVuSans-20" transform="translate(1201.611328 0)"/>
      <use xlink:href="#DejaVuSans-6f" transform="translate(1233.398438 0)"/>
      <use xlink:href="#DejaVuSans-66" transform="translate(1294.580078 0)"/>
      <use xlink:href="#DejaVuSans-20" transform="translate(1329.785156 0)"/>
      <use xlink:href="#DejaVuSans-64" transform="translate(1361.572266 0)"/>
      <use xlink:href="#DejaVuSans-65" transform="translate(1425.048828 0)"/>
      <use xlink:href="#DejaVuSans-66" transform="translate(1486.572266 0)"/>
      <use xlink:href="#DejaVuSans-6f" transform="translate(1521.777344 0)"/>
      <use xlink:href="#DejaVuSans-72" transform="translate(1582.958984 0)"/>
      <use xlink:href="#DejaVuSans-6d" transform="translate(1622.322266 0)"/>
      <use xlink:href="#DejaVuSans-61" transform="translate(1719.734375 0)"/>
      <use xlink:href="#DejaVuSans-74" transform="translate(1781.013672 0)"/>
      <use xlink:href="#DejaVuSans-69" transform="translate(1820.222656 0)"/>
      <use xlink:href="#DejaVuSans-6f" transform="translate(1848.005859 0)"/>
      <use xlink:href="#DejaVuSans-6e" transform="translate(1909.1875 0)"/>
      <use xlink:href="#DejaVuSans-20" transform="translate(1972.566406 0)"/>
      <use xlink:href="#DejaVuSans-28" transform="translate(2004.353516 0)"/>
      <use xlink:href="#DejaVuSans-31" transform="translate(2043.367188 0)"/>
      <use xlink:href="#DejaVuSans-2f" transform="translate(2106.990234 0)"/>
      <use xlink:href="#DejaVuSans-73" transform="translate(2140.681641 0)"/>
      <use xlink:href="#DejaVuSans-29" transform="translate(2192.78125 0)"/>
     </g>
    </g>
   </g>
   <g id="line2d_31">
    <path d="M 73.619034 381.5
L 308.99358 381.396624
L 418.566518 380.464698
L 440.886518 379.784264
L 451.029943 379.768054
L 455.090154 379.533321
L 463.208547 378.892306
L 465.23358 378.801125
L 469.29582 378.95697
L 477.410154 379.450001
L 479.437216 379.417618
L 479.437216 379.417618
" clip-path="url(#p8baed8cc54)" style="fill: none; stroke-dasharray: 5.55,2.4; stroke-dashoffset: 0; stroke: #1f77b4; stroke-width: 1.5"/>
   </g>
   <g id="line2d_32">
    <path d="M 73.619034 381.5
L 308.99358 381.395039
L 416.537427 380.489058
L 418.566518 380.312685
L 424.65379 380.255292
L 444.9447 379.622762
L 446.97379 379.685951
L 463.208547 379.264145
L 467.2647 379.44604
L 473.354001 379.096812
L 475.381063 379.203475
L 479.437216 378.882031
L 479.437216 378.882031
" clip-path="url(#p8baed8cc54)" style="fill: none; stroke-dasharray: 1.5,2.475; stroke-dashoffset: 0; stroke: #ff7f0e; stroke-width: 1.5"/>
   </g>
   <g id="line2d_33">
    <path d="M 73.619034 381.5
L 308.99358 381.392439
L 396.246518 380.810034
L 402.33379 380.761573
L 412.481274 380.631945
L 414.510365 380.423118
L 416.537427 380.34569
L 418.566518 380.587433
L 420.595609 380.536822
L 422.6247 380.192842
L 424.65379 380.162048
L 426.680852 380.290595
L 430.739034 380.153248
L 432.768125 380.160868
L 436.826307 379.861896
L 438.859456 379.864545
L 442.915609 379.593733
L 444.9447 379.72292
L 451.029943 379.594145
L 453.063092 379.605862
L 457.119245 379.404094
L 467.2647 379.110043
L 469.29582 379.020646
L 473.354001 379.383476
L 477.410154 378.993856
L 479.437216 379.087297
L 479.437216 379.087297
" clip-path="url(#p8baed8cc54)" style="fill: none; stroke: #2ca02c; stroke-width: 1.5; stroke-linecap: square"/>
   </g>
   <g id="line2d_34">
    <path d="M 73.619034 381.5
L 308.99358 381.3901
L 386.101063 380.911089
L 390.159245 380.882999
L 400.306729 380.786894
L 412.481274 380.611445
L 414.510365 380.691441
L 416.537427 380.57126
L 418.566518 380.280092
L 420.595609 380.353088
L 422.6247 380.612584
L 426.680852 380.082279
L 428.709943 380.246104
L 430.739034 380.173546
L 432.768125 379.974719
L 436.826307 379.896481
L 438.859456 379.694079
L 446.97379 379.538508
L 449.000852 379.675328
L 453.063092 379.373605
L 457.119245 379.501659
L 459.148336 379.463381
L 463.208547 379.644131
L 465.23358 379.446887
L 467.2647 379.496811
L 469.29582 379.337603
L 473.354001 378.719943
L 475.381063 378.694881
L 477.410154 378.789834
L 479.437216 378.545442
L 479.437216 378.545442
" clip-path="url(#p8baed8cc54)" style="fill: none; stroke: #d62728; stroke-width: 1.5; stroke-linecap: square"/>
   </g>
   <g id="line2d_35">
    <path d="M 73.619034 381.5
L 308.99358 381.389536
L 412.481274 380.594027
L 418.566518 380.439513
L 420.595609 380.074958
L 422.6247 380.055215
L 424.65379 380.313036
L 428.709943 379.697445
L 432.768125 379.847879
L 438.859456 379.8541
L 446.97379 379.884907
L 449.000852 379.668746
L 451.029943 379.729955
L 455.090154 379.336038
L 457.119245 379.151919
L 459.148336 379.086974
L 461.175398 378.766771
L 465.23358 378.768835
L 467.2647 378.449978
L 469.29582 378.355536
L 471.32491 377.973616
L 473.354001 377.742462
L 475.381063 377.689701
L 479.437216 377.311724
L 479.437216 377.311724
" clip-path="url(#p8baed8cc54)" style="fill: none; stroke: #9467bd; stroke-width: 1.5; stroke-linecap: square"/>
   </g>
   <g id="line2d_36">
    <path d="M 73.619034 381.5
L 306.968547 381.401932
L 371.899456 380.891447
L 396.246518 380.487413
L 400.306729 380.504387
L 410.448125 380.080927
L 416.537427 379.611969
L 420.595609 379.41297
L 426.680852 378.669474
L 430.739034 377.978882
L 434.797216 377.230997
L 438.859456 376.567534
L 444.9447 375.441086
L 451.029943 374.781473
L 455.090154 374.529252
L 457.119245 374.563501
L 459.148336 374.486501
L 469.29582 374.823299
L 475.381063 374.472087
L 477.410154 374.235912
L 479.437216 373.730608
L 479.437216 373.730608
" clip-path="url(#p8baed8cc54)" style="fill: none; stroke: #8c564b; stroke-width: 1.5; stroke-linecap: square"/>
   </g>
   <g id="line2d_37">
    <path d="M 73.619034 381.5
L 304.935398 381.40021
L 339.429943 381.072388
L 359.722881 380.618664
L 384.071972 379.682751
L 388.130154 379.110194
L 392.188336 378.28639
L 412.481274 373.699376
L 418.566518 372.579796
L 426.680852 371.72679
L 430.739034 371.700641
L 432.768125 371.554495
L 438.859456 372.263172
L 440.886518 372.33429
L 442.915609 372.619005
L 444.9447 372.790314
L 446.97379 372.771126
L 449.000852 373.063079
L 451.029943 372.898392
L 453.063092 372.88564
L 455.090154 372.619744
L 457.119245 372.471873
L 459.148336 372.182692
L 461.175398 371.592164
L 463.208547 371.259832
L 467.2647 370.300535
L 469.29582 369.952926
L 473.354001 369.627832
L 475.381063 369.691958
L 477.410154 369.936232
L 479.437216 370.327454
L 479.437216 370.327454
" clip-path="url(#p8baed8cc54)" style="fill: none; stroke: #e377c2; stroke-width: 1.5; stroke-linecap: square"/>
   </g>
   <g id="line2d_38">
    <path d="M 73.619034 381.5
L 298.850154 381.389406
L 317.111972 381.168407
L 331.31358 380.759368
L 343.490154 380.236067
L 349.579456 379.749593
L 355.6647 378.975195
L 359.722881 378.240436
L 363.783092 377.291519
L 367.837216 376.132977
L 375.955609 373.446786
L 380.011761 372.160578
L 384.071972 371.068132
L 388.130154 370.243062
L 392.188336 369.647975
L 398.27358 369.067518
L 402.33379 368.839321
L 406.391972 368.811386
L 410.448125 369.083134
L 412.481274 369.341916
L 420.595609 371.008781
L 422.6247 371.474477
L 428.709943 372.147026
L 432.768125 371.992656
L 434.797216 371.683178
L 436.826307 371.510359
L 442.915609 370.245649
L 444.9447 370.14826
L 449.000852 369.713826
L 451.029943 369.809521
L 453.063092 369.766124
L 457.119245 370.339404
L 459.148336 370.827862
L 461.175398 371.181415
L 469.29582 373.866066
L 473.354001 375.313666
L 475.381063 375.672455
L 479.437216 376.780454
L 479.437216 376.780454
" clip-path="url(#p8baed8cc54)" style="fill: none; stroke: #7f7f7f; stroke-width: 1.5; stroke-linecap: square"/>
   </g>
   <g id="line2d_39">
    <path d="M 73.619034 381.5
L 280.588336 381.398166
L 296.823092 381.173215
L 306.968547 380.832265
L 315.082881 380.374793
L 323.199245 379.666448
L 329.286518 378.874448
L 333.34267 378.150746
L 337.40491 377.192096
L 341.461063 375.904164
L 345.519245 374.25045
L 351.604489 371.333628
L 355.6647 369.379091
L 359.722881 367.665225
L 361.751972 366.963509
L 363.783092 366.390536
L 365.812183 365.95946
L 367.837216 365.674159
L 369.868336 365.52983
L 373.926518 365.608278
L 377.986729 366.040063
L 386.101063 367.297134
L 392.188336 368.451642
L 398.27358 369.872415
L 402.33379 370.818129
L 406.391972 371.441829
L 408.421063 371.609165
L 410.448125 371.638271
L 414.510365 371.332396
L 422.6247 370.231512
L 426.680852 370.191318
L 430.739034 370.542746
L 432.768125 370.858631
L 438.859456 372.11564
L 446.97379 373.759498
L 451.029943 374.388034
L 457.119245 375.143096
L 461.175398 375.310216
L 465.23358 375.227303
L 471.32491 374.509262
L 475.381063 373.750628
L 479.437216 373.11507
L 479.437216 373.11507
" clip-path="url(#p8baed8cc54)" style="fill: none; stroke: #bcbd22; stroke-width: 1.5; stroke-linecap: square"/>
   </g>
   <g id="line2d_40">
    <path d="M 73.619034 381.5
L 248.123896 381.392535
L 264.353985 381.203675
L 276.528125 380.853684
L 284.644489 380.425271
L 290.73582 379.941908
L 296.823092 379.257357
L 300.879245 378.646793
L 304.935398 377.857376
L 308.99358 376.797518
L 311.026729 376.122782
L 313.051761 375.326048
L 315.082881 374.379687
L 317.111972 373.264973
L 319.143092 371.958406
L 321.170154 370.447851
L 323.199245 368.729026
L 325.226307 366.816901
L 329.286518 362.567086
L 333.34267 358.234265
L 335.37582 356.258784
L 337.40491 354.539898
L 339.429943 353.16554
L 341.461063 352.203502
L 343.490154 351.713967
L 345.519245 351.722529
L 347.546307 352.225278
L 349.579456 353.189225
L 351.604489 354.544425
L 353.635609 356.209935
L 357.69582 360.057163
L 361.751972 363.913816
L 363.783092 365.638
L 365.812183 367.151758
L 367.837216 368.427802
L 369.868336 369.466871
L 371.899456 370.282948
L 373.926518 370.900888
L 375.955609 371.357314
L 380.011761 371.923756
L 392.188336 373.030277
L 400.306729 374.206252
L 402.33379 374.390775
L 404.362881 374.462416
L 406.391972 374.40676
L 408.421063 374.190267
L 410.448125 373.838685
L 412.481274 373.362825
L 416.537427 372.112961
L 420.595609 370.804053
L 424.65379 369.826492
L 426.680852 369.541962
L 428.709943 369.456646
L 430.739034 369.572115
L 432.768125 369.860187
L 434.797216 370.34538
L 438.859456 371.699224
L 446.97379 374.636128
L 451.029943 375.739476
L 453.063092 376.1874
L 455.090154 376.430012
L 457.119245 376.444704
L 459.148336 376.22396
L 461.175398 375.733008
L 463.208547 374.93689
L 465.23358 373.938138
L 469.29582 371.375824
L 473.354001 368.788255
L 475.381063 367.791351
L 477.410154 367.113043
L 479.437216 366.917956
L 479.437216 366.917956
" clip-path="url(#p8baed8cc54)" style="fill: none; stroke: #17becf; stroke-width: 1.5; stroke-linecap: square"/>
   </g>
   <g id="line2d_41">
    <path d="M 73.619034 381.5
L 162.901875 381.398169
L 177.106323 381.149782
L 187.250154 380.795792
L 195.366315 380.319421
L 201.452167 379.780685
L 207.542686 379.012623
L 211.600868 378.330187
L 215.659862 377.472161
L 219.716217 376.39684
L 223.774399 375.048971
L 227.831161 373.35956
L 231.891777 371.234545
L 233.91823 369.97618
L 235.948742 368.560581
L 237.976209 366.973673
L 240.006518 365.189644
L 242.035203 363.189616
L 244.066526 360.944265
L 246.095617 358.430615
L 248.123896 355.615742
L 250.15319 352.45791
L 252.17944 348.915756
L 254.21198 344.9096
L 256.239651 340.38046
L 258.26793 335.21376
L 260.298441 329.274904
L 262.327329 322.418208
L 264.353985 314.469652
L 266.385308 305.209324
L 268.413993 294.486612
L 270.44349 282.132116
L 272.471566 268.075612
L 274.49944 252.32326
L 276.528125 235.002264
L 280.588336 196.953792
L 284.644489 157.829168
L 286.675609 139.39506
L 288.7047 122.594276
L 290.73582 107.964892
L 292.762881 96.069316
L 294.791972 87.335668
L 296.823092 82.194224
L 298.850154 81.054932
L 300.879245 84.312648
L 302.910365 92.336972
L 304.935398 105.380772
L 306.968547 123.667656
L 308.99358 147.01344
L 311.026729 175.18466
L 313.051761 207.29674
L 317.111972 279.099856
L 321.170154 350.543844
L 323.199245 377.848383
L 325.226307 351.493223
L 327.257427 330.0024
L 329.286518 314.354152
L 331.31358 304.429776
L 333.34267 299.80608
L 335.37582 299.795608
L 337.40491 303.516864
L 339.429943 309.947288
L 341.461063 318.092656
L 347.546307 344.218448
L 349.579456 351.799714
L 351.604489 358.392331
L 353.635609 363.923795
L 355.6647 368.304695
L 357.69582 371.531395
L 359.722881 373.686163
L 361.751972 374.99812
L 365.812183 376.664646
L 369.868336 379.299639
L 371.899456 378.357199
L 373.926518 372.61497
L 375.955609 365.063488
L 380.011761 348.467
L 382.04491 341.408872
L 384.071972 336.468244
L 386.101063 334.238016
L 388.130154 334.965204
L 390.159245 338.551248
L 392.188336 344.700776
L 394.217427 353.053182
L 396.246518 363.218722
L 398.27358 374.674073
L 400.306729 371.267162
L 404.362881 346.092012
L 406.391972 334.855864
L 408.421063 325.631572
L 410.448125 319.106284
L 412.481274 315.8344
L 414.510365 316.23172
L 416.537427 320.394956
L 418.566518 328.195672
L 420.595609 339.073616
L 422.6247 352.262761
L 424.65379 366.933448
L 426.680852 379.09679
L 428.709943 365.818026
L 436.826307 298.55252
L 438.859456 284.875472
L 440.886518 275.58496
L 442.915609 272.331248
L 444.9447 275.858772
L 446.97379 286.028008
L 449.000852 301.909104
L 451.029943 322.248808
L 455.090154 369.150617
L 457.119245 367.66427
L 459.148336 347.046196
L 461.175398 329.434448
L 463.208547 314.796748
L 465.23358 303.840264
L 467.2647 296.404836
L 469.29582 293.121864
L 471.32491 294.173992
L 473.354001 299.840576
L 475.381063 310.125312
L 477.410154 324.521232
L 479.437216 342.029492
L 479.437216 342.029492
" clip-path="url(#p8baed8cc54)" style="fill: none; stroke: #1f77b4; stroke-width: 1.5; stroke-linecap: square"/>
   </g>
   <g id="line2d_42">
    <path d="M 73.619034 381.5
L 81.741079 381.463515
L 83.768608 381.348814
L 85.796136 381.08914
L 87.823665 380.630257
L 89.857159 379.930934
L 91.884687 378.971662
L 93.912175 377.73969
L 95.939643 376.233292
L 97.973198 374.451851
L 100.000665 372.415417
L 102.028336 370.131874
L 104.055804 367.615884
L 106.089358 364.875053
L 110.144294 358.825995
L 114.205316 352.102232
L 118.260454 344.856932
L 122.321477 337.197896
L 128.409967 325.22532
L 142.608734 296.951536
L 148.697224 285.492088
L 152.758246 278.313224
L 156.813182 271.637016
L 160.874204 265.564488
L 162.901875 262.80604
L 164.929342 260.256724
L 166.962897 257.932556
L 168.990365 255.87296
L 171.017833 254.09888
L 173.0453 252.641424
L 175.078855 251.532008
L 177.106323 250.814368
L 179.133993 250.524848
L 181.161461 250.705028
L 183.195016 251.402648
L 185.222484 252.65898
L 187.250154 254.520224
L 189.280868 257.035044
L 191.309756 260.239168
L 193.338036 264.16894
L 195.366315 268.85362
L 197.395 274.313536
L 199.425105 280.557928
L 201.452167 287.564312
L 203.483084 295.330224
L 205.514204 303.798376
L 207.542686 312.887456
L 211.600868 332.58806
L 219.716217 374.134334
L 221.74612 379.294218
L 223.774399 370.138434
L 225.804708 361.851818
L 227.831161 354.69051
L 229.862281 348.854464
L 231.891777 344.5785
L 233.91823 342.049204
L 235.948742 341.394704
L 237.976209 342.669516
L 240.006518 345.809576
L 242.035203 350.628544
L 244.066526 356.85578
L 246.095617 364.109242
L 250.15319 379.908241
L 252.17944 374.946684
L 254.21198 368.065779
L 256.239651 362.331435
L 258.26793 357.987465
L 260.298441 355.189439
L 262.327329 353.992058
L 264.353985 354.344564
L 266.385308 356.125081
L 268.413993 359.142804
L 270.44349 363.175109
L 272.471566 367.968143
L 276.528125 378.82644
L 278.557216 378.727378
L 280.588336 373.38845
L 282.615398 368.448161
L 284.644489 364.057652
L 286.675609 360.351734
L 288.7047 357.432911
L 290.73582 355.353141
L 292.762881 354.139344
L 294.791972 353.771653
L 296.823092 354.205194
L 298.850154 355.369372
L 300.879245 357.179642
L 302.910365 359.533625
L 304.935398 362.309382
L 308.99358 368.630559
L 313.051761 374.999475
L 315.082881 377.840991
L 317.111972 380.281121
L 319.143092 380.58901
L 321.170154 379.068753
L 323.199245 378.043655
L 325.226307 377.451956
L 327.257427 377.180824
L 333.34267 376.8107
L 335.37582 376.335856
L 337.40491 375.466834
L 339.429943 374.093493
L 341.461063 372.11022
L 343.490154 369.460742
L 345.519245 366.122084
L 347.546307 362.146481
L 349.579456 357.600832
L 351.604489 352.599898
L 353.635609 347.18726
L 357.69582 335.323716
L 363.783092 316.4042
L 365.812183 310.643676
L 367.837216 305.655
L 369.868336 301.696584
L 371.899456 298.9714
L 373.926518 297.558912
L 375.955609 297.407068
L 377.986729 298.394516
L 380.011761 300.355552
L 382.04491 303.160508
L 384.071972 306.70374
L 386.101063 311.0065
L 388.130154 316.148868
L 390.159245 322.22694
L 392.188336 329.29092
L 394.217427 337.26196
L 402.33379 371.503922
L 404.362881 378.310906
L 406.391972 379.524081
L 410.448125 371.932257
L 414.510365 364.84222
L 416.537427 360.811209
L 418.566518 356.23131
L 422.6247 345.786784
L 424.65379 340.518444
L 426.680852 335.686232
L 428.709943 331.487268
L 430.739034 328.099268
L 432.768125 325.456936
L 434.797216 323.534708
L 436.826307 322.420056
L 438.859456 322.44254
L 440.886518 324.021656
L 442.915609 327.726588
L 444.9447 333.742136
L 446.97379 341.939248
L 449.000852 351.756994
L 453.063092 373.327436
L 455.090154 378.058223
L 457.119245 369.285706
L 459.148336 361.880924
L 461.175398 356.097762
L 463.208547 351.995756
L 465.23358 349.66666
L 467.2647 348.754672
L 469.29582 349.777232
L 471.32491 352.225278
L 473.354001 356.8596
L 475.381063 363.151947
L 477.410154 371.39951
L 479.437216 380.51797
L 479.437216 380.51797
" clip-path="url(#p8baed8cc54)" style="fill: none; stroke: #ff7f0e; stroke-width: 1.5; stroke-linecap: square"/>
   </g>
   <g id="patch_3">
    <path d="M 53.328125 383.04
L 53.328125 50.4
" style="fill: none; stroke: #000000; stroke-width: 0.8; stroke-linejoin: miter; stroke-linecap: square"/>
   </g>
   <g id="patch_4">
    <path d="M 499.728125 383.04
L 499.728125 50.4
" style="fill: none; stroke: #000000; stroke-width: 0.8; stroke-linejoin: miter; stroke-linecap: square"/>
   </g>
   <g id="patch_5">
    <path d="M 53.328125 383.04
L 499.728125 383.04
" style="fill: none; stroke: #000000; stroke-width: 0.8; stroke-linejoin: miter; stroke-linecap: square"/>
   </g>
   <g id="patch_6">
    <path d="M 53.328125 50.4
L 499.728125 50.4
" style="fill: none; stroke: #000000; stroke-width: 0.8; stroke-linejoin: miter; stroke-linecap: square"/>
   </g>
   <g id="text_18">
    <!-- rate_of_deformation_sr3c.svg created 2025-01-22 11:15:16 EST-0500 by chovey on s1088757 -->
    <g style="fill: #696969" transform="translate(87.8225 44.4) scale(0.08 -0.08)">
     <defs>
      <path id="DejaVuSans-5f" d="M 3263 -1063
L 3263 -1509
L -63 -1509
L -63 -1063
L 3263 -1063
z
" transform="scale(0.015625)"/>
      <path id="DejaVuSans-33" d="M 2597 2516
Q 3050 2419 3304 2112
Q 3559 1806 3559 1356
Q 3559 666 3084 287
Q 2609 -91 1734 -91
Q 1441 -91 1130 -33
Q 819 25 488 141
L 488 750
Q 750 597 1062 519
Q 1375 441 1716 441
Q 2309 441 2620 675
Q 2931 909 2931 1356
Q 2931 1769 2642 2001
Q 2353 2234 1838 2234
L 1294 2234
L 1294 2753
L 1863 2753
Q 2328 2753 2575 2939
Q 2822 3125 2822 3475
Q 2822 3834 2567 4026
Q 2313 4219 1838 4219
Q 1578 4219 1281 4162
Q 984 4106 628 3988
L 628 4550
Q 988 4650 1302 4700
Q 1616 4750 1894 4750
Q 2613 4750 3031 4423
Q 3450 4097 3450 3541
Q 3450 3153 3228 2886
Q 3006 2619 2597 2516
z
" transform="scale(0.015625)"/>
      <path id="DejaVuSans-76" d="M 191 3500
L 800 3500
L 1894 563
L 2988 3500
L 3597 3500
L 2284 0
L 1503 0
L 191 3500
z
" transform="scale(0.015625)"/>
      <path id="DejaVuSans-67" d="M 2906 1791
Q 2906 2416 2648 2759
Q 2391 3103 1925 3103
Q 1463 3103 1205 2759
Q 947 2416 947 1791
Q 947 1169 1205 825
Q 1463 481 1925 481
Q 2391 481 2648 825
Q 2906 1169 2906 1791
z
M 3481 434
Q 3481 -459 3084 -895
Q 2688 -1331 1869 -1331
Q 1566 -1331 1297 -1286
Q 1028 -1241 775 -1147
L 775 -588
Q 1028 -725 1275 -790
Q 1522 -856 1778 -856
Q 2344 -856 2625 -561
Q 2906 -266 2906 331
L 2906 616
Q 2728 306 2450 153
Q 2172 0 1784 0
Q 1141 0 747 490
Q 353 981 353 1791
Q 353 2603 747 3093
Q 1141 3584 1784 3584
Q 2172 3584 2450 3431
Q 2728 3278 2906 2969
L 2906 3500
L 3481 3500
L 3481 434
z
" transform="scale(0.015625)"/>
      <path id="DejaVuSans-2d" d="M 313 2009
L 1997 2009
L 1997 1497
L 313 1497
L 313 2009
z
" transform="scale(0.015625)"/>
      <path id="DejaVuSans-3a" d="M 750 794
L 1409 794
L 1409 0
L 750 0
L 750 794
z
M 750 3309
L 1409 3309
L 1409 2516
L 750 2516
L 750 3309
z
" transform="scale(0.015625)"/>
      <path id="DejaVuSans-45" d="M 628 4666
L 3578 4666
L 3578 4134
L 1259 4134
L 1259 2753
L 3481 2753
L 3481 2222
L 1259 2222
L 1259 531
L 3634 531
L 3634 0
L 628 0
L 628 4666
z
" transform="scale(0.015625)"/>
      <path id="DejaVuSans-53" d="M 3425 4513
L 3425 3897
Q 3066 4069 2747 4153
Q 2428 4238 2131 4238
Q 1616 4238 1336 4038
Q 1056 3838 1056 3469
Q 1056 3159 1242 3001
Q 1428 2844 1947 2747
L 2328 2669
Q 3034 2534 3370 2195
Q 3706 1856 3706 1288
Q 3706 609 3251 259
Q 2797 -91 1919 -91
Q 1588 -91 1214 -16
Q 841 59 441 206
L 441 856
Q 825 641 1194 531
Q 1563 422 1919 422
Q 2459 422 2753 634
Q 3047 847 3047 1241
Q 3047 1584 2836 1778
Q 2625 1972 2144 2069
L 1759 2144
Q 1053 2284 737 2584
Q 422 2884 422 3419
Q 422 4038 858 4394
Q 1294 4750 2059 4750
Q 2388 4750 2728 4690
Q 3069 4631 3425 4513
z
" transform="scale(0.015625)"/>
      <path id="DejaVuSans-54" d="M -19 4666
L 3928 4666
L 3928 4134
L 2272 4134
L 2272 0
L 1638 0
L 1638 4134
L -19 4134
L -19 4666
z
" transform="scale(0.015625)"/>
      <path id="DejaVuSans-62" d="M 3116 1747
Q 3116 2381 2855 2742
Q 2594 3103 2138 3103
Q 1681 3103 1420 2742
Q 1159 2381 1159 1747
Q 1159 1113 1420 752
Q 1681 391 2138 391
Q 2594 391 2855 752
Q 3116 1113 3116 1747
z
M 1159 2969
Q 1341 3281 1617 3432
Q 1894 3584 2278 3584
Q 2916 3584 3314 3078
Q 3713 2572 3713 1747
Q 3713 922 3314 415
Q 2916 -91 2278 -91
Q 1894 -91 1617 61
Q 1341 213 1159 525
L 1159 0
L 581 0
L 581 4863
L 1159 4863
L 1159 2969
z
" transform="scale(0.015625)"/>
      <path id="DejaVuSans-79" d="M 2059 -325
Q 1816 -950 1584 -1140
Q 1353 -1331 966 -1331
L 506 -1331
L 506 -850
L 844 -850
Q 1081 -850 1212 -737
Q 1344 -625 1503 -206
L 1606 56
L 191 3500
L 800 3500
L 1894 763
L 2988 3500
L 3597 3500
L 2059 -325
z
" transform="scale(0.015625)"/>
      <path id="DejaVuSans-68" d="M 3513 2113
L 3513 0
L 2938 0
L 2938 2094
Q 2938 2591 2744 2837
Q 2550 3084 2163 3084
Q 1697 3084 1428 2787
Q 1159 2491 1159 1978
L 1159 0
L 581 0
L 581 4863
L 1159 4863
L 1159 2956
Q 1366 3272 1645 3428
Q 1925 3584 2291 3584
Q 2894 3584 3203 3211
Q 3513 2838 3513 2113
z
" transform="scale(0.015625)"/>
     </defs>
     <use xlink:href="#DejaVuSans-72"/>
     <use xlink:href="#DejaVuSans-61" transform="translate(41.113281 0)"/>
     <use xlink:href="#DejaVuSans-74" transform="translate(102.392578 0)"/>
     <use xlink:href="#DejaVuSans-65" transform="translate(141.601562 0)"/>
     <use xlink:href="#DejaVuSans-5f" transform="translate(203.125 0)"/>
     <use xlink:href="#DejaVuSans-6f" transform="translate(253.125 0)"/>
     <use xlink:href="#DejaVuSans-66" transform="translate(314.306641 0)"/>
     <use xlink:href="#DejaVuSans-5f" transform="translate(349.511719 0)"/>
     <use xlink:href="#DejaVuSans-64" transform="translate(399.511719 0)"/>
     <use xlink:href="#DejaVuSans-65" transform="translate(462.988281 0)"/>
     <use xlink:href="#DejaVuSans-66" transform="translate(524.511719 0)"/>
     <use xlink:href="#DejaVuSans-6f" transform="translate(559.716797 0)"/>
     <use xlink:href="#DejaVuSans-72" transform="translate(620.898438 0)"/>
     <use xlink:href="#DejaVuSans-6d" transform="translate(660.261719 0)"/>
     <use xlink:href="#DejaVuSans-61" transform="translate(757.673828 0)"/>
     <use xlink:href="#DejaVuSans-74" transform="translate(818.953125 0)"/>
     <use xlink:href="#DejaVuSans-69" transform="translate(858.162109 0)"/>
     <use xlink:href="#DejaVuSans-6f" transform="translate(885.945312 0)"/>
     <use xlink:href="#DejaVuSans-6e" transform="translate(947.126953 0)"/>
     <use xlink:href="#DejaVuSans-5f" transform="translate(1010.505859 0)"/>
     <use xlink:href="#DejaVuSans-73" transform="translate(1060.505859 0)"/>
     <use xlink:href="#DejaVuSans-72" transform="translate(1112.605469 0)"/>
     <use xlink:href="#DejaVuSans-33" transform="translate(1153.71875 0)"/>
     <use xlink:href="#DejaVuSans-63" transform="translate(1217.341797 0)"/>
     <use xlink:href="#DejaVuSans-2e" transform="translate(1272.322266 0)"/>
     <use xlink:href="#DejaVuSans-73" transform="translate(1304.109375 0)"/>
     <use xlink:href="#DejaVuSans-76" transform="translate(1356.208984 0)"/>
     <use xlink:href="#DejaVuSans-67" transform="translate(1415.388672 0)"/>
     <use xlink:href="#DejaVuSans-20" transform="translate(1478.865234 0)"/>
     <use xlink:href="#DejaVuSans-63" transform="translate(1510.652344 0)"/>
     <use xlink:href="#DejaVuSans-72" transform="translate(1565.632812 0)"/>
     <use xlink:href="#DejaVuSans-65" transform="translate(1604.496094 0)"/>
     <use xlink:href="#DejaVuSans-61" transform="translate(1666.019531 0)"/>
     <use xlink:href="#DejaVuSans-74" transform="translate(1727.298828 0)"/>
     <use xlink:href="#DejaVuSans-65" transform="translate(1766.507812 0)"/>
     <use xlink:href="#DejaVuSans-64" transform="translate(1828.03125 0)"/>
     <use xlink:href="#DejaVuSans-20" transform="translate(1891.507812 0)"/>
     <use xlink:href="#DejaVuSans-32" transform="translate(1923.294922 0)"/>
     <use xlink:href="#DejaVuSans-30" transform="translate(1986.917969 0)"/>
     <use xlink:href="#DejaVuSans-32" transform="translate(2050.541016 0)"/>
     <use xlink:href="#DejaVuSans-35" transform="translate(2114.164062 0)"/>
     <use xlink:href="#DejaVuSans-2d" transform="translate(2177.787109 0)"/>
     <use xlink:href="#DejaVuSans-30" transform="translate(2213.871094 0)"/>
     <use xlink:href="#DejaVuSans-31" transform="translate(2277.494141 0)"/>
     <use xlink:href="#DejaVuSans-2d" transform="translate(2341.117188 0)"/>
     <use xlink:href="#DejaVuSans-32" transform="translate(2377.201172 0)"/>
     <use xlink:href="#DejaVuSans-32" transform="translate(2440.824219 0)"/>
     <use xlink:href="#DejaVuSans-20" transform="translate(2504.447266 0)"/>
     <use xlink:href="#DejaVuSans-31" transform="translate(2536.234375 0)"/>
     <use xlink:href="#DejaVuSans-31" transform="translate(2599.857422 0)"/>
     <use xlink:href="#DejaVuSans-3a" transform="translate(2663.480469 0)"/>
     <use xlink:href="#DejaVuSans-31" transform="translate(2697.171875 0)"/>
     <use xlink:href="#DejaVuSans-35" transform="translate(2760.794922 0)"/>
     <use xlink:href="#DejaVuSans-3a" transform="translate(2824.417969 0)"/>
     <use xlink:href="#DejaVuSans-31" transform="translate(2858.109375 0)"/>
     <use xlink:href="#DejaVuSans-36" transform="translate(2921.732422 0)"/>
     <use xlink:href="#DejaVuSans-20" transform="translate(2985.355469 0)"/>
     <use xlink:href="#DejaVuSans-45" transform="translate(3017.142578 0)"/>
     <use xlink:href="#DejaVuSans-53" transform="translate(3080.326172 0)"/>
     <use xlink:href="#DejaVuSans-54" transform="translate(3143.802734 0)"/>
     <use xlink:href="#DejaVuSans-2d" transform="translate(3195.761719 0)"/>
     <use xlink:href="#DejaVuSans-30" transform="translate(3231.845703 0)"/>
     <use xlink:href="#DejaVuSans-35" transform="translate(3295.46875 0)"/>
     <use xlink:href="#DejaVuSans-30" transform="translate(3359.091797 0)"/>
     <use xlink:href="#DejaVuSans-30" transform="translate(3422.714844 0)"/>
     <use xlink:href="#DejaVuSans-20" transform="translate(3486.337891 0)"/>
     <use xlink:href="#DejaVuSans-62" transform="translate(3518.125 0)"/>
     <use xlink:href="#DejaVuSans-79" transform="translate(3581.601562 0)"/>
     <use xlink:href="#DejaVuSans-20" transform="translate(3640.78125 0)"/>
     <use xlink:href="#DejaVuSans-63" transform="translate(3672.568359 0)"/>
     <use xlink:href="#DejaVuSans-68" transform="translate(3727.548828 0)"/>
     <use xlink:href="#DejaVuSans-6f" transform="translate(3790.927734 0)"/>
     <use xlink:href="#DejaVuSans-76" transform="translate(3852.109375 0)"/>
     <use xlink:href="#DejaVuSans-65" transform="translate(3911.289062 0)"/>
     <use xlink:href="#DejaVuSans-79" transform="translate(3972.8125 0)"/>
     <use xlink:href="#DejaVuSans-20" transform="translate(4031.992188 0)"/>
     <use xlink:href="#DejaVuSans-6f" transform="translate(4063.779297 0)"/>
     <use xlink:href="#DejaVuSans-6e" transform="translate(4124.960938 0)"/>
     <use xlink:href="#DejaVuSans-20" transform="translate(4188.339844 0)"/>
     <use xlink:href="#DejaVuSans-73" transform="translate(4220.126953 0)"/>
     <use xlink:href="#DejaVuSans-31" transform="translate(4272.226562 0)"/>
     <use xlink:href="#DejaVuSans-30" transform="translate(4335.849609 0)"/>
     <use xlink:href="#DejaVuSans-38" transform="translate(4399.472656 0)"/>
     <use xlink:href="#DejaVuSans-38" transform="translate(4463.095703 0)"/>
     <use xlink:href="#DejaVuSans-37" transform="translate(4526.71875 0)"/>
     <use xlink:href="#DejaVuSans-35" transform="translate(4590.341797 0)"/>
     <use xlink:href="#DejaVuSans-37" transform="translate(4653.964844 0)"/>
    </g>
   </g>
   <g id="legend_1">
    <g id="patch_7">
     <path d="M 417.095312 234.5375
L 492.728125 234.5375
Q 494.728125 234.5375 494.728125 232.5375
L 494.728125 57.4
Q 494.728125 55.4 492.728125 55.4
L 417.095312 55.4
Q 415.095312 55.4 415.095312 57.4
L 415.095312 232.5375
Q 415.095312 234.5375 417.095312 234.5375
z
" style="fill: #ffffff; opacity: 0.8; stroke: #cccccc; stroke-linejoin: miter"/>
    </g>
    <g id="line2d_43">
     <path d="M 419.095312 63.498437
L 429.095312 63.498437
L 439.095312 63.498437
" style="fill: none; stroke-dasharray: 5.55,2.4; stroke-dashoffset: 0; stroke: #1f77b4; stroke-width: 1.5"/>
    </g>
    <g id="text_19">
     <!-- r=0 cm -->
     <g transform="translate(447.095312 66.998437) scale(0.1 -0.1)">
      <defs>
       <path id="DejaVuSans-3d" d="M 678 2906
L 4684 2906
L 4684 2381
L 678 2381
L 678 2906
z
M 678 1631
L 4684 1631
L 4684 1100
L 678 1100
L 678 1631
z
" transform="scale(0.015625)"/>
      </defs>
      <use xlink:href="#DejaVuSans-72"/>
      <use xlink:href="#DejaVuSans-3d" transform="translate(41.113281 0)"/>
      <use xlink:href="#DejaVuSans-30" transform="translate(124.902344 0)"/>
      <use xlink:href="#DejaVuSans-20" transform="translate(188.525391 0)"/>
      <use xlink:href="#DejaVuSans-63" transform="translate(220.3125 0)"/>
      <use xlink:href="#DejaVuSans-6d" transform="translate(275.292969 0)"/>
     </g>
    </g>
    <g id="line2d_44">
     <path d="M 419.095312 78.176562
L 429.095312 78.176562
L 439.095312 78.176562
" style="fill: none; stroke-dasharray: 1.5,2.475; stroke-dashoffset: 0; stroke: #ff7f0e; stroke-width: 1.5"/>
    </g>
    <g id="text_20">
     <!-- r=1 cm -->
     <g transform="translate(447.095312 81.676562) scale(0.1 -0.1)">
      <use xlink:href="#DejaVuSans-72"/>
      <use xlink:href="#DejaVuSans-3d" transform="translate(41.113281 0)"/>
      <use xlink:href="#DejaVuSans-31" transform="translate(124.902344 0)"/>
      <use xlink:href="#DejaVuSans-20" transform="translate(188.525391 0)"/>
      <use xlink:href="#DejaVuSans-63" transform="translate(220.3125 0)"/>
      <use xlink:href="#DejaVuSans-6d" transform="translate(275.292969 0)"/>
     </g>
    </g>
    <g id="line2d_45">
     <path d="M 419.095312 92.854687
L 429.095312 92.854687
L 439.095312 92.854687
" style="fill: none; stroke: #2ca02c; stroke-width: 1.5; stroke-linecap: square"/>
    </g>
    <g id="text_21">
     <!-- r=2 cm -->
     <g transform="translate(447.095312 96.354687) scale(0.1 -0.1)">
      <use xlink:href="#DejaVuSans-72"/>
      <use xlink:href="#DejaVuSans-3d" transform="translate(41.113281 0)"/>
      <use xlink:href="#DejaVuSans-32" transform="translate(124.902344 0)"/>
      <use xlink:href="#DejaVuSans-20" transform="translate(188.525391 0)"/>
      <use xlink:href="#DejaVuSans-63" transform="translate(220.3125 0)"/>
      <use xlink:href="#DejaVuSans-6d" transform="translate(275.292969 0)"/>
     </g>
    </g>
    <g id="line2d_46">
     <path d="M 419.095312 107.532812
L 429.095312 107.532812
L 439.095312 107.532812
" style="fill: none; stroke: #d62728; stroke-width: 1.5; stroke-linecap: square"/>
    </g>
    <g id="text_22">
     <!-- r=3 cm -->
     <g transform="translate(447.095312 111.032812) scale(0.1 -0.1)">
      <use xlink:href="#DejaVuSans-72"/>
      <use xlink:href="#DejaVuSans-3d" transform="translate(41.113281 0)"/>
      <use xlink:href="#DejaVuSans-33" transform="translate(124.902344 0)"/>
      <use xlink:href="#DejaVuSans-20" transform="translate(188.525391 0)"/>
      <use xlink:href="#DejaVuSans-63" transform="translate(220.3125 0)"/>
      <use xlink:href="#DejaVuSans-6d" transform="translate(275.292969 0)"/>
     </g>
    </g>
    <g id="line2d_47">
     <path d="M 419.095312 122.210937
L 429.095312 122.210937
L 439.095312 122.210937
" style="fill: none; stroke: #9467bd; stroke-width: 1.5; stroke-linecap: square"/>
    </g>
    <g id="text_23">
     <!-- r=4 cm -->
     <g transform="translate(447.095312 125.710937) scale(0.1 -0.1)">
      <use xlink:href="#DejaVuSans-72"/>
      <use xlink:href="#DejaVuSans-3d" transform="translate(41.113281 0)"/>
      <use xlink:href="#DejaVuSans-34" transform="translate(124.902344 0)"/>
      <use xlink:href="#DejaVuSans-20" transform="translate(188.525391 0)"/>
      <use xlink:href="#DejaVuSans-63" transform="translate(220.3125 0)"/>
      <use xlink:href="#DejaVuSans-6d" transform="translate(275.292969 0)"/>
     </g>
    </g>
    <g id="line2d_48">
     <path d="M 419.095312 136.889062
L 429.095312 136.889062
L 439.095312 136.889062
" style="fill: none; stroke: #8c564b; stroke-width: 1.5; stroke-linecap: square"/>
    </g>
    <g id="text_24">
     <!-- r=5 cm -->
     <g transform="translate(447.095312 140.389062) scale(0.1 -0.1)">
      <use xlink:href="#DejaVuSans-72"/>
      <use xlink:href="#DejaVuSans-3d" transform="translate(41.113281 0)"/>
      <use xlink:href="#DejaVuSans-35" transform="translate(124.902344 0)"/>
      <use xlink:href="#DejaVuSans-20" transform="translate(188.525391 0)"/>
      <use xlink:href="#DejaVuSans-63" transform="translate(220.3125 0)"/>
      <use xlink:href="#DejaVuSans-6d" transform="translate(275.292969 0)"/>
     </g>
    </g>
    <g id="line2d_49">
     <path d="M 419.095312 151.567187
L 429.095312 151.567187
L 439.095312 151.567187
" style="fill: none; stroke: #e377c2; stroke-width: 1.5; stroke-linecap: square"/>
    </g>
    <g id="text_25">
     <!-- r=6 cm -->
     <g transform="translate(447.095312 155.067187) scale(0.1 -0.1)">
      <use xlink:href="#DejaVuSans-72"/>
      <use xlink:href="#DejaVuSans-3d" transform="translate(41.113281 0)"/>
      <use xlink:href="#DejaVuSans-36" transform="translate(124.902344 0)"/>
      <use xlink:href="#DejaVuSans-20" transform="translate(188.525391 0)"/>
      <use xlink:href="#DejaVuSans-63" transform="translate(220.3125 0)"/>
      <use xlink:href="#DejaVuSans-6d" transform="translate(275.292969 0)"/>
     </g>
    </g>
    <g id="line2d_50">
     <path d="M 419.095312 166.245312
L 429.095312 166.245312
L 439.095312 166.245312
" style="fill: none; stroke: #7f7f7f; stroke-width: 1.5; stroke-linecap: square"/>
    </g>
    <g id="text_26">
     <!-- r=7 cm -->
     <g transform="translate(447.095312 169.745312) scale(0.1 -0.1)">
      <use xlink:href="#DejaVuSans-72"/>
      <use xlink:href="#DejaVuSans-3d" transform="translate(41.113281 0)"/>
      <use xlink:href="#DejaVuSans-37" transform="translate(124.902344 0)"/>
      <use xlink:href="#DejaVuSans-20" transform="translate(188.525391 0)"/>
      <use xlink:href="#DejaVuSans-63" transform="translate(220.3125 0)"/>
      <use xlink:href="#DejaVuSans-6d" transform="translate(275.292969 0)"/>
     </g>
    </g>
    <g id="line2d_51">
     <path d="M 419.095312 180.923437
L 429.095312 180.923437
L 439.095312 180.923437
" style="fill: none; stroke: #bcbd22; stroke-width: 1.5; stroke-linecap: square"/>
    </g>
    <g id="text_27">
     <!-- r=8 cm -->
     <g transform="translate(447.095312 184.423437) scale(0.1 -0.1)">
      <use xlink:href="#DejaVuSans-72"/>
      <use xlink:href="#DejaVuSans-3d" transform="translate(41.113281 0)"/>
      <use xlink:href="#DejaVuSans-38" transform="translate(124.902344 0)"/>
      <use xlink:href="#DejaVuSans-20" transform="translate(188.525391 0)"/>
      <use xlink:href="#DejaVuSans-63" transform="translate(220.3125 0)"/>
      <use xlink:href="#DejaVuSans-6d" transform="translate(275.292969 0)"/>
     </g>
    </g>
    <g id="line2d_52">
     <path d="M 419.095312 195.601562
L 429.095312 195.601562
L 439.095312 195.601562
" style="fill: none; stroke: #17becf; stroke-width: 1.5; stroke-linecap: square"/>
    </g>
    <g id="text_28">
     <!-- r=9 cm -->
     <g transform="translate(447.095312 199.101562) scale(0.1 -0.1)">
      <defs>
       <path id="DejaVuSans-39" d="M 703 97
L 703 672
Q 941 559 1184 500
Q 1428 441 1663 441
Q 2288 441 2617 861
Q 2947 1281 2994 2138
Q 2813 1869 2534 1725
Q 2256 1581 1919 1581
Q 1219 1581 811 2004
Q 403 2428 403 3163
Q 403 3881 828 4315
Q 1253 4750 1959 4750
Q 2769 4750 3195 4129
Q 3622 3509 3622 2328
Q 3622 1225 3098 567
Q 2575 -91 1691 -91
Q 1453 -91 1209 -44
Q 966 3 703 97
z
M 1959 2075
Q 2384 2075 2632 2365
Q 2881 2656 2881 3163
Q 2881 3666 2632 3958
Q 2384 4250 1959 4250
Q 1534 4250 1286 3958
Q 1038 3666 1038 3163
Q 1038 2656 1286 2365
Q 1534 2075 1959 2075
z
" transform="scale(0.015625)"/>
      </defs>
      <use xlink:href="#DejaVuSans-72"/>
      <use xlink:href="#DejaVuSans-3d" transform="translate(41.113281 0)"/>
      <use xlink:href="#DejaVuSans-39" transform="translate(124.902344 0)"/>
      <use xlink:href="#DejaVuSans-20" transform="translate(188.525391 0)"/>
      <use xlink:href="#DejaVuSans-63" transform="translate(220.3125 0)"/>
      <use xlink:href="#DejaVuSans-6d" transform="translate(275.292969 0)"/>
     </g>
    </g>
    <g id="line2d_53">
     <path d="M 419.095312 210.279687
L 429.095312 210.279687
L 439.095312 210.279687
" style="fill: none; stroke: #1f77b4; stroke-width: 1.5; stroke-linecap: square"/>
    </g>
    <g id="text_29">
     <!-- r=10 cm -->
     <g transform="translate(447.095312 213.779687) scale(0.1 -0.1)">
      <use xlink:href="#DejaVuSans-72"/>
      <use xlink:href="#DejaVuSans-3d" transform="translate(41.113281 0)"/>
      <use xlink:href="#DejaVuSans-31" transform="translate(124.902344 0)"/>
      <use xlink:href="#DejaVuSans-30" transform="translate(188.525391 0)"/>
      <use xlink:href="#DejaVuSans-20" transform="translate(252.148438 0)"/>
      <use xlink:href="#DejaVuSans-63" transform="translate(283.935547 0)"/>
      <use xlink:href="#DejaVuSans-6d" transform="translate(338.916016 0)"/>
     </g>
    </g>
    <g id="line2d_54">
     <path d="M 419.095312 224.957812
L 429.095312 224.957812
L 439.095312 224.957812
" style="fill: none; stroke: #ff7f0e; stroke-width: 1.5; stroke-linecap: square"/>
    </g>
    <g id="text_30">
     <!-- r=11 cm -->
     <g transform="translate(447.095312 228.457812) scale(0.1 -0.1)">
      <use xlink:href="#DejaVuSans-72"/>
      <use xlink:href="#DejaVuSans-3d" transform="translate(41.113281 0)"/>
      <use xlink:href="#DejaVuSans-31" transform="translate(124.902344 0)"/>
      <use xlink:href="#DejaVuSans-31" transform="translate(188.525391 0)"/>
      <use xlink:href="#DejaVuSans-20" transform="translate(252.148438 0)"/>
      <use xlink:href="#DejaVuSans-63" transform="translate(283.935547 0)"/>
      <use xlink:href="#DejaVuSans-6d" transform="translate(338.916016 0)"/>
     </g>
    </g>
   </g>
  </g>
  <g id="text_31">
   <!-- Maximum Principal Rate of Deformation at Various Radii (sr3c) -->
   <g transform="translate(81.610625 16.318125) scale(0.12 -0.12)">
    <defs>
     <path id="DejaVuSans-4d" d="M 628 4666
L 1569 4666
L 2759 1491
L 3956 4666
L 4897 4666
L 4897 0
L 4281 0
L 4281 4097
L 3078 897
L 2444 897
L 1241 4097
L 1241 0
L 628 0
L 628 4666
z
" transform="scale(0.015625)"/>
     <path id="DejaVuSans-50" d="M 1259 4147
L 1259 2394
L 2053 2394
Q 2494 2394 2734 2622
Q 2975 2850 2975 3272
Q 2975 3691 2734 3919
Q 2494 4147 2053 4147
L 1259 4147
z
M 628 4666
L 2053 4666
Q 2838 4666 3239 4311
Q 3641 3956 3641 3272
Q 3641 2581 3239 2228
Q 2838 1875 2053 1875
L 1259 1875
L 1259 0
L 628 0
L 628 4666
z
" transform="scale(0.015625)"/>
     <path id="DejaVuSans-52" d="M 2841 2188
Q 3044 2119 3236 1894
Q 3428 1669 3622 1275
L 4263 0
L 3584 0
L 2988 1197
Q 2756 1666 2539 1819
Q 2322 1972 1947 1972
L 1259 1972
L 1259 0
L 628 0
L 628 4666
L 2053 4666
Q 2853 4666 3247 4331
Q 3641 3997 3641 3322
Q 3641 2881 3436 2590
Q 3231 2300 2841 2188
z
M 1259 4147
L 1259 2491
L 2053 2491
Q 2509 2491 2742 2702
Q 2975 2913 2975 3322
Q 2975 3731 2742 3939
Q 2509 4147 2053 4147
L 1259 4147
z
" transform="scale(0.015625)"/>
     <path id="DejaVuSans-44" d="M 1259 4147
L 1259 519
L 2022 519
Q 2988 519 3436 956
Q 3884 1394 3884 2338
Q 3884 3275 3436 3711
Q 2988 4147 2022 4147
L 1259 4147
z
M 628 4666
L 1925 4666
Q 3281 4666 3915 4102
Q 4550 3538 4550 2338
Q 4550 1131 3912 565
Q 3275 0 1925 0
L 628 0
L 628 4666
z
" transform="scale(0.015625)"/>
     <path id="DejaVuSans-56" d="M 1831 0
L 50 4666
L 709 4666
L 2188 738
L 3669 4666
L 4325 4666
L 2547 0
L 1831 0
z
" transform="scale(0.015625)"/>
    </defs>
    <use xlink:href="#DejaVuSans-4d"/>
    <use xlink:href="#DejaVuSans-61" transform="translate(86.279297 0)"/>
    <use xlink:href="#DejaVuSans-78" transform="translate(147.558594 0)"/>
    <use xlink:href="#DejaVuSans-69" transform="translate(206.738281 0)"/>
    <use xlink:href="#DejaVuSans-6d" transform="translate(234.521484 0)"/>
    <use xlink:href="#DejaVuSans-75" transform="translate(331.933594 0)"/>
    <use xlink:href="#DejaVuSans-6d" transform="translate(395.3125 0)"/>
    <use xlink:href="#DejaVuSans-20" transform="translate(492.724609 0)"/>
    <use xlink:href="#DejaVuSans-50" transform="translate(524.511719 0)"/>
    <use xlink:href="#DejaVuSans-72" transform="translate(583.064453 0)"/>
    <use xlink:href="#DejaVuSans-69" transform="translate(624.177734 0)"/>
    <use xlink:href="#DejaVuSans-6e" transform="translate(651.960938 0)"/>
    <use xlink:href="#DejaVuSans-63" transform="translate(715.339844 0)"/>
    <use xlink:href="#DejaVuSans-69" transform="translate(770.320312 0)"/>
    <use xlink:href="#DejaVuSans-70" transform="translate(798.103516 0)"/>
    <use xlink:href="#DejaVuSans-61" transform="translate(861.580078 0)"/>
    <use xlink:href="#DejaVuSans-6c" transform="translate(922.859375 0)"/>
    <use xlink:href="#DejaVuSans-20" transform="translate(950.642578 0)"/>
    <use xlink:href="#DejaVuSans-52" transform="translate(982.429688 0)"/>
    <use xlink:href="#DejaVuSans-61" transform="translate(1049.662109 0)"/>
    <use xlink:href="#DejaVuSans-74" transform="translate(1110.941406 0)"/>
    <use xlink:href="#DejaVuSans-65" transform="translate(1150.150391 0)"/>
    <use xlink:href="#DejaVuSans-20" transform="translate(1211.673828 0)"/>
    <use xlink:href="#DejaVuSans-6f" transform="translate(1243.460938 0)"/>
    <use xlink:href="#DejaVuSans-66" transform="translate(1304.642578 0)"/>
    <use xlink:href="#DejaVuSans-20" transform="translate(1339.847656 0)"/>
    <use xlink:href="#DejaVuSans-44" transform="translate(1371.634766 0)"/>
    <use xlink:href="#DejaVuSans-65" transform="translate(1448.636719 0)"/>
    <use xlink:href="#DejaVuSans-66" transform="translate(1510.160156 0)"/>
    <use xlink:href="#DejaVuSans-6f" transform="translate(1545.365234 0)"/>
    <use xlink:href="#DejaVuSans-72" transform="translate(1606.546875 0)"/>
    <use xlink:href="#DejaVuSans-6d" transform="translate(1645.910156 0)"/>
    <use xlink:href="#DejaVuSans-61" transform="translate(1743.322266 0)"/>
    <use xlink:href="#DejaVuSans-74" transform="translate(1804.601562 0)"/>
    <use xlink:href="#DejaVuSans-69" transform="translate(1843.810547 0)"/>
    <use xlink:href="#DejaVuSans-6f" transform="translate(1871.59375 0)"/>
    <use xlink:href="#DejaVuSans-6e" transform="translate(1932.775391 0)"/>
    <use xlink:href="#DejaVuSans-20" transform="translate(1996.154297 0)"/>
    <use xlink:href="#DejaVuSans-61" transform="translate(2027.941406 0)"/>
    <use xlink:href="#DejaVuSans-74" transform="translate(2089.220703 0)"/>
    <use xlink:href="#DejaVuSans-20" transform="translate(2128.429688 0)"/>
    <use xlink:href="#DejaVuSans-56" transform="translate(2160.216797 0)"/>
    <use xlink:href="#DejaVuSans-61" transform="translate(2220.875 0)"/>
    <use xlink:href="#DejaVuSans-72" transform="translate(2282.154297 0)"/>
    <use xlink:href="#DejaVuSans-69" transform="translate(2323.267578 0)"/>
    <use xlink:href="#DejaVuSans-6f" transform="translate(2351.050781 0)"/>
    <use xlink:href="#DejaVuSans-75" transform="translate(2412.232422 0)"/>
    <use xlink:href="#DejaVuSans-73" transform="translate(2475.611328 0)"/>
    <use xlink:href="#DejaVuSans-20" transform="translate(2527.710938 0)"/>
    <use xlink:href="#DejaVuSans-52" transform="translate(2559.498047 0)"/>
    <use xlink:href="#DejaVuSans-61" transform="translate(2626.730469 0)"/>
    <use xlink:href="#DejaVuSans-64" transform="translate(2688.009766 0)"/>
    <use xlink:href="#DejaVuSans-69" transform="translate(2751.486328 0)"/>
    <use xlink:href="#DejaVuSans-69" transform="translate(2779.269531 0)"/>
    <use xlink:href="#DejaVuSans-20" transform="translate(2807.052734 0)"/>
    <use xlink:href="#DejaVuSans-28" transform="translate(2838.839844 0)"/>
    <use xlink:href="#DejaVuSans-73" transform="translate(2877.853516 0)"/>
    <use xlink:href="#DejaVuSans-72" transform="translate(2929.953125 0)"/>
    <use xlink:href="#DejaVuSans-33" transform="translate(2971.066406 0)"/>
    <use xlink:href="#DejaVuSans-63" transform="translate(3034.689453 0)"/>
    <use xlink:href="#DejaVuSans-29" transform="translate(3089.669922 0)"/>
   </g>
  </g>
 </g>
 <defs>
  <clipPath id="p8baed8cc54">
   <rect x="53.328125" y="50.4" width="446.4" height="332.64"/>
  </clipPath>
 </defs>
</svg>
