<?xml version="1.0" encoding="utf-8" standalone="no"?>
<!DOCTYPE svg PUBLIC "-//W3C//DTD SVG 1.1//EN"
  "http://www.w3.org/Graphics/SVG/1.1/DTD/svg11.dtd">
<svg xmlns:xlink="http://www.w3.org/1999/xlink" width="506.928125pt" height="420.59625pt" viewBox="0 0 506.928125 420.59625" xmlns="http://www.w3.org/2000/svg" version="1.1">
 <metadata>
  <rdf:RDF xmlns:dc="http://purl.org/dc/elements/1.1/" xmlns:cc="http://creativecommons.org/ns#" xmlns:rdf="http://www.w3.org/1999/02/22-rdf-syntax-ns#">
   <cc:Work>
    <dc:type rdf:resource="http://purl.org/dc/dcmitype/StillImage"/>
    <dc:date>2025-01-09T10:04:50.711533</dc:date>
    <dc:format>image/svg+xml</dc:format>
    <dc:creator>
     <cc:Agent>
      <dc:title>Matplotlib v3.10.0, https://matplotlib.org/</dc:title>
     </cc:Agent>
    </dc:creator>
   </cc:Work>
  </rdf:RDF>
 </metadata>
 <defs>
  <style type="text/css">*{stroke-linejoin: round; stroke-linecap: butt}</style>
 </defs>
 <g id="figure_1">
  <g id="patch_1">
   <path d="M 0 420.59625 
L 506.928125 420.59625 
L 506.928125 0 
L 0 0 
z
" style="fill: #ffffff"/>
  </g>
  <g id="axes_1">
   <g id="patch_2">
    <path d="M 53.328125 383.04 
L 499.728125 383.04 
L 499.728125 50.4 
L 53.328125 50.4 
z
" style="fill: #ffffff"/>
   </g>
   <g id="matplotlib.axis_1">
    <g id="xtick_1">
     <g id="line2d_1">
      <path d="M 73.619034 383.04 
L 73.619034 50.4 
" clip-path="url(#pb9be971a6a)" style="fill: none; stroke: #b0b0b0; stroke-width: 0.8; stroke-linecap: square"/>
     </g>
     <g id="line2d_2">
      <defs>
       <path id="m64ba9bdd8f" d="M 0 0 
L 0 3.5 
" style="stroke: #000000; stroke-width: 0.8"/>
      </defs>
      <g>
       <use xlink:href="#m64ba9bdd8f" x="73.619034" y="383.04" style="stroke: #000000; stroke-width: 0.8"/>
      </g>
     </g>
     <g id="text_1">
      <!-- 0.0000 -->
      <g transform="translate(56.123722 397.638437) scale(0.1 -0.1)">
       <defs>
        <path id="DejaVuSans-30" d="M 2034 4250 
Q 1547 4250 1301 3770 
Q 1056 3291 1056 2328 
Q 1056 1369 1301 889 
Q 1547 409 2034 409 
Q 2525 409 2770 889 
Q 3016 1369 3016 2328 
Q 3016 3291 2770 3770 
Q 2525 4250 2034 4250 
z
M 2034 4750 
Q 2819 4750 3233 4129 
Q 3647 3509 3647 2328 
Q 3647 1150 3233 529 
Q 2819 -91 2034 -91 
Q 1250 -91 836 529 
Q 422 1150 422 2328 
Q 422 3509 836 4129 
Q 1250 4750 2034 4750 
z
" transform="scale(0.015625)"/>
        <path id="DejaVuSans-2e" d="M 684 794 
L 1344 794 
L 1344 0 
L 684 0 
L 684 794 
z
" transform="scale(0.015625)"/>
       </defs>
       <use xlink:href="#DejaVuSans-30"/>
       <use xlink:href="#DejaVuSans-2e" transform="translate(63.623047 0)"/>
       <use xlink:href="#DejaVuSans-30" transform="translate(95.410156 0)"/>
       <use xlink:href="#DejaVuSans-30" transform="translate(159.033203 0)"/>
       <use xlink:href="#DejaVuSans-30" transform="translate(222.65625 0)"/>
       <use xlink:href="#DejaVuSans-30" transform="translate(286.279297 0)"/>
      </g>
     </g>
    </g>
    <g id="xtick_2">
     <g id="line2d_3">
      <path d="M 124.346307 383.04 
L 124.346307 50.4 
" clip-path="url(#pb9be971a6a)" style="fill: none; stroke: #b0b0b0; stroke-width: 0.8; stroke-linecap: square"/>
     </g>
     <g id="line2d_4">
      <g>
       <use xlink:href="#m64ba9bdd8f" x="124.346307" y="383.04" style="stroke: #000000; stroke-width: 0.8"/>
      </g>
     </g>
     <g id="text_2">
      <!-- 0.0025 -->
      <g transform="translate(106.850994 397.638437) scale(0.1 -0.1)">
       <defs>
        <path id="DejaVuSans-32" d="M 1228 531 
L 3431 531 
L 3431 0 
L 469 0 
L 469 531 
Q 828 903 1448 1529 
Q 2069 2156 2228 2338 
Q 2531 2678 2651 2914 
Q 2772 3150 2772 3378 
Q 2772 3750 2511 3984 
Q 2250 4219 1831 4219 
Q 1534 4219 1204 4116 
Q 875 4013 500 3803 
L 500 4441 
Q 881 4594 1212 4672 
Q 1544 4750 1819 4750 
Q 2544 4750 2975 4387 
Q 3406 4025 3406 3419 
Q 3406 3131 3298 2873 
Q 3191 2616 2906 2266 
Q 2828 2175 2409 1742 
Q 1991 1309 1228 531 
z
" transform="scale(0.015625)"/>
        <path id="DejaVuSans-35" d="M 691 4666 
L 3169 4666 
L 3169 4134 
L 1269 4134 
L 1269 2991 
Q 1406 3038 1543 3061 
Q 1681 3084 1819 3084 
Q 2600 3084 3056 2656 
Q 3513 2228 3513 1497 
Q 3513 744 3044 326 
Q 2575 -91 1722 -91 
Q 1428 -91 1123 -41 
Q 819 9 494 109 
L 494 744 
Q 775 591 1075 516 
Q 1375 441 1709 441 
Q 2250 441 2565 725 
Q 2881 1009 2881 1497 
Q 2881 1984 2565 2268 
Q 2250 2553 1709 2553 
Q 1456 2553 1204 2497 
Q 953 2441 691 2322 
L 691 4666 
z
" transform="scale(0.015625)"/>
       </defs>
       <use xlink:href="#DejaVuSans-30"/>
       <use xlink:href="#DejaVuSans-2e" transform="translate(63.623047 0)"/>
       <use xlink:href="#DejaVuSans-30" transform="translate(95.410156 0)"/>
       <use xlink:href="#DejaVuSans-30" transform="translate(159.033203 0)"/>
       <use xlink:href="#DejaVuSans-32" transform="translate(222.65625 0)"/>
       <use xlink:href="#DejaVuSans-35" transform="translate(286.279297 0)"/>
      </g>
     </g>
    </g>
    <g id="xtick_3">
     <g id="line2d_5">
      <path d="M 175.07358 383.04 
L 175.07358 50.4 
" clip-path="url(#pb9be971a6a)" style="fill: none; stroke: #b0b0b0; stroke-width: 0.8; stroke-linecap: square"/>
     </g>
     <g id="line2d_6">
      <g>
       <use xlink:href="#m64ba9bdd8f" x="175.07358" y="383.04" style="stroke: #000000; stroke-width: 0.8"/>
      </g>
     </g>
     <g id="text_3">
      <!-- 0.0050 -->
      <g transform="translate(157.578267 397.638437) scale(0.1 -0.1)">
       <use xlink:href="#DejaVuSans-30"/>
       <use xlink:href="#DejaVuSans-2e" transform="translate(63.623047 0)"/>
       <use xlink:href="#DejaVuSans-30" transform="translate(95.410156 0)"/>
       <use xlink:href="#DejaVuSans-30" transform="translate(159.033203 0)"/>
       <use xlink:href="#DejaVuSans-35" transform="translate(222.65625 0)"/>
       <use xlink:href="#DejaVuSans-30" transform="translate(286.279297 0)"/>
      </g>
     </g>
    </g>
    <g id="xtick_4">
     <g id="line2d_7">
      <path d="M 225.800852 383.04 
L 225.800852 50.4 
" clip-path="url(#pb9be971a6a)" style="fill: none; stroke: #b0b0b0; stroke-width: 0.8; stroke-linecap: square"/>
     </g>
     <g id="line2d_8">
      <g>
       <use xlink:href="#m64ba9bdd8f" x="225.800852" y="383.04" style="stroke: #000000; stroke-width: 0.8"/>
      </g>
     </g>
     <g id="text_4">
      <!-- 0.0075 -->
      <g transform="translate(208.30554 397.638437) scale(0.1 -0.1)">
       <defs>
        <path id="DejaVuSans-37" d="M 525 4666 
L 3525 4666 
L 3525 4397 
L 1831 0 
L 1172 0 
L 2766 4134 
L 525 4134 
L 525 4666 
z
" transform="scale(0.015625)"/>
       </defs>
       <use xlink:href="#DejaVuSans-30"/>
       <use xlink:href="#DejaVuSans-2e" transform="translate(63.623047 0)"/>
       <use xlink:href="#DejaVuSans-30" transform="translate(95.410156 0)"/>
       <use xlink:href="#DejaVuSans-30" transform="translate(159.033203 0)"/>
       <use xlink:href="#DejaVuSans-37" transform="translate(222.65625 0)"/>
       <use xlink:href="#DejaVuSans-35" transform="translate(286.279297 0)"/>
      </g>
     </g>
    </g>
    <g id="xtick_5">
     <g id="line2d_9">
      <path d="M 276.528125 383.04 
L 276.528125 50.4 
" clip-path="url(#pb9be971a6a)" style="fill: none; stroke: #b0b0b0; stroke-width: 0.8; stroke-linecap: square"/>
     </g>
     <g id="line2d_10">
      <g>
       <use xlink:href="#m64ba9bdd8f" x="276.528125" y="383.04" style="stroke: #000000; stroke-width: 0.8"/>
      </g>
     </g>
     <g id="text_5">
      <!-- 0.0100 -->
      <g transform="translate(259.032812 397.638437) scale(0.1 -0.1)">
       <defs>
        <path id="DejaVuSans-31" d="M 794 531 
L 1825 531 
L 1825 4091 
L 703 3866 
L 703 4441 
L 1819 4666 
L 2450 4666 
L 2450 531 
L 3481 531 
L 3481 0 
L 794 0 
L 794 531 
z
" transform="scale(0.015625)"/>
       </defs>
       <use xlink:href="#DejaVuSans-30"/>
       <use xlink:href="#DejaVuSans-2e" transform="translate(63.623047 0)"/>
       <use xlink:href="#DejaVuSans-30" transform="translate(95.410156 0)"/>
       <use xlink:href="#DejaVuSans-31" transform="translate(159.033203 0)"/>
       <use xlink:href="#DejaVuSans-30" transform="translate(222.65625 0)"/>
       <use xlink:href="#DejaVuSans-30" transform="translate(286.279297 0)"/>
      </g>
     </g>
    </g>
    <g id="xtick_6">
     <g id="line2d_11">
      <path d="M 327.255398 383.04 
L 327.255398 50.4 
" clip-path="url(#pb9be971a6a)" style="fill: none; stroke: #b0b0b0; stroke-width: 0.8; stroke-linecap: square"/>
     </g>
     <g id="line2d_12">
      <g>
       <use xlink:href="#m64ba9bdd8f" x="327.255398" y="383.04" style="stroke: #000000; stroke-width: 0.8"/>
      </g>
     </g>
     <g id="text_6">
      <!-- 0.0125 -->
      <g transform="translate(309.760085 397.638437) scale(0.1 -0.1)">
       <use xlink:href="#DejaVuSans-30"/>
       <use xlink:href="#DejaVuSans-2e" transform="translate(63.623047 0)"/>
       <use xlink:href="#DejaVuSans-30" transform="translate(95.410156 0)"/>
       <use xlink:href="#DejaVuSans-31" transform="translate(159.033203 0)"/>
       <use xlink:href="#DejaVuSans-32" transform="translate(222.65625 0)"/>
       <use xlink:href="#DejaVuSans-35" transform="translate(286.279297 0)"/>
      </g>
     </g>
    </g>
    <g id="xtick_7">
     <g id="line2d_13">
      <path d="M 377.98267 383.04 
L 377.98267 50.4 
" clip-path="url(#pb9be971a6a)" style="fill: none; stroke: #b0b0b0; stroke-width: 0.8; stroke-linecap: square"/>
     </g>
     <g id="line2d_14">
      <g>
       <use xlink:href="#m64ba9bdd8f" x="377.98267" y="383.04" style="stroke: #000000; stroke-width: 0.8"/>
      </g>
     </g>
     <g id="text_7">
      <!-- 0.0150 -->
      <g transform="translate(360.487358 397.638437) scale(0.1 -0.1)">
       <use xlink:href="#DejaVuSans-30"/>
       <use xlink:href="#DejaVuSans-2e" transform="translate(63.623047 0)"/>
       <use xlink:href="#DejaVuSans-30" transform="translate(95.410156 0)"/>
       <use xlink:href="#DejaVuSans-31" transform="translate(159.033203 0)"/>
       <use xlink:href="#DejaVuSans-35" transform="translate(222.65625 0)"/>
       <use xlink:href="#DejaVuSans-30" transform="translate(286.279297 0)"/>
      </g>
     </g>
    </g>
    <g id="xtick_8">
     <g id="line2d_15">
      <path d="M 428.709943 383.04 
L 428.709943 50.4 
" clip-path="url(#pb9be971a6a)" style="fill: none; stroke: #b0b0b0; stroke-width: 0.8; stroke-linecap: square"/>
     </g>
     <g id="line2d_16">
      <g>
       <use xlink:href="#m64ba9bdd8f" x="428.709943" y="383.04" style="stroke: #000000; stroke-width: 0.8"/>
      </g>
     </g>
     <g id="text_8">
      <!-- 0.0175 -->
      <g transform="translate(411.214631 397.638437) scale(0.1 -0.1)">
       <use xlink:href="#DejaVuSans-30"/>
       <use xlink:href="#DejaVuSans-2e" transform="translate(63.623047 0)"/>
       <use xlink:href="#DejaVuSans-30" transform="translate(95.410156 0)"/>
       <use xlink:href="#DejaVuSans-31" transform="translate(159.033203 0)"/>
       <use xlink:href="#DejaVuSans-37" transform="translate(222.65625 0)"/>
       <use xlink:href="#DejaVuSans-35" transform="translate(286.279297 0)"/>
      </g>
     </g>
    </g>
    <g id="xtick_9">
     <g id="line2d_17">
      <path d="M 479.437216 383.04 
L 479.437216 50.4 
" clip-path="url(#pb9be971a6a)" style="fill: none; stroke: #b0b0b0; stroke-width: 0.8; stroke-linecap: square"/>
     </g>
     <g id="line2d_18">
      <g>
       <use xlink:href="#m64ba9bdd8f" x="479.437216" y="383.04" style="stroke: #000000; stroke-width: 0.8"/>
      </g>
     </g>
     <g id="text_9">
      <!-- 0.0200 -->
      <g transform="translate(461.941903 397.638437) scale(0.1 -0.1)">
       <use xlink:href="#DejaVuSans-30"/>
       <use xlink:href="#DejaVuSans-2e" transform="translate(63.623047 0)"/>
       <use xlink:href="#DejaVuSans-30" transform="translate(95.410156 0)"/>
       <use xlink:href="#DejaVuSans-32" transform="translate(159.033203 0)"/>
       <use xlink:href="#DejaVuSans-30" transform="translate(222.65625 0)"/>
       <use xlink:href="#DejaVuSans-30" transform="translate(286.279297 0)"/>
      </g>
     </g>
    </g>
    <g id="text_10">
     <!-- time (s) -->
     <g transform="translate(257.136719 411.316562) scale(0.1 -0.1)">
      <defs>
       <path id="DejaVuSans-74" d="M 1172 4494 
L 1172 3500 
L 2356 3500 
L 2356 3053 
L 1172 3053 
L 1172 1153 
Q 1172 725 1289 603 
Q 1406 481 1766 481 
L 2356 481 
L 2356 0 
L 1766 0 
Q 1100 0 847 248 
Q 594 497 594 1153 
L 594 3053 
L 172 3053 
L 172 3500 
L 594 3500 
L 594 4494 
L 1172 4494 
z
" transform="scale(0.015625)"/>
       <path id="DejaVuSans-69" d="M 603 3500 
L 1178 3500 
L 1178 0 
L 603 0 
L 603 3500 
z
M 603 4863 
L 1178 4863 
L 1178 4134 
L 603 4134 
L 603 4863 
z
" transform="scale(0.015625)"/>
       <path id="DejaVuSans-6d" d="M 3328 2828 
Q 3544 3216 3844 3400 
Q 4144 3584 4550 3584 
Q 5097 3584 5394 3201 
Q 5691 2819 5691 2113 
L 5691 0 
L 5113 0 
L 5113 2094 
Q 5113 2597 4934 2840 
Q 4756 3084 4391 3084 
Q 3944 3084 3684 2787 
Q 3425 2491 3425 1978 
L 3425 0 
L 2847 0 
L 2847 2094 
Q 2847 2600 2669 2842 
Q 2491 3084 2119 3084 
Q 1678 3084 1418 2786 
Q 1159 2488 1159 1978 
L 1159 0 
L 581 0 
L 581 3500 
L 1159 3500 
L 1159 2956 
Q 1356 3278 1631 3431 
Q 1906 3584 2284 3584 
Q 2666 3584 2933 3390 
Q 3200 3197 3328 2828 
z
" transform="scale(0.015625)"/>
       <path id="DejaVuSans-65" d="M 3597 1894 
L 3597 1613 
L 953 1613 
Q 991 1019 1311 708 
Q 1631 397 2203 397 
Q 2534 397 2845 478 
Q 3156 559 3463 722 
L 3463 178 
Q 3153 47 2828 -22 
Q 2503 -91 2169 -91 
Q 1331 -91 842 396 
Q 353 884 353 1716 
Q 353 2575 817 3079 
Q 1281 3584 2069 3584 
Q 2775 3584 3186 3129 
Q 3597 2675 3597 1894 
z
M 3022 2063 
Q 3016 2534 2758 2815 
Q 2500 3097 2075 3097 
Q 1594 3097 1305 2825 
Q 1016 2553 972 2059 
L 3022 2063 
z
" transform="scale(0.015625)"/>
       <path id="DejaVuSans-20" transform="scale(0.015625)"/>
       <path id="DejaVuSans-28" d="M 1984 4856 
Q 1566 4138 1362 3434 
Q 1159 2731 1159 2009 
Q 1159 1288 1364 580 
Q 1569 -128 1984 -844 
L 1484 -844 
Q 1016 -109 783 600 
Q 550 1309 550 2009 
Q 550 2706 781 3412 
Q 1013 4119 1484 4856 
L 1984 4856 
z
" transform="scale(0.015625)"/>
       <path id="DejaVuSans-73" d="M 2834 3397 
L 2834 2853 
Q 2591 2978 2328 3040 
Q 2066 3103 1784 3103 
Q 1356 3103 1142 2972 
Q 928 2841 928 2578 
Q 928 2378 1081 2264 
Q 1234 2150 1697 2047 
L 1894 2003 
Q 2506 1872 2764 1633 
Q 3022 1394 3022 966 
Q 3022 478 2636 193 
Q 2250 -91 1575 -91 
Q 1294 -91 989 -36 
Q 684 19 347 128 
L 347 722 
Q 666 556 975 473 
Q 1284 391 1588 391 
Q 1994 391 2212 530 
Q 2431 669 2431 922 
Q 2431 1156 2273 1281 
Q 2116 1406 1581 1522 
L 1381 1569 
Q 847 1681 609 1914 
Q 372 2147 372 2553 
Q 372 3047 722 3315 
Q 1072 3584 1716 3584 
Q 2034 3584 2315 3537 
Q 2597 3491 2834 3397 
z
" transform="scale(0.015625)"/>
       <path id="DejaVuSans-29" d="M 513 4856 
L 1013 4856 
Q 1481 4119 1714 3412 
Q 1947 2706 1947 2009 
Q 1947 1309 1714 600 
Q 1481 -109 1013 -844 
L 513 -844 
Q 928 -128 1133 580 
Q 1338 1288 1338 2009 
Q 1338 2731 1133 3434 
Q 928 4138 513 4856 
z
" transform="scale(0.015625)"/>
      </defs>
      <use xlink:href="#DejaVuSans-74"/>
      <use xlink:href="#DejaVuSans-69" transform="translate(39.208984 0)"/>
      <use xlink:href="#DejaVuSans-6d" transform="translate(66.992188 0)"/>
      <use xlink:href="#DejaVuSans-65" transform="translate(164.404297 0)"/>
      <use xlink:href="#DejaVuSans-20" transform="translate(225.927734 0)"/>
      <use xlink:href="#DejaVuSans-28" transform="translate(257.714844 0)"/>
      <use xlink:href="#DejaVuSans-73" transform="translate(296.728516 0)"/>
      <use xlink:href="#DejaVuSans-29" transform="translate(348.828125 0)"/>
     </g>
    </g>
   </g>
   <g id="matplotlib.axis_2">
    <g id="ytick_1">
     <g id="line2d_19">
      <path d="M 53.328125 381.5 
L 499.728125 381.5 
" clip-path="url(#pb9be971a6a)" style="fill: none; stroke: #b0b0b0; stroke-width: 0.8; stroke-linecap: square"/>
     </g>
     <g id="line2d_20">
      <defs>
       <path id="m574f9abdc7" d="M 0 0 
L -3.5 0 
" style="stroke: #000000; stroke-width: 0.8"/>
      </defs>
      <g>
       <use xlink:href="#m574f9abdc7" x="53.328125" y="381.5" style="stroke: #000000; stroke-width: 0.8"/>
      </g>
     </g>
     <g id="text_11">
      <!-- 0 -->
      <g transform="translate(39.965625 385.299219) scale(0.1 -0.1)">
       <use xlink:href="#DejaVuSans-30"/>
      </g>
     </g>
    </g>
    <g id="ytick_2">
     <g id="line2d_21">
      <path d="M 53.328125 319.9 
L 499.728125 319.9 
" clip-path="url(#pb9be971a6a)" style="fill: none; stroke: #b0b0b0; stroke-width: 0.8; stroke-linecap: square"/>
     </g>
     <g id="line2d_22">
      <g>
       <use xlink:href="#m574f9abdc7" x="53.328125" y="319.9" style="stroke: #000000; stroke-width: 0.8"/>
      </g>
     </g>
     <g id="text_12">
      <!-- 200 -->
      <g transform="translate(27.240625 323.699219) scale(0.1 -0.1)">
       <use xlink:href="#DejaVuSans-32"/>
       <use xlink:href="#DejaVuSans-30" transform="translate(63.623047 0)"/>
       <use xlink:href="#DejaVuSans-30" transform="translate(127.246094 0)"/>
      </g>
     </g>
    </g>
    <g id="ytick_3">
     <g id="line2d_23">
      <path d="M 53.328125 258.3 
L 499.728125 258.3 
" clip-path="url(#pb9be971a6a)" style="fill: none; stroke: #b0b0b0; stroke-width: 0.8; stroke-linecap: square"/>
     </g>
     <g id="line2d_24">
      <g>
       <use xlink:href="#m574f9abdc7" x="53.328125" y="258.3" style="stroke: #000000; stroke-width: 0.8"/>
      </g>
     </g>
     <g id="text_13">
      <!-- 400 -->
      <g transform="translate(27.240625 262.099219) scale(0.1 -0.1)">
       <defs>
        <path id="DejaVuSans-34" d="M 2419 4116 
L 825 1625 
L 2419 1625 
L 2419 4116 
z
M 2253 4666 
L 3047 4666 
L 3047 1625 
L 3713 1625 
L 3713 1100 
L 3047 1100 
L 3047 0 
L 2419 0 
L 2419 1100 
L 313 1100 
L 313 1709 
L 2253 4666 
z
" transform="scale(0.015625)"/>
       </defs>
       <use xlink:href="#DejaVuSans-34"/>
       <use xlink:href="#DejaVuSans-30" transform="translate(63.623047 0)"/>
       <use xlink:href="#DejaVuSans-30" transform="translate(127.246094 0)"/>
      </g>
     </g>
    </g>
    <g id="ytick_4">
     <g id="line2d_25">
      <path d="M 53.328125 196.7 
L 499.728125 196.7 
" clip-path="url(#pb9be971a6a)" style="fill: none; stroke: #b0b0b0; stroke-width: 0.8; stroke-linecap: square"/>
     </g>
     <g id="line2d_26">
      <g>
       <use xlink:href="#m574f9abdc7" x="53.328125" y="196.7" style="stroke: #000000; stroke-width: 0.8"/>
      </g>
     </g>
     <g id="text_14">
      <!-- 600 -->
      <g transform="translate(27.240625 200.499219) scale(0.1 -0.1)">
       <defs>
        <path id="DejaVuSans-36" d="M 2113 2584 
Q 1688 2584 1439 2293 
Q 1191 2003 1191 1497 
Q 1191 994 1439 701 
Q 1688 409 2113 409 
Q 2538 409 2786 701 
Q 3034 994 3034 1497 
Q 3034 2003 2786 2293 
Q 2538 2584 2113 2584 
z
M 3366 4563 
L 3366 3988 
Q 3128 4100 2886 4159 
Q 2644 4219 2406 4219 
Q 1781 4219 1451 3797 
Q 1122 3375 1075 2522 
Q 1259 2794 1537 2939 
Q 1816 3084 2150 3084 
Q 2853 3084 3261 2657 
Q 3669 2231 3669 1497 
Q 3669 778 3244 343 
Q 2819 -91 2113 -91 
Q 1303 -91 875 529 
Q 447 1150 447 2328 
Q 447 3434 972 4092 
Q 1497 4750 2381 4750 
Q 2619 4750 2861 4703 
Q 3103 4656 3366 4563 
z
" transform="scale(0.015625)"/>
       </defs>
       <use xlink:href="#DejaVuSans-36"/>
       <use xlink:href="#DejaVuSans-30" transform="translate(63.623047 0)"/>
       <use xlink:href="#DejaVuSans-30" transform="translate(127.246094 0)"/>
      </g>
     </g>
    </g>
    <g id="ytick_5">
     <g id="line2d_27">
      <path d="M 53.328125 135.1 
L 499.728125 135.1 
" clip-path="url(#pb9be971a6a)" style="fill: none; stroke: #b0b0b0; stroke-width: 0.8; stroke-linecap: square"/>
     </g>
     <g id="line2d_28">
      <g>
       <use xlink:href="#m574f9abdc7" x="53.328125" y="135.1" style="stroke: #000000; stroke-width: 0.8"/>
      </g>
     </g>
     <g id="text_15">
      <!-- 800 -->
      <g transform="translate(27.240625 138.899219) scale(0.1 -0.1)">
       <defs>
        <path id="DejaVuSans-38" d="M 2034 2216 
Q 1584 2216 1326 1975 
Q 1069 1734 1069 1313 
Q 1069 891 1326 650 
Q 1584 409 2034 409 
Q 2484 409 2743 651 
Q 3003 894 3003 1313 
Q 3003 1734 2745 1975 
Q 2488 2216 2034 2216 
z
M 1403 2484 
Q 997 2584 770 2862 
Q 544 3141 544 3541 
Q 544 4100 942 4425 
Q 1341 4750 2034 4750 
Q 2731 4750 3128 4425 
Q 3525 4100 3525 3541 
Q 3525 3141 3298 2862 
Q 3072 2584 2669 2484 
Q 3125 2378 3379 2068 
Q 3634 1759 3634 1313 
Q 3634 634 3220 271 
Q 2806 -91 2034 -91 
Q 1263 -91 848 271 
Q 434 634 434 1313 
Q 434 1759 690 2068 
Q 947 2378 1403 2484 
z
M 1172 3481 
Q 1172 3119 1398 2916 
Q 1625 2713 2034 2713 
Q 2441 2713 2670 2916 
Q 2900 3119 2900 3481 
Q 2900 3844 2670 4047 
Q 2441 4250 2034 4250 
Q 1625 4250 1398 4047 
Q 1172 3844 1172 3481 
z
" transform="scale(0.015625)"/>
       </defs>
       <use xlink:href="#DejaVuSans-38"/>
       <use xlink:href="#DejaVuSans-30" transform="translate(63.623047 0)"/>
       <use xlink:href="#DejaVuSans-30" transform="translate(127.246094 0)"/>
      </g>
     </g>
    </g>
    <g id="ytick_6">
     <g id="line2d_29">
      <path d="M 53.328125 73.5 
L 499.728125 73.5 
" clip-path="url(#pb9be971a6a)" style="fill: none; stroke: #b0b0b0; stroke-width: 0.8; stroke-linecap: square"/>
     </g>
     <g id="line2d_30">
      <g>
       <use xlink:href="#m574f9abdc7" x="53.328125" y="73.5" style="stroke: #000000; stroke-width: 0.8"/>
      </g>
     </g>
     <g id="text_16">
      <!-- 1000 -->
      <g transform="translate(20.878125 77.299219) scale(0.1 -0.1)">
       <use xlink:href="#DejaVuSans-31"/>
       <use xlink:href="#DejaVuSans-30" transform="translate(63.623047 0)"/>
       <use xlink:href="#DejaVuSans-30" transform="translate(127.246094 0)"/>
       <use xlink:href="#DejaVuSans-30" transform="translate(190.869141 0)"/>
      </g>
     </g>
    </g>
    <g id="text_17">
     <!-- maximum principal rate of deformation (1/s) -->
     <g transform="translate(14.798438 328.308281) rotate(-90) scale(0.1 -0.1)">
      <defs>
       <path id="DejaVuSans-61" d="M 2194 1759 
Q 1497 1759 1228 1600 
Q 959 1441 959 1056 
Q 959 750 1161 570 
Q 1363 391 1709 391 
Q 2188 391 2477 730 
Q 2766 1069 2766 1631 
L 2766 1759 
L 2194 1759 
z
M 3341 1997 
L 3341 0 
L 2766 0 
L 2766 531 
Q 2569 213 2275 61 
Q 1981 -91 1556 -91 
Q 1019 -91 701 211 
Q 384 513 384 1019 
Q 384 1609 779 1909 
Q 1175 2209 1959 2209 
L 2766 2209 
L 2766 2266 
Q 2766 2663 2505 2880 
Q 2244 3097 1772 3097 
Q 1472 3097 1187 3025 
Q 903 2953 641 2809 
L 641 3341 
Q 956 3463 1253 3523 
Q 1550 3584 1831 3584 
Q 2591 3584 2966 3190 
Q 3341 2797 3341 1997 
z
" transform="scale(0.015625)"/>
       <path id="DejaVuSans-78" d="M 3513 3500 
L 2247 1797 
L 3578 0 
L 2900 0 
L 1881 1375 
L 863 0 
L 184 0 
L 1544 1831 
L 300 3500 
L 978 3500 
L 1906 2253 
L 2834 3500 
L 3513 3500 
z
" transform="scale(0.015625)"/>
       <path id="DejaVuSans-75" d="M 544 1381 
L 544 3500 
L 1119 3500 
L 1119 1403 
Q 1119 906 1312 657 
Q 1506 409 1894 409 
Q 2359 409 2629 706 
Q 2900 1003 2900 1516 
L 2900 3500 
L 3475 3500 
L 3475 0 
L 2900 0 
L 2900 538 
Q 2691 219 2414 64 
Q 2138 -91 1772 -91 
Q 1169 -91 856 284 
Q 544 659 544 1381 
z
M 1991 3584 
L 1991 3584 
z
" transform="scale(0.015625)"/>
       <path id="DejaVuSans-70" d="M 1159 525 
L 1159 -1331 
L 581 -1331 
L 581 3500 
L 1159 3500 
L 1159 2969 
Q 1341 3281 1617 3432 
Q 1894 3584 2278 3584 
Q 2916 3584 3314 3078 
Q 3713 2572 3713 1747 
Q 3713 922 3314 415 
Q 2916 -91 2278 -91 
Q 1894 -91 1617 61 
Q 1341 213 1159 525 
z
M 3116 1747 
Q 3116 2381 2855 2742 
Q 2594 3103 2138 3103 
Q 1681 3103 1420 2742 
Q 1159 2381 1159 1747 
Q 1159 1113 1420 752 
Q 1681 391 2138 391 
Q 2594 391 2855 752 
Q 3116 1113 3116 1747 
z
" transform="scale(0.015625)"/>
       <path id="DejaVuSans-72" d="M 2631 2963 
Q 2534 3019 2420 3045 
Q 2306 3072 2169 3072 
Q 1681 3072 1420 2755 
Q 1159 2438 1159 1844 
L 1159 0 
L 581 0 
L 581 3500 
L 1159 3500 
L 1159 2956 
Q 1341 3275 1631 3429 
Q 1922 3584 2338 3584 
Q 2397 3584 2469 3576 
Q 2541 3569 2628 3553 
L 2631 2963 
z
" transform="scale(0.015625)"/>
       <path id="DejaVuSans-6e" d="M 3513 2113 
L 3513 0 
L 2938 0 
L 2938 2094 
Q 2938 2591 2744 2837 
Q 2550 3084 2163 3084 
Q 1697 3084 1428 2787 
Q 1159 2491 1159 1978 
L 1159 0 
L 581 0 
L 581 3500 
L 1159 3500 
L 1159 2956 
Q 1366 3272 1645 3428 
Q 1925 3584 2291 3584 
Q 2894 3584 3203 3211 
Q 3513 2838 3513 2113 
z
" transform="scale(0.015625)"/>
       <path id="DejaVuSans-63" d="M 3122 3366 
L 3122 2828 
Q 2878 2963 2633 3030 
Q 2388 3097 2138 3097 
Q 1578 3097 1268 2742 
Q 959 2388 959 1747 
Q 959 1106 1268 751 
Q 1578 397 2138 397 
Q 2388 397 2633 464 
Q 2878 531 3122 666 
L 3122 134 
Q 2881 22 2623 -34 
Q 2366 -91 2075 -91 
Q 1284 -91 818 406 
Q 353 903 353 1747 
Q 353 2603 823 3093 
Q 1294 3584 2113 3584 
Q 2378 3584 2631 3529 
Q 2884 3475 3122 3366 
z
" transform="scale(0.015625)"/>
       <path id="DejaVuSans-6c" d="M 603 4863 
L 1178 4863 
L 1178 0 
L 603 0 
L 603 4863 
z
" transform="scale(0.015625)"/>
       <path id="DejaVuSans-6f" d="M 1959 3097 
Q 1497 3097 1228 2736 
Q 959 2375 959 1747 
Q 959 1119 1226 758 
Q 1494 397 1959 397 
Q 2419 397 2687 759 
Q 2956 1122 2956 1747 
Q 2956 2369 2687 2733 
Q 2419 3097 1959 3097 
z
M 1959 3584 
Q 2709 3584 3137 3096 
Q 3566 2609 3566 1747 
Q 3566 888 3137 398 
Q 2709 -91 1959 -91 
Q 1206 -91 779 398 
Q 353 888 353 1747 
Q 353 2609 779 3096 
Q 1206 3584 1959 3584 
z
" transform="scale(0.015625)"/>
       <path id="DejaVuSans-66" d="M 2375 4863 
L 2375 4384 
L 1825 4384 
Q 1516 4384 1395 4259 
Q 1275 4134 1275 3809 
L 1275 3500 
L 2222 3500 
L 2222 3053 
L 1275 3053 
L 1275 0 
L 697 0 
L 697 3053 
L 147 3053 
L 147 3500 
L 697 3500 
L 697 3744 
Q 697 4328 969 4595 
Q 1241 4863 1831 4863 
L 2375 4863 
z
" transform="scale(0.015625)"/>
       <path id="DejaVuSans-64" d="M 2906 2969 
L 2906 4863 
L 3481 4863 
L 3481 0 
L 2906 0 
L 2906 525 
Q 2725 213 2448 61 
Q 2172 -91 1784 -91 
Q 1150 -91 751 415 
Q 353 922 353 1747 
Q 353 2572 751 3078 
Q 1150 3584 1784 3584 
Q 2172 3584 2448 3432 
Q 2725 3281 2906 2969 
z
M 947 1747 
Q 947 1113 1208 752 
Q 1469 391 1925 391 
Q 2381 391 2643 752 
Q 2906 1113 2906 1747 
Q 2906 2381 2643 2742 
Q 2381 3103 1925 3103 
Q 1469 3103 1208 2742 
Q 947 2381 947 1747 
z
" transform="scale(0.015625)"/>
       <path id="DejaVuSans-2f" d="M 1625 4666 
L 2156 4666 
L 531 -594 
L 0 -594 
L 1625 4666 
z
" transform="scale(0.015625)"/>
      </defs>
      <use xlink:href="#DejaVuSans-6d"/>
      <use xlink:href="#DejaVuSans-61" transform="translate(97.412109 0)"/>
      <use xlink:href="#DejaVuSans-78" transform="translate(158.691406 0)"/>
      <use xlink:href="#DejaVuSans-69" transform="translate(217.871094 0)"/>
      <use xlink:href="#DejaVuSans-6d" transform="translate(245.654297 0)"/>
      <use xlink:href="#DejaVuSans-75" transform="translate(343.066406 0)"/>
      <use xlink:href="#DejaVuSans-6d" transform="translate(406.445312 0)"/>
      <use xlink:href="#DejaVuSans-20" transform="translate(503.857422 0)"/>
      <use xlink:href="#DejaVuSans-70" transform="translate(535.644531 0)"/>
      <use xlink:href="#DejaVuSans-72" transform="translate(599.121094 0)"/>
      <use xlink:href="#DejaVuSans-69" transform="translate(640.234375 0)"/>
      <use xlink:href="#DejaVuSans-6e" transform="translate(668.017578 0)"/>
      <use xlink:href="#DejaVuSans-63" transform="translate(731.396484 0)"/>
      <use xlink:href="#DejaVuSans-69" transform="translate(786.376953 0)"/>
      <use xlink:href="#DejaVuSans-70" transform="translate(814.160156 0)"/>
      <use xlink:href="#DejaVuSans-61" transform="translate(877.636719 0)"/>
      <use xlink:href="#DejaVuSans-6c" transform="translate(938.916016 0)"/>
      <use xlink:href="#DejaVuSans-20" transform="translate(966.699219 0)"/>
      <use xlink:href="#DejaVuSans-72" transform="translate(998.486328 0)"/>
      <use xlink:href="#DejaVuSans-61" transform="translate(1039.599609 0)"/>
      <use xlink:href="#DejaVuSans-74" transform="translate(1100.878906 0)"/>
      <use xlink:href="#DejaVuSans-65" transform="translate(1140.087891 0)"/>
      <use xlink:href="#DejaVuSans-20" transform="translate(1201.611328 0)"/>
      <use xlink:href="#DejaVuSans-6f" transform="translate(1233.398438 0)"/>
      <use xlink:href="#DejaVuSans-66" transform="translate(1294.580078 0)"/>
      <use xlink:href="#DejaVuSans-20" transform="translate(1329.785156 0)"/>
      <use xlink:href="#DejaVuSans-64" transform="translate(1361.572266 0)"/>
      <use xlink:href="#DejaVuSans-65" transform="translate(1425.048828 0)"/>
      <use xlink:href="#DejaVuSans-66" transform="translate(1486.572266 0)"/>
      <use xlink:href="#DejaVuSans-6f" transform="translate(1521.777344 0)"/>
      <use xlink:href="#DejaVuSans-72" transform="translate(1582.958984 0)"/>
      <use xlink:href="#DejaVuSans-6d" transform="translate(1622.322266 0)"/>
      <use xlink:href="#DejaVuSans-61" transform="translate(1719.734375 0)"/>
      <use xlink:href="#DejaVuSans-74" transform="translate(1781.013672 0)"/>
      <use xlink:href="#DejaVuSans-69" transform="translate(1820.222656 0)"/>
      <use xlink:href="#DejaVuSans-6f" transform="translate(1848.005859 0)"/>
      <use xlink:href="#DejaVuSans-6e" transform="translate(1909.1875 0)"/>
      <use xlink:href="#DejaVuSans-20" transform="translate(1972.566406 0)"/>
      <use xlink:href="#DejaVuSans-28" transform="translate(2004.353516 0)"/>
      <use xlink:href="#DejaVuSans-31" transform="translate(2043.367188 0)"/>
      <use xlink:href="#DejaVuSans-2f" transform="translate(2106.990234 0)"/>
      <use xlink:href="#DejaVuSans-73" transform="translate(2140.681641 0)"/>
      <use xlink:href="#DejaVuSans-29" transform="translate(2192.78125 0)"/>
     </g>
    </g>
   </g>
   <g id="line2d_31">
    <path d="M 73.619034 381.5 
L 78.716537 381.499659 
L 83.778165 381.427705 
L 88.839773 380.941199 
L 93.937336 379.760653 
L 98.998903 377.928617 
L 104.06047 375.750934 
L 109.157547 373.726912 
L 114.218302 372.20071 
L 119.278044 371.128593 
L 124.372076 370.464483 
L 129.428165 370.157438 
L 134.516922 370.069812 
L 139.5653 370.076465 
L 144.642897 370.066855 
L 149.712378 370.014464 
L 154.807831 369.930781 
L 159.856006 369.861542 
L 164.961402 369.884858 
L 170.016476 370.086259 
L 175.090827 370.531843 
L 180.148133 371.25053 
L 185.222078 372.24497 
L 190.312255 373.462278 
L 195.383156 374.824962 
L 200.47029 376.31636 
L 205.539568 377.913987 
L 210.593019 379.602199 
L 215.666761 381.379473 
L 220.729342 379.739795 
L 225.8181 377.749761 
L 230.902798 375.786415 
L 235.953409 374.238192 
L 241.042774 373.483037 
L 246.106574 373.482914 
L 251.182548 373.943836 
L 256.238636 374.447354 
L 261.310552 374.694062 
L 266.389164 374.723692 
L 271.464934 374.626056 
L 276.534212 374.417232 
L 281.631289 374.251312 
L 286.691841 374.300038 
L 291.752394 374.601601 
L 296.84947 375.121998 
L 301.91611 375.772062 
L 306.986809 376.437342 
L 312.057507 377.05211 
L 317.134292 377.569119 
L 322.213107 377.942292 
L 327.265543 378.170243 
L 332.358561 378.257592 
L 337.417085 378.241298 
L 342.475609 378.201166 
L 347.572685 378.19864 
L 352.637296 378.255805 
L 357.705965 378.335423 
L 362.776663 378.449365 
L 367.853449 378.662029 
L 372.934292 378.968868 
L 377.98267 379.29127 
L 383.07366 379.569878 
L 388.134212 379.788543 
L 393.202881 379.960798 
L 398.277638 380.09268 
L 403.36051 380.157283 
L 408.44947 380.191561 
L 413.514081 380.235349 
L 418.58478 380.266623 
L 423.667652 380.272743 
L 428.724147 380.358432 
L 433.790787 380.606578 
L 438.867572 380.935233 
L 443.954503 381.246864 
L 449.015056 381.411265 
L 454.085754 381.417835 
L 459.166598 381.320532 
L 464.221063 381.163097 
L 469.312052 381.037603 
L 474.368547 380.957711 
L 479.459536 380.877338 
" clip-path="url(#pb9be971a6a)" style="fill: none; stroke-dasharray: 5.55,2.4; stroke-dashoffset: 0; stroke: #1f77b4; stroke-width: 1.5"/>
   </g>
   <g id="line2d_32">
    <path d="M 73.619034 381.5 
L 78.698599 381.49999 
L 83.778165 381.498169 
L 88.839773 381.476678 
L 93.919277 381.391961 
L 98.998903 380.726101 
L 104.060065 379.979074 
L 109.138676 381.355673 
L 114.215665 377.489378 
L 119.290218 371.615756 
L 124.361728 364.827621 
L 129.427353 357.885486 
L 134.500892 351.363001 
L 139.578286 345.523444 
L 144.638839 340.613616 
L 149.715219 336.888972 
L 154.783685 334.501356 
L 159.864934 333.280752 
L 164.928734 332.759924 
L 170.015462 332.423896 
L 175.08129 332.049368 
L 180.151177 331.62094 
L 185.232832 331.186044 
L 190.30211 330.904532 
L 195.367938 330.971368 
L 200.439854 331.58706 
L 205.512987 333.018644 
L 210.585308 335.351436 
L 215.657833 338.60022 
L 220.734009 342.632556 
L 225.806737 347.368056 
L 230.884334 352.790735 
L 235.950974 358.82852 
L 241.020049 365.607138 
L 246.093385 373.039117 
L 251.174634 380.08085 
L 256.249796 377.484758 
L 261.321306 374.100054 
L 266.387743 371.869025 
L 271.459253 370.313686 
L 276.532183 369.154867 
L 281.613027 368.213835 
L 286.681696 367.285461 
L 291.754423 365.955117 
L 296.831209 364.103174 
L 301.905965 362.032952 
L 306.974634 360.081618 
L 312.041274 358.436683 
L 317.122118 357.196274 
L 322.188758 356.379397 
L 327.257427 355.951369 
L 332.330154 355.906986 
L 337.410998 356.095051 
L 342.487783 356.270919 
L 347.556452 356.324634 
L 352.619034 356.251269 
L 357.703936 356.11119 
L 362.766518 355.98488 
L 367.847361 355.96489 
L 372.91806 356.120985 
L 377.990787 356.5054 
L 383.063514 357.126482 
L 388.136241 357.945854 
L 393.20694 358.883006 
L 398.289812 359.789819 
L 403.350365 360.679785 
L 408.433238 361.519424 
L 413.503936 362.219724 
L 418.578692 362.780006 
L 423.653449 363.344755 
L 428.726176 363.951608 
L 433.794845 364.648427 
L 438.869601 365.327474 
L 443.9403 365.97258 
L 449.002881 366.655971 
L 454.075609 367.360921 
L 459.156452 368.02192 
L 464.22918 368.678299 
L 469.29379 369.302214 
L 474.366518 369.805764 
L 479.44939 370.218976 
" clip-path="url(#pb9be971a6a)" style="fill: none; stroke-dasharray: 5.55,2.4; stroke-dashoffset: 0; stroke: #ff7f0e; stroke-width: 1.5"/>
   </g>
   <g id="line2d_33">
    <path d="M 73.619034 381.5 
L 78.695008 381.499999 
L 83.770982 381.499798 
L 88.839773 381.491111 
L 93.915625 381.459026 
L 98.984294 381.391563 
L 104.058847 381.40252 
L 109.131169 381.383628 
L 114.206534 379.398787 
L 119.278652 378.019323 
L 124.348133 379.05404 
L 129.421875 380.752912 
L 134.492167 376.592051 
L 139.571388 372.44979 
L 144.640057 369.18579 
L 149.710552 367.208061 
L 154.783076 366.372364 
L 159.858847 367.132508 
L 164.934009 370.128147 
L 170.002476 374.570801 
L 175.075812 379.668718 
L 180.150974 377.911276 
L 185.223498 372.301857 
L 190.294602 366.105267 
L 195.365909 359.231477 
L 200.44168 351.964124 
L 205.512175 344.527064 
L 210.587134 337.045436 
L 215.655804 329.85148 
L 220.732386 323.123528 
L 225.804302 316.699572 
L 230.877638 310.802912 
L 235.94935 305.879532 
L 241.020049 301.958692 
L 246.092776 298.8944 
L 251.167329 296.808316 
L 256.239042 296.945376 
L 261.311161 301.585396 
L 266.385917 308.536956 
L 271.458238 315.919408 
L 276.530154 322.87374 
L 281.600852 329.133532 
L 286.67358 334.77332 
L 291.746307 339.644648 
L 296.821063 343.855932 
L 301.891761 347.708088 
L 306.966518 351.428204 
L 312.039245 355.296438 
L 317.109943 359.12879 
L 322.1847 362.716558 
L 327.255398 366.063163 
L 332.330154 368.834424 
L 337.402881 371.045802 
L 342.47358 373.00998 
L 347.546307 374.726864 
L 352.621063 376.268558 
L 357.69379 377.813794 
L 362.764489 379.404932 
L 367.837216 380.820657 
L 372.909943 380.995354 
L 377.98267 379.98472 
L 383.057427 379.248449 
L 388.128125 378.830003 
L 393.202881 378.513139 
L 398.275609 378.16667 
L 403.348336 377.737657 
L 408.421063 377.331867 
L 413.491761 377.086853 
L 418.566518 376.908921 
L 423.637216 376.740353 
L 428.711972 376.55774 
L 433.7847 376.23591 
L 438.855398 375.748562 
L 443.930154 375.090089 
L 449.002881 374.212196 
L 454.075609 373.17938 
L 459.146307 372.159808 
L 464.221063 371.209166 
L 469.291761 370.310945 
L 474.366518 369.357316 
L 479.439245 368.301892 
" clip-path="url(#pb9be971a6a)" style="fill: none; stroke-dasharray: 5.55,2.4; stroke-dashoffset: 0; stroke: #2ca02c; stroke-width: 1.5"/>
   </g>
   <g id="line2d_34">
    <path d="M 73.619034 381.5 
L 78.698153 381.5 
L 83.76597 381.499996 
L 88.845089 381.499963 
L 93.912987 381.499884 
L 98.992004 381.499839 
L 104.059862 381.499558 
L 109.138879 381.497951 
L 114.206737 381.4937 
L 119.274594 381.484214 
L 124.353612 381.465166 
L 129.421469 381.430231 
L 134.500689 381.370623 
L 139.568344 381.276253 
L 144.647564 381.135208 
L 149.715422 380.935612 
L 154.783076 380.662727 
L 159.862094 380.29763 
L 164.929951 379.819213 
L 170.008969 379.197146 
L 175.076623 378.400196 
L 180.155641 377.384566 
L 185.223092 376.10806 
L 190.30211 374.510618 
L 195.369561 372.534921 
L 200.448376 370.093928 
L 205.515828 367.103002 
L 210.583279 363.439096 
L 215.661891 358.940694 
L 220.729342 353.428664 
L 225.807954 346.60668 
L 230.875406 338.13514 
L 235.95422 327.492816 
L 241.021672 314.171508 
L 246.100486 297.62698 
L 251.167938 277.805332 
L 256.241274 255.244332 
L 261.316436 231.556668 
L 266.393019 209.316296 
L 271.458847 191.715636 
L 276.530154 181.906452 
L 281.608969 182.841848 
L 286.681696 196.850304 
L 291.752394 225.047396 
L 296.82715 266.33264 
L 301.897849 316.210468 
L 306.964489 367.424862 
L 312.039245 349.13382 
L 317.109943 317.46218 
L 322.18267 301.31682 
L 327.263514 299.834724 
L 332.332183 309.710436 
L 337.408969 326.653516 
L 342.481696 346.545696 
L 347.554423 366.265057 
L 352.621063 378.339704 
L 357.697849 364.619074 
L 362.766518 352.766218 
L 367.847361 344.067528 
L 372.909943 338.671676 
L 377.990787 336.637336 
L 383.055398 338.414804 
L 388.132183 345.09132 
L 393.20491 358.101764 
L 398.279667 377.582363 
L 403.350365 360.14405 
L 408.425121 339.552556 
L 413.49582 328.224932 
L 418.566518 330.686776 
L 423.641274 347.773076 
L 428.71806 375.947376 
L 433.788758 354.400343 
L 438.861485 326.421592 
L 443.93827 312.788588 
L 449.008969 316.159956 
L 454.075609 335.09518 
L 459.150365 366.66481 
L 464.225121 349.340488 
L 469.291761 308.045388 
L 474.370576 274.607676 
L 479.441274 256.124596 
" clip-path="url(#pb9be971a6a)" style="fill: none; stroke: #d62728; stroke-width: 1.5; stroke-linecap: square"/>
   </g>
   <g id="line2d_35">
    <path d="M 73.619034 381.5 
L 78.693811 381.5 
L 83.768608 381.499999 
L 88.837419 381.499985 
L 93.912175 381.499932 
L 98.986932 381.49982 
L 104.055804 381.499656 
L 109.13056 381.49947 
L 114.205316 381.499289 
L 119.274188 381.499129 
L 124.348945 381.499006 
L 129.423701 381.498985 
L 134.492573 381.498765 
L 139.567329 381.496635 
L 144.642086 381.49169 
L 149.710958 381.481184 
L 154.785714 381.461091 
L 159.86047 381.427011 
L 164.929342 381.374912 
L 170.004099 381.300625 
L 175.078855 381.199299 
L 180.147727 381.064038 
L 185.222484 380.883732 
L 190.29237 380.642965 
L 195.366315 380.319421 
L 200.43823 379.884244 
L 205.514204 379.298893 
L 210.586526 378.515754 
L 215.659862 377.472161 
L 220.729951 376.08807 
L 225.804708 374.251405 
L 230.875812 371.812907 
L 235.948742 368.560581 
L 241.023498 364.215748 
L 246.095617 358.430615 
L 251.167126 350.737453 
L 256.239651 340.38046 
L 261.311972 325.975608 
L 266.385308 305.209324 
L 271.456006 275.331168 
L 276.528125 235.002264 
L 281.60491 187.067916 
L 286.675609 139.39506 
L 291.750365 101.645348 
L 296.823092 82.194224 
L 301.891761 87.696336 
L 306.968547 123.667656 
L 312.037216 190.779008 
L 317.111972 279.099856 
L 322.1847 366.746246 
L 327.257427 330.0024 
L 332.330154 301.488376 
L 337.40491 303.516864 
L 342.477638 322.497056 
L 347.546307 344.218448 
L 352.621063 361.302592 
L 357.69582 371.531395 
L 362.766518 375.448385 
L 367.837216 377.93721 
L 372.911972 375.801815 
L 377.986729 356.681452 
L 383.055398 338.635948 
L 388.130154 334.965204 
L 393.202881 348.62562 
L 398.27358 374.674073 
L 403.348336 352.209138 
L 408.421063 325.631572 
L 413.49379 315.559972 
L 418.566518 328.195672 
L 423.639245 359.459951 
L 428.709943 365.818026 
L 433.7847 323.16634 
L 438.859456 284.875472 
L 443.930154 273.244468 
L 449.000852 301.909104 
L 454.075609 357.253747 
L 459.148336 347.046196 
L 464.223092 308.962304 
L 469.29582 293.121864 
L 474.366518 304.272388 
L 479.437216 342.029492 
" clip-path="url(#pb9be971a6a)" style="fill: none; stroke: #9467bd; stroke-width: 1.5; stroke-linecap: square"/>
   </g>
   <g id="patch_3">
    <path d="M 53.328125 383.04 
L 53.328125 50.4 
" style="fill: none; stroke: #000000; stroke-width: 0.8; stroke-linejoin: miter; stroke-linecap: square"/>
   </g>
   <g id="patch_4">
    <path d="M 499.728125 383.04 
L 499.728125 50.4 
" style="fill: none; stroke: #000000; stroke-width: 0.8; stroke-linejoin: miter; stroke-linecap: square"/>
   </g>
   <g id="patch_5">
    <path d="M 53.328125 383.04 
L 499.728125 383.04 
" style="fill: none; stroke: #000000; stroke-width: 0.8; stroke-linejoin: miter; stroke-linecap: square"/>
   </g>
   <g id="patch_6">
    <path d="M 53.328125 50.4 
L 499.728125 50.4 
" style="fill: none; stroke: #000000; stroke-width: 0.8; stroke-linejoin: miter; stroke-linecap: square"/>
   </g>
   <g id="text_18">
    <!-- rate_of_deformation_t10.svg created 2025-01-09 10:04:43 EST-0500 by chovey on s1088757 -->
    <g style="fill: #696969" transform="translate(89.636875 44.4) scale(0.08 -0.08)">
     <defs>
      <path id="DejaVuSans-5f" d="M 3263 -1063 
L 3263 -1509 
L -63 -1509 
L -63 -1063 
L 3263 -1063 
z
" transform="scale(0.015625)"/>
      <path id="DejaVuSans-76" d="M 191 3500 
L 800 3500 
L 1894 563 
L 2988 3500 
L 3597 3500 
L 2284 0 
L 1503 0 
L 191 3500 
z
" transform="scale(0.015625)"/>
      <path id="DejaVuSans-67" d="M 2906 1791 
Q 2906 2416 2648 2759 
Q 2391 3103 1925 3103 
Q 1463 3103 1205 2759 
Q 947 2416 947 1791 
Q 947 1169 1205 825 
Q 1463 481 1925 481 
Q 2391 481 2648 825 
Q 2906 1169 2906 1791 
z
M 3481 434 
Q 3481 -459 3084 -895 
Q 2688 -1331 1869 -1331 
Q 1566 -1331 1297 -1286 
Q 1028 -1241 775 -1147 
L 775 -588 
Q 1028 -725 1275 -790 
Q 1522 -856 1778 -856 
Q 2344 -856 2625 -561 
Q 2906 -266 2906 331 
L 2906 616 
Q 2728 306 2450 153 
Q 2172 0 1784 0 
Q 1141 0 747 490 
Q 353 981 353 1791 
Q 353 2603 747 3093 
Q 1141 3584 1784 3584 
Q 2172 3584 2450 3431 
Q 2728 3278 2906 2969 
L 2906 3500 
L 3481 3500 
L 3481 434 
z
" transform="scale(0.015625)"/>
      <path id="DejaVuSans-2d" d="M 313 2009 
L 1997 2009 
L 1997 1497 
L 313 1497 
L 313 2009 
z
" transform="scale(0.015625)"/>
      <path id="DejaVuSans-39" d="M 703 97 
L 703 672 
Q 941 559 1184 500 
Q 1428 441 1663 441 
Q 2288 441 2617 861 
Q 2947 1281 2994 2138 
Q 2813 1869 2534 1725 
Q 2256 1581 1919 1581 
Q 1219 1581 811 2004 
Q 403 2428 403 3163 
Q 403 3881 828 4315 
Q 1253 4750 1959 4750 
Q 2769 4750 3195 4129 
Q 3622 3509 3622 2328 
Q 3622 1225 3098 567 
Q 2575 -91 1691 -91 
Q 1453 -91 1209 -44 
Q 966 3 703 97 
z
M 1959 2075 
Q 2384 2075 2632 2365 
Q 2881 2656 2881 3163 
Q 2881 3666 2632 3958 
Q 2384 4250 1959 4250 
Q 1534 4250 1286 3958 
Q 1038 3666 1038 3163 
Q 1038 2656 1286 2365 
Q 1534 2075 1959 2075 
z
" transform="scale(0.015625)"/>
      <path id="DejaVuSans-3a" d="M 750 794 
L 1409 794 
L 1409 0 
L 750 0 
L 750 794 
z
M 750 3309 
L 1409 3309 
L 1409 2516 
L 750 2516 
L 750 3309 
z
" transform="scale(0.015625)"/>
      <path id="DejaVuSans-33" d="M 2597 2516 
Q 3050 2419 3304 2112 
Q 3559 1806 3559 1356 
Q 3559 666 3084 287 
Q 2609 -91 1734 -91 
Q 1441 -91 1130 -33 
Q 819 25 488 141 
L 488 750 
Q 750 597 1062 519 
Q 1375 441 1716 441 
Q 2309 441 2620 675 
Q 2931 909 2931 1356 
Q 2931 1769 2642 2001 
Q 2353 2234 1838 2234 
L 1294 2234 
L 1294 2753 
L 1863 2753 
Q 2328 2753 2575 2939 
Q 2822 3125 2822 3475 
Q 2822 3834 2567 4026 
Q 2313 4219 1838 4219 
Q 1578 4219 1281 4162 
Q 984 4106 628 3988 
L 628 4550 
Q 988 4650 1302 4700 
Q 1616 4750 1894 4750 
Q 2613 4750 3031 4423 
Q 3450 4097 3450 3541 
Q 3450 3153 3228 2886 
Q 3006 2619 2597 2516 
z
" transform="scale(0.015625)"/>
      <path id="DejaVuSans-45" d="M 628 4666 
L 3578 4666 
L 3578 4134 
L 1259 4134 
L 1259 2753 
L 3481 2753 
L 3481 2222 
L 1259 2222 
L 1259 531 
L 3634 531 
L 3634 0 
L 628 0 
L 628 4666 
z
" transform="scale(0.015625)"/>
      <path id="DejaVuSans-53" d="M 3425 4513 
L 3425 3897 
Q 3066 4069 2747 4153 
Q 2428 4238 2131 4238 
Q 1616 4238 1336 4038 
Q 1056 3838 1056 3469 
Q 1056 3159 1242 3001 
Q 1428 2844 1947 2747 
L 2328 2669 
Q 3034 2534 3370 2195 
Q 3706 1856 3706 1288 
Q 3706 609 3251 259 
Q 2797 -91 1919 -91 
Q 1588 -91 1214 -16 
Q 841 59 441 206 
L 441 856 
Q 825 641 1194 531 
Q 1563 422 1919 422 
Q 2459 422 2753 634 
Q 3047 847 3047 1241 
Q 3047 1584 2836 1778 
Q 2625 1972 2144 2069 
L 1759 2144 
Q 1053 2284 737 2584 
Q 422 2884 422 3419 
Q 422 4038 858 4394 
Q 1294 4750 2059 4750 
Q 2388 4750 2728 4690 
Q 3069 4631 3425 4513 
z
" transform="scale(0.015625)"/>
      <path id="DejaVuSans-54" d="M -19 4666 
L 3928 4666 
L 3928 4134 
L 2272 4134 
L 2272 0 
L 1638 0 
L 1638 4134 
L -19 4134 
L -19 4666 
z
" transform="scale(0.015625)"/>
      <path id="DejaVuSans-62" d="M 3116 1747 
Q 3116 2381 2855 2742 
Q 2594 3103 2138 3103 
Q 1681 3103 1420 2742 
Q 1159 2381 1159 1747 
Q 1159 1113 1420 752 
Q 1681 391 2138 391 
Q 2594 391 2855 752 
Q 3116 1113 3116 1747 
z
M 1159 2969 
Q 1341 3281 1617 3432 
Q 1894 3584 2278 3584 
Q 2916 3584 3314 3078 
Q 3713 2572 3713 1747 
Q 3713 922 3314 415 
Q 2916 -91 2278 -91 
Q 1894 -91 1617 61 
Q 1341 213 1159 525 
L 1159 0 
L 581 0 
L 581 4863 
L 1159 4863 
L 1159 2969 
z
" transform="scale(0.015625)"/>
      <path id="DejaVuSans-79" d="M 2059 -325 
Q 1816 -950 1584 -1140 
Q 1353 -1331 966 -1331 
L 506 -1331 
L 506 -850 
L 844 -850 
Q 1081 -850 1212 -737 
Q 1344 -625 1503 -206 
L 1606 56 
L 191 3500 
L 800 3500 
L 1894 763 
L 2988 3500 
L 3597 3500 
L 2059 -325 
z
" transform="scale(0.015625)"/>
      <path id="DejaVuSans-68" d="M 3513 2113 
L 3513 0 
L 2938 0 
L 2938 2094 
Q 2938 2591 2744 2837 
Q 2550 3084 2163 3084 
Q 1697 3084 1428 2787 
Q 1159 2491 1159 1978 
L 1159 0 
L 581 0 
L 581 4863 
L 1159 4863 
L 1159 2956 
Q 1366 3272 1645 3428 
Q 1925 3584 2291 3584 
Q 2894 3584 3203 3211 
Q 3513 2838 3513 2113 
z
" transform="scale(0.015625)"/>
     </defs>
     <use xlink:href="#DejaVuSans-72"/>
     <use xlink:href="#DejaVuSans-61" transform="translate(41.113281 0)"/>
     <use xlink:href="#DejaVuSans-74" transform="translate(102.392578 0)"/>
     <use xlink:href="#DejaVuSans-65" transform="translate(141.601562 0)"/>
     <use xlink:href="#DejaVuSans-5f" transform="translate(203.125 0)"/>
     <use xlink:href="#DejaVuSans-6f" transform="translate(253.125 0)"/>
     <use xlink:href="#DejaVuSans-66" transform="translate(314.306641 0)"/>
     <use xlink:href="#DejaVuSans-5f" transform="translate(349.511719 0)"/>
     <use xlink:href="#DejaVuSans-64" transform="translate(399.511719 0)"/>
     <use xlink:href="#DejaVuSans-65" transform="translate(462.988281 0)"/>
     <use xlink:href="#DejaVuSans-66" transform="translate(524.511719 0)"/>
     <use xlink:href="#DejaVuSans-6f" transform="translate(559.716797 0)"/>
     <use xlink:href="#DejaVuSans-72" transform="translate(620.898438 0)"/>
     <use xlink:href="#DejaVuSans-6d" transform="translate(660.261719 0)"/>
     <use xlink:href="#DejaVuSans-61" transform="translate(757.673828 0)"/>
     <use xlink:href="#DejaVuSans-74" transform="translate(818.953125 0)"/>
     <use xlink:href="#DejaVuSans-69" transform="translate(858.162109 0)"/>
     <use xlink:href="#DejaVuSans-6f" transform="translate(885.945312 0)"/>
     <use xlink:href="#DejaVuSans-6e" transform="translate(947.126953 0)"/>
     <use xlink:href="#DejaVuSans-5f" transform="translate(1010.505859 0)"/>
     <use xlink:href="#DejaVuSans-74" transform="translate(1060.505859 0)"/>
     <use xlink:href="#DejaVuSans-31" transform="translate(1099.714844 0)"/>
     <use xlink:href="#DejaVuSans-30" transform="translate(1163.337891 0)"/>
     <use xlink:href="#DejaVuSans-2e" transform="translate(1226.960938 0)"/>
     <use xlink:href="#DejaVuSans-73" transform="translate(1258.748047 0)"/>
     <use xlink:href="#DejaVuSans-76" transform="translate(1310.847656 0)"/>
     <use xlink:href="#DejaVuSans-67" transform="translate(1370.027344 0)"/>
     <use xlink:href="#DejaVuSans-20" transform="translate(1433.503906 0)"/>
     <use xlink:href="#DejaVuSans-63" transform="translate(1465.291016 0)"/>
     <use xlink:href="#DejaVuSans-72" transform="translate(1520.271484 0)"/>
     <use xlink:href="#DejaVuSans-65" transform="translate(1559.134766 0)"/>
     <use xlink:href="#DejaVuSans-61" transform="translate(1620.658203 0)"/>
     <use xlink:href="#DejaVuSans-74" transform="translate(1681.9375 0)"/>
     <use xlink:href="#DejaVuSans-65" transform="translate(1721.146484 0)"/>
     <use xlink:href="#DejaVuSans-64" transform="translate(1782.669922 0)"/>
     <use xlink:href="#DejaVuSans-20" transform="translate(1846.146484 0)"/>
     <use xlink:href="#DejaVuSans-32" transform="translate(1877.933594 0)"/>
     <use xlink:href="#DejaVuSans-30" transform="translate(1941.556641 0)"/>
     <use xlink:href="#DejaVuSans-32" transform="translate(2005.179688 0)"/>
     <use xlink:href="#DejaVuSans-35" transform="translate(2068.802734 0)"/>
     <use xlink:href="#DejaVuSans-2d" transform="translate(2132.425781 0)"/>
     <use xlink:href="#DejaVuSans-30" transform="translate(2168.509766 0)"/>
     <use xlink:href="#DejaVuSans-31" transform="translate(2232.132812 0)"/>
     <use xlink:href="#DejaVuSans-2d" transform="translate(2295.755859 0)"/>
     <use xlink:href="#DejaVuSans-30" transform="translate(2331.839844 0)"/>
     <use xlink:href="#DejaVuSans-39" transform="translate(2395.462891 0)"/>
     <use xlink:href="#DejaVuSans-20" transform="translate(2459.085938 0)"/>
     <use xlink:href="#DejaVuSans-31" transform="translate(2490.873047 0)"/>
     <use xlink:href="#DejaVuSans-30" transform="translate(2554.496094 0)"/>
     <use xlink:href="#DejaVuSans-3a" transform="translate(2618.119141 0)"/>
     <use xlink:href="#DejaVuSans-30" transform="translate(2651.810547 0)"/>
     <use xlink:href="#DejaVuSans-34" transform="translate(2715.433594 0)"/>
     <use xlink:href="#DejaVuSans-3a" transform="translate(2779.056641 0)"/>
     <use xlink:href="#DejaVuSans-34" transform="translate(2812.748047 0)"/>
     <use xlink:href="#DejaVuSans-33" transform="translate(2876.371094 0)"/>
     <use xlink:href="#DejaVuSans-20" transform="translate(2939.994141 0)"/>
     <use xlink:href="#DejaVuSans-45" transform="translate(2971.78125 0)"/>
     <use xlink:href="#DejaVuSans-53" transform="translate(3034.964844 0)"/>
     <use xlink:href="#DejaVuSans-54" transform="translate(3098.441406 0)"/>
     <use xlink:href="#DejaVuSans-2d" transform="translate(3150.400391 0)"/>
     <use xlink:href="#DejaVuSans-30" transform="translate(3186.484375 0)"/>
     <use xlink:href="#DejaVuSans-35" transform="translate(3250.107422 0)"/>
     <use xlink:href="#DejaVuSans-30" transform="translate(3313.730469 0)"/>
     <use xlink:href="#DejaVuSans-30" transform="translate(3377.353516 0)"/>
     <use xlink:href="#DejaVuSans-20" transform="translate(3440.976562 0)"/>
     <use xlink:href="#DejaVuSans-62" transform="translate(3472.763672 0)"/>
     <use xlink:href="#DejaVuSans-79" transform="translate(3536.240234 0)"/>
     <use xlink:href="#DejaVuSans-20" transform="translate(3595.419922 0)"/>
     <use xlink:href="#DejaVuSans-63" transform="translate(3627.207031 0)"/>
     <use xlink:href="#DejaVuSans-68" transform="translate(3682.1875 0)"/>
     <use xlink:href="#DejaVuSans-6f" transform="translate(3745.566406 0)"/>
     <use xlink:href="#DejaVuSans-76" transform="translate(3806.748047 0)"/>
     <use xlink:href="#DejaVuSans-65" transform="translate(3865.927734 0)"/>
     <use xlink:href="#DejaVuSans-79" transform="translate(3927.451172 0)"/>
     <use xlink:href="#DejaVuSans-20" transform="translate(3986.630859 0)"/>
     <use xlink:href="#DejaVuSans-6f" transform="translate(4018.417969 0)"/>
     <use xlink:href="#DejaVuSans-6e" transform="translate(4079.599609 0)"/>
     <use xlink:href="#DejaVuSans-20" transform="translate(4142.978516 0)"/>
     <use xlink:href="#DejaVuSans-73" transform="translate(4174.765625 0)"/>
     <use xlink:href="#DejaVuSans-31" transform="translate(4226.865234 0)"/>
     <use xlink:href="#DejaVuSans-30" transform="translate(4290.488281 0)"/>
     <use xlink:href="#DejaVuSans-38" transform="translate(4354.111328 0)"/>
     <use xlink:href="#DejaVuSans-38" transform="translate(4417.734375 0)"/>
     <use xlink:href="#DejaVuSans-37" transform="translate(4481.357422 0)"/>
     <use xlink:href="#DejaVuSans-35" transform="translate(4544.980469 0)"/>
     <use xlink:href="#DejaVuSans-37" transform="translate(4608.603516 0)"/>
    </g>
   </g>
   <g id="legend_1">
    <g id="patch_7">
     <path d="M 439.546875 131.790625 
L 492.728125 131.790625 
Q 494.728125 131.790625 494.728125 129.790625 
L 494.728125 57.4 
Q 494.728125 55.4 492.728125 55.4 
L 439.546875 55.4 
Q 437.546875 55.4 437.546875 57.4 
L 437.546875 129.790625 
Q 437.546875 131.790625 439.546875 131.790625 
z
" style="fill: #ffffff; opacity: 0.8; stroke: #cccccc; stroke-linejoin: miter"/>
    </g>
    <g id="line2d_36">
     <path d="M 441.546875 63.498437 
L 451.546875 63.498437 
L 461.546875 63.498437 
" style="fill: none; stroke-dasharray: 5.55,2.4; stroke-dashoffset: 0; stroke: #1f77b4; stroke-width: 1.5"/>
    </g>
    <g id="text_19">
     <!-- sr2 -->
     <g transform="translate(469.546875 66.998437) scale(0.1 -0.1)">
      <use xlink:href="#DejaVuSans-73"/>
      <use xlink:href="#DejaVuSans-72" transform="translate(52.099609 0)"/>
      <use xlink:href="#DejaVuSans-32" transform="translate(93.212891 0)"/>
     </g>
    </g>
    <g id="line2d_37">
     <path d="M 441.546875 78.176562 
L 451.546875 78.176562 
L 461.546875 78.176562 
" style="fill: none; stroke-dasharray: 5.55,2.4; stroke-dashoffset: 0; stroke: #ff7f0e; stroke-width: 1.5"/>
    </g>
    <g id="text_20">
     <!-- sr3 -->
     <g transform="translate(469.546875 81.676562) scale(0.1 -0.1)">
      <use xlink:href="#DejaVuSans-73"/>
      <use xlink:href="#DejaVuSans-72" transform="translate(52.099609 0)"/>
      <use xlink:href="#DejaVuSans-33" transform="translate(93.212891 0)"/>
     </g>
    </g>
    <g id="line2d_38">
     <path d="M 441.546875 92.854687 
L 451.546875 92.854687 
L 461.546875 92.854687 
" style="fill: none; stroke-dasharray: 5.55,2.4; stroke-dashoffset: 0; stroke: #2ca02c; stroke-width: 1.5"/>
    </g>
    <g id="text_21">
     <!-- sr4 -->
     <g transform="translate(469.546875 96.354687) scale(0.1 -0.1)">
      <use xlink:href="#DejaVuSans-73"/>
      <use xlink:href="#DejaVuSans-72" transform="translate(52.099609 0)"/>
      <use xlink:href="#DejaVuSans-34" transform="translate(93.212891 0)"/>
     </g>
    </g>
    <g id="line2d_39">
     <path d="M 441.546875 107.532812 
L 451.546875 107.532812 
L 461.546875 107.532812 
" style="fill: none; stroke: #d62728; stroke-width: 1.5; stroke-linecap: square"/>
    </g>
    <g id="text_22">
     <!-- sr2c -->
     <g transform="translate(469.546875 111.032812) scale(0.1 -0.1)">
      <use xlink:href="#DejaVuSans-73"/>
      <use xlink:href="#DejaVuSans-72" transform="translate(52.099609 0)"/>
      <use xlink:href="#DejaVuSans-32" transform="translate(93.212891 0)"/>
      <use xlink:href="#DejaVuSans-63" transform="translate(156.835938 0)"/>
     </g>
    </g>
    <g id="line2d_40">
     <path d="M 441.546875 122.210938 
L 451.546875 122.210938 
L 461.546875 122.210938 
" style="fill: none; stroke: #9467bd; stroke-width: 1.5; stroke-linecap: square"/>
    </g>
    <g id="text_23">
     <!-- sr3c -->
     <g transform="translate(469.546875 125.710938) scale(0.1 -0.1)">
      <use xlink:href="#DejaVuSans-73"/>
      <use xlink:href="#DejaVuSans-72" transform="translate(52.099609 0)"/>
      <use xlink:href="#DejaVuSans-33" transform="translate(93.212891 0)"/>
      <use xlink:href="#DejaVuSans-63" transform="translate(156.835938 0)"/>
     </g>
    </g>
   </g>
  </g>
  <g id="text_24">
   <!-- Maximum Principal Rate of Deformation at R=10-cm for Various Resolutions -->
   <g transform="translate(41.0825 16.318125) scale(0.12 -0.12)">
    <defs>
     <path id="DejaVuSans-4d" d="M 628 4666 
L 1569 4666 
L 2759 1491 
L 3956 4666 
L 4897 4666 
L 4897 0 
L 4281 0 
L 4281 4097 
L 3078 897 
L 2444 897 
L 1241 4097 
L 1241 0 
L 628 0 
L 628 4666 
z
" transform="scale(0.015625)"/>
     <path id="DejaVuSans-50" d="M 1259 4147 
L 1259 2394 
L 2053 2394 
Q 2494 2394 2734 2622 
Q 2975 2850 2975 3272 
Q 2975 3691 2734 3919 
Q 2494 4147 2053 4147 
L 1259 4147 
z
M 628 4666 
L 2053 4666 
Q 2838 4666 3239 4311 
Q 3641 3956 3641 3272 
Q 3641 2581 3239 2228 
Q 2838 1875 2053 1875 
L 1259 1875 
L 1259 0 
L 628 0 
L 628 4666 
z
" transform="scale(0.015625)"/>
     <path id="DejaVuSans-52" d="M 2841 2188 
Q 3044 2119 3236 1894 
Q 3428 1669 3622 1275 
L 4263 0 
L 3584 0 
L 2988 1197 
Q 2756 1666 2539 1819 
Q 2322 1972 1947 1972 
L 1259 1972 
L 1259 0 
L 628 0 
L 628 4666 
L 2053 4666 
Q 2853 4666 3247 4331 
Q 3641 3997 3641 3322 
Q 3641 2881 3436 2590 
Q 3231 2300 2841 2188 
z
M 1259 4147 
L 1259 2491 
L 2053 2491 
Q 2509 2491 2742 2702 
Q 2975 2913 2975 3322 
Q 2975 3731 2742 3939 
Q 2509 4147 2053 4147 
L 1259 4147 
z
" transform="scale(0.015625)"/>
     <path id="DejaVuSans-44" d="M 1259 4147 
L 1259 519 
L 2022 519 
Q 2988 519 3436 956 
Q 3884 1394 3884 2338 
Q 3884 3275 3436 3711 
Q 2988 4147 2022 4147 
L 1259 4147 
z
M 628 4666 
L 1925 4666 
Q 3281 4666 3915 4102 
Q 4550 3538 4550 2338 
Q 4550 1131 3912 565 
Q 3275 0 1925 0 
L 628 0 
L 628 4666 
z
" transform="scale(0.015625)"/>
     <path id="DejaVuSans-3d" d="M 678 2906 
L 4684 2906 
L 4684 2381 
L 678 2381 
L 678 2906 
z
M 678 1631 
L 4684 1631 
L 4684 1100 
L 678 1100 
L 678 1631 
z
" transform="scale(0.015625)"/>
     <path id="DejaVuSans-56" d="M 1831 0 
L 50 4666 
L 709 4666 
L 2188 738 
L 3669 4666 
L 4325 4666 
L 2547 0 
L 1831 0 
z
" transform="scale(0.015625)"/>
    </defs>
    <use xlink:href="#DejaVuSans-4d"/>
    <use xlink:href="#DejaVuSans-61" transform="translate(86.279297 0)"/>
    <use xlink:href="#DejaVuSans-78" transform="translate(147.558594 0)"/>
    <use xlink:href="#DejaVuSans-69" transform="translate(206.738281 0)"/>
    <use xlink:href="#DejaVuSans-6d" transform="translate(234.521484 0)"/>
    <use xlink:href="#DejaVuSans-75" transform="translate(331.933594 0)"/>
    <use xlink:href="#DejaVuSans-6d" transform="translate(395.3125 0)"/>
    <use xlink:href="#DejaVuSans-20" transform="translate(492.724609 0)"/>
    <use xlink:href="#DejaVuSans-50" transform="translate(524.511719 0)"/>
    <use xlink:href="#DejaVuSans-72" transform="translate(583.064453 0)"/>
    <use xlink:href="#DejaVuSans-69" transform="translate(624.177734 0)"/>
    <use xlink:href="#DejaVuSans-6e" transform="translate(651.960938 0)"/>
    <use xlink:href="#DejaVuSans-63" transform="translate(715.339844 0)"/>
    <use xlink:href="#DejaVuSans-69" transform="translate(770.320312 0)"/>
    <use xlink:href="#DejaVuSans-70" transform="translate(798.103516 0)"/>
    <use xlink:href="#DejaVuSans-61" transform="translate(861.580078 0)"/>
    <use xlink:href="#DejaVuSans-6c" transform="translate(922.859375 0)"/>
    <use xlink:href="#DejaVuSans-20" transform="translate(950.642578 0)"/>
    <use xlink:href="#DejaVuSans-52" transform="translate(982.429688 0)"/>
    <use xlink:href="#DejaVuSans-61" transform="translate(1049.662109 0)"/>
    <use xlink:href="#DejaVuSans-74" transform="translate(1110.941406 0)"/>
    <use xlink:href="#DejaVuSans-65" transform="translate(1150.150391 0)"/>
    <use xlink:href="#DejaVuSans-20" transform="translate(1211.673828 0)"/>
    <use xlink:href="#DejaVuSans-6f" transform="translate(1243.460938 0)"/>
    <use xlink:href="#DejaVuSans-66" transform="translate(1304.642578 0)"/>
    <use xlink:href="#DejaVuSans-20" transform="translate(1339.847656 0)"/>
    <use xlink:href="#DejaVuSans-44" transform="translate(1371.634766 0)"/>
    <use xlink:href="#DejaVuSans-65" transform="translate(1448.636719 0)"/>
    <use xlink:href="#DejaVuSans-66" transform="translate(1510.160156 0)"/>
    <use xlink:href="#DejaVuSans-6f" transform="translate(1545.365234 0)"/>
    <use xlink:href="#DejaVuSans-72" transform="translate(1606.546875 0)"/>
    <use xlink:href="#DejaVuSans-6d" transform="translate(1645.910156 0)"/>
    <use xlink:href="#DejaVuSans-61" transform="translate(1743.322266 0)"/>
    <use xlink:href="#DejaVuSans-74" transform="translate(1804.601562 0)"/>
    <use xlink:href="#DejaVuSans-69" transform="translate(1843.810547 0)"/>
    <use xlink:href="#DejaVuSans-6f" transform="translate(1871.59375 0)"/>
    <use xlink:href="#DejaVuSans-6e" transform="translate(1932.775391 0)"/>
    <use xlink:href="#DejaVuSans-20" transform="translate(1996.154297 0)"/>
    <use xlink:href="#DejaVuSans-61" transform="translate(2027.941406 0)"/>
    <use xlink:href="#DejaVuSans-74" transform="translate(2089.220703 0)"/>
    <use xlink:href="#DejaVuSans-20" transform="translate(2128.429688 0)"/>
    <use xlink:href="#DejaVuSans-52" transform="translate(2160.216797 0)"/>
    <use xlink:href="#DejaVuSans-3d" transform="translate(2229.699219 0)"/>
    <use xlink:href="#DejaVuSans-31" transform="translate(2313.488281 0)"/>
    <use xlink:href="#DejaVuSans-30" transform="translate(2377.111328 0)"/>
    <use xlink:href="#DejaVuSans-2d" transform="translate(2440.734375 0)"/>
    <use xlink:href="#DejaVuSans-63" transform="translate(2476.818359 0)"/>
    <use xlink:href="#DejaVuSans-6d" transform="translate(2531.798828 0)"/>
    <use xlink:href="#DejaVuSans-20" transform="translate(2629.210938 0)"/>
    <use xlink:href="#DejaVuSans-66" transform="translate(2660.998047 0)"/>
    <use xlink:href="#DejaVuSans-6f" transform="translate(2696.203125 0)"/>
    <use xlink:href="#DejaVuSans-72" transform="translate(2757.384766 0)"/>
    <use xlink:href="#DejaVuSans-20" transform="translate(2798.498047 0)"/>
    <use xlink:href="#DejaVuSans-56" transform="translate(2830.285156 0)"/>
    <use xlink:href="#DejaVuSans-61" transform="translate(2890.943359 0)"/>
    <use xlink:href="#DejaVuSans-72" transform="translate(2952.222656 0)"/>
    <use xlink:href="#DejaVuSans-69" transform="translate(2993.335938 0)"/>
    <use xlink:href="#DejaVuSans-6f" transform="translate(3021.119141 0)"/>
    <use xlink:href="#DejaVuSans-75" transform="translate(3082.300781 0)"/>
    <use xlink:href="#DejaVuSans-73" transform="translate(3145.679688 0)"/>
    <use xlink:href="#DejaVuSans-20" transform="translate(3197.779297 0)"/>
    <use xlink:href="#DejaVuSans-52" transform="translate(3229.566406 0)"/>
    <use xlink:href="#DejaVuSans-65" transform="translate(3294.548828 0)"/>
    <use xlink:href="#DejaVuSans-73" transform="translate(3356.072266 0)"/>
    <use xlink:href="#DejaVuSans-6f" transform="translate(3408.171875 0)"/>
    <use xlink:href="#DejaVuSans-6c" transform="translate(3469.353516 0)"/>
    <use xlink:href="#DejaVuSans-75" transform="translate(3497.136719 0)"/>
    <use xlink:href="#DejaVuSans-74" transform="translate(3560.515625 0)"/>
    <use xlink:href="#DejaVuSans-69" transform="translate(3599.724609 0)"/>
    <use xlink:href="#DejaVuSans-6f" transform="translate(3627.507812 0)"/>
    <use xlink:href="#DejaVuSans-6e" transform="translate(3688.689453 0)"/>
    <use xlink:href="#DejaVuSans-73" transform="translate(3752.068359 0)"/>
   </g>
  </g>
 </g>
 <defs>
  <clipPath id="pb9be971a6a">
   <rect x="53.328125" y="50.4" width="446.4" height="332.64"/>
  </clipPath>
 </defs>
</svg>
